<svg width="148" height="148" viewBox="0 0 148 148" fill="none" xmlns="http://www.w3.org/2000/svg">
<g clip-path="url(#clip0_26_1366)">
<path d="M78.6778 10.2076C76.0967 1.91262 64.1529 2.58465 62.5099 11.1173L62.0337 13.6326C61.7544 15.0946 61.0891 16.4551 60.1067 17.5732C59.1242 18.6912 57.8605 19.526 56.4466 19.9908C55.0327 20.4557 53.5202 20.5337 52.066 20.2168C50.6118 19.8999 49.2689 19.1997 48.1766 18.1887L46.2955 16.4586C39.9163 10.5613 29.9047 17.1198 32.759 25.3211L33.5915 27.7454C34.0796 29.1497 34.1834 30.6589 33.8922 32.1168C33.601 33.5746 32.9254 34.9282 31.9353 36.0372C30.9453 37.1463 29.6768 37.9705 28.2611 38.4246C26.8455 38.8787 25.3342 38.9462 23.8837 38.62L21.3809 38.056C12.9198 36.1392 7.51715 46.8238 14.0928 52.5012L16.023 54.1763C17.1501 55.1483 17.9966 56.4042 18.4747 57.8137C18.9527 59.2231 19.0448 60.7349 18.7415 62.192C18.4382 63.6491 17.7504 64.9985 16.7497 66.1001C15.7489 67.2018 14.4715 68.0155 13.0502 68.457L10.6041 69.2124C2.30916 71.7935 2.98119 83.7373 11.5138 85.3803L14.0292 85.8566C15.4911 86.1358 16.8517 86.8011 17.9697 87.7836C19.0877 88.766 19.9225 90.0297 20.3874 91.4436C20.8522 92.8575 20.9303 94.37 20.6134 95.8242C20.2965 97.2785 19.5962 98.6214 18.5852 99.7136L16.8551 101.595C10.9578 107.974 17.5163 117.985 25.7176 115.131L28.1419 114.299C29.547 113.81 31.0574 113.706 32.5163 113.997C33.9752 114.289 35.3296 114.965 36.4391 115.956C37.5485 116.948 38.3726 118.218 38.8259 119.635C39.2792 121.052 39.3451 122.564 39.017 124.015L38.4525 126.509C36.5358 134.97 47.2203 140.373 52.8977 133.797L54.5728 131.867C55.5448 130.74 56.8007 129.894 58.2102 129.416C59.6197 128.938 61.1314 128.845 62.5885 129.149C64.0456 129.452 65.395 130.14 66.4967 131.141C67.5983 132.141 68.4121 133.419 68.8535 134.84L69.6089 137.286C72.1901 145.581 84.1339 144.909 85.7769 136.376L86.2531 133.861C86.5323 132.399 87.1977 131.039 88.1801 129.921C89.1625 128.802 90.4263 127.968 91.8402 127.503C93.254 127.038 94.7666 126.96 96.2208 127.277C97.675 127.594 99.0179 128.294 100.11 129.305L101.991 131.035C108.37 136.932 118.382 130.374 115.528 122.173L114.695 119.748C114.206 118.343 114.102 116.833 114.394 115.374C114.685 113.915 115.362 112.561 116.353 111.451C117.344 110.342 118.614 109.518 120.031 109.064C121.448 108.611 122.961 108.545 124.412 108.873L126.906 109.438C135.367 111.354 140.77 100.67 134.194 94.9925L132.264 93.3174C131.137 92.3454 130.29 91.0895 129.812 89.68C129.334 88.2706 129.242 86.7588 129.545 85.3017C129.849 83.8446 130.536 82.4952 131.537 81.3936C132.538 80.2919 133.815 79.4782 135.237 79.0367L137.683 78.2813C145.978 75.7002 145.306 63.7564 136.773 62.1134L134.258 61.6371C132.796 61.3579 131.435 60.6926 130.317 59.7101C129.199 58.7277 128.364 57.464 127.899 56.0501C127.435 54.6362 127.357 53.1237 127.673 51.6695C127.99 50.2152 128.691 48.8723 129.702 47.78L131.432 45.8989C137.329 39.5198 130.77 29.5082 122.569 32.3625L120.145 33.195C118.741 33.6831 117.231 33.7868 115.773 33.4957C114.316 33.2045 112.962 32.5289 111.853 31.5388C110.744 30.5487 109.92 29.2802 109.466 27.8646C109.011 26.4489 108.944 24.9377 109.27 23.4872L109.834 20.9843C111.751 12.5233 101.066 7.12061 95.3891 13.6962L93.7139 15.6265C92.742 16.7536 91.4861 17.6001 90.0766 18.0781C88.6671 18.5561 87.1554 18.6483 85.6983 18.3449C84.2411 18.0416 82.8918 17.3539 81.7901 16.3531C80.6885 15.3524 79.8747 14.075 79.4332 12.6536L78.6778 10.2076ZM76.5821 117.09C70.8427 117.494 65.0801 116.754 59.6292 114.912C54.1783 113.07 49.1479 110.163 44.8303 106.36C40.5127 102.557 36.994 97.9335 34.4787 92.7587C31.9634 87.5839 30.5016 81.9608 30.1784 76.2162C29.8552 70.4716 30.6769 64.7201 32.5958 59.2958C34.5148 53.8715 37.4927 48.8827 41.3564 44.6194C45.2201 40.356 49.8927 36.903 55.1025 34.4611C60.3124 32.0193 65.9556 30.6372 71.7042 30.3953C83.2017 29.7484 94.4853 33.6953 103.073 41.3679C111.66 49.0404 116.848 59.8101 117.495 71.3076C118.142 82.8052 114.195 94.0888 106.522 102.676C98.8498 111.264 88.0802 116.451 76.5826 117.098L76.5821 117.09Z" fill="black"/>
</g>
<defs>
<clipPath id="clip0_26_1366">
<rect width="139" height="139" fill="white" transform="translate(0.848633 8.26074) rotate(-3.22042)"/>
</clipPath>
</defs>
</svg>
