<svg width="99" height="99" viewBox="0 0 99 99" fill="none" xmlns="http://www.w3.org/2000/svg">
<g clip-path="url(#clip0_26_1369)">
<path d="M85.5851 50.241L81.0277 48.7199C76.0612 46.9311 74.7175 40.4991 78.5526 36.8715L82.1199 33.6532C85.0809 30.9149 85.2478 26.6405 82.5802 24.018L77.9928 18.9703C75.2545 16.0093 70.98 15.8423 68.3576 18.5099L64.7903 21.7282C60.9552 25.3558 54.4931 23.1727 53.4323 18.0948L52.4423 13.3554C51.6644 9.63166 47.9812 7.22138 44.2574 7.99927L37.4869 9.41361C33.7631 10.1915 31.3528 13.8747 32.1307 17.5985L33.05 21.9993C34.1108 27.0772 29.063 31.6647 24.0965 29.8758L19.6098 28.6932C15.8003 27.3692 12.0208 29.5719 10.9647 32.9723L8.7816 39.4344C7.79614 43.1732 9.66032 47.0234 13.1314 48.4181L17.6887 49.9392C22.5845 51.3895 23.9989 58.16 20.0931 61.449L16.5258 64.6673C13.5648 67.4057 13.3979 71.6801 16.0655 74.3025L20.6529 79.3503C23.3913 82.3113 27.6657 82.4782 30.2881 79.8106L33.9261 76.9309C37.7612 73.3033 44.2234 75.4864 45.2841 80.5643L46.2742 85.3036C47.0521 89.0274 50.7352 91.4377 54.459 90.6598L61.2295 89.2455C64.9533 88.4676 67.3636 84.7844 66.5857 81.0606L65.6664 76.6598C64.6056 71.5819 69.6534 66.9944 74.62 68.7833L79.1773 70.3044C82.9869 71.6284 86.7663 69.4257 87.8225 66.0253L90.0055 59.5632C90.9203 55.4859 89.0561 51.6357 85.5851 50.241ZM52.1869 62.8706C44.7393 64.4264 37.373 59.6058 35.8172 52.1582C34.2614 44.7107 39.082 37.3443 46.5295 35.7885C53.9771 34.2327 61.3435 39.0533 62.8993 46.5009C64.455 53.9484 59.6345 61.3148 52.1869 62.8706Z" fill="black"/>
</g>
<defs>
<clipPath id="clip0_26_1369">
<rect width="83" height="83" fill="white" transform="translate(0.249023 17.1926) rotate(-11.7993)"/>
</clipPath>
</defs>
</svg>
