<svg width="250" height="249" viewBox="0 0 250 249" fill="none" xmlns="http://www.w3.org/2000/svg">
<path d="M125.004 78.5275C112.615 78.6499 101.044 83.5507 92.4033 92.2996C83.763 101.049 79.056 112.631 79.1775 124.931C79.2989 137.231 84.2333 148.67 93.0452 157.294C101.857 165.871 113.571 170.542 125.912 170.42C138.302 170.297 149.873 165.396 158.513 156.648C167.154 147.899 171.861 136.317 171.739 124.016C171.618 111.716 166.683 100.277 157.871 91.653C149.06 83.0764 137.394 78.4051 125.004 78.5275ZM125.836 162.762C104.48 162.973 87.0994 145.961 86.8909 124.855C86.6825 103.748 103.723 86.3961 125.08 86.1852C146.437 85.9742 163.817 102.986 164.026 124.093C164.234 145.199 147.193 162.551 125.836 162.762Z" fill="black"/>
<path d="M206.116 104.531L198.788 104.603C192.811 104.662 187.748 99.7343 187.687 93.6082C187.657 90.5451 188.932 87.8042 191.225 85.7233L195.904 81.0821C200.535 76.4413 200.462 68.975 195.739 64.3787L184.884 53.9078C182.742 51.8229 179.596 50.6094 176.415 50.6409C173.233 50.6723 170.16 51.9471 168.011 54.0744L163.524 58.6181C161.378 61.0325 158.402 62.3543 155.268 62.3852C149.097 62.4462 143.794 57.5206 143.735 51.6337L143.664 44.4068C143.6 37.9456 138.483 32.4438 131.975 32.5081L117.32 32.6529C110.667 32.7186 105.418 38.2749 105.482 44.7839L105.554 52.0587C105.612 57.9456 100.551 62.9736 94.3805 63.0345C91.2951 63.065 88.4862 61.8004 86.3428 59.5719L81.6211 55.0234C79.4786 52.8907 76.3332 51.7251 73.1514 51.7565C69.9696 51.788 66.8965 53.0628 64.7479 55.1901L54.1012 65.8256C49.5185 70.4659 49.5927 77.98 54.2657 82.4811L58.8418 86.9352C61.2736 89.0651 62.6504 91.7798 62.6811 94.8907C62.7416 101.017 57.777 106.044 51.7991 106.103L44.4713 106.175C37.8661 106.193 32.375 111.608 32.4393 118.117L32.5112 125.392L32.583 132.666C32.6468 139.128 38.2443 144.481 44.849 144.416L52.1768 144.343C58.1547 144.284 63.2176 149.212 63.2782 155.339C63.3084 158.402 61.9864 161.239 59.5973 163.416L55.1091 167.864C50.5264 172.505 50.6001 179.971 55.2736 184.52L66.1292 195.038C68.2717 197.171 71.4171 198.337 74.5989 198.305C77.7807 198.274 80.8538 196.999 83.0024 194.872L87.6333 190.231C89.6359 187.962 92.4675 186.641 95.5529 186.611C101.724 186.55 106.883 191.477 106.941 197.364L107.013 204.638C107.077 211.1 112.435 216.599 119.039 216.534L133.695 216.389C140.251 216.324 145.645 210.767 145.58 204.258L145.509 196.983C145.45 191.096 150.463 186.068 156.634 186.007C159.719 185.977 162.577 187.289 164.818 189.612L169.394 194.066C171.584 196.151 174.682 197.365 177.864 197.333C181.045 197.302 184.118 196.027 186.267 193.9L196.913 183.168C201.495 178.528 201.421 171.014 196.748 166.465L191.978 161.917C189.644 159.882 188.313 156.975 188.283 153.96C188.223 147.834 193.185 142.616 199.163 142.557L206.491 142.484C213.048 142.419 217.675 137.444 217.611 130.935L217.538 123.564L217.466 116.289C217.402 109.78 212.673 104.466 206.116 104.531ZM209.921 123.639L209.992 130.866C210.012 132.876 208.921 134.658 206.511 134.682L199.183 134.754C194.217 134.803 189.513 136.956 185.982 140.629C182.498 144.253 180.617 149.01 180.666 153.988C180.717 159.157 182.885 163.922 186.825 167.425L191.449 171.878C193.056 173.49 193.083 176.17 191.508 177.765L180.862 188.496C180.098 189.222 178.993 189.664 177.836 189.675C176.679 189.687 175.518 189.267 174.788 188.556L170.358 184.244C166.607 180.404 161.717 178.299 156.558 178.35C151.545 178.399 146.935 180.359 143.354 183.841C139.725 187.419 137.842 192.08 137.891 197.058L137.963 204.333C137.986 206.678 135.933 208.709 133.716 208.73L119.06 208.875C116.842 208.897 114.846 206.907 114.823 204.561L114.751 197.287C114.702 192.357 112.679 187.686 108.981 184.181C105.331 180.77 100.587 178.903 95.6219 178.952C90.5117 179.002 85.6156 181.204 82.1337 185.02L77.6942 189.515C76.9299 190.241 75.8254 190.683 74.6684 190.694C73.5113 190.706 72.3505 190.334 71.7172 189.67L71.6685 189.623L71.6198 189.575L60.7642 179.057C59.1577 177.493 59.1317 174.861 60.7066 173.218L65.0511 168.867C68.9683 165.19 71.0899 160.335 71.0389 155.166C70.9897 150.189 69.0164 145.661 65.4617 142.106C61.8583 138.504 57.1154 136.684 52.1498 136.733L44.7738 136.806C42.3633 136.83 40.3182 134.792 40.297 132.638L40.2246 125.315L40.1528 118.041C40.1315 115.887 42.136 113.809 44.5464 113.785L51.8742 113.713C56.8398 113.664 61.5458 111.75 65.0774 108.078C68.5612 104.454 70.4437 99.7921 70.395 94.8624C70.344 89.6935 68.1268 84.881 64.1382 81.3305L59.6599 77.019C58.5889 75.9766 58.4325 74.7815 58.4259 74.1114C58.4197 73.4892 58.5521 72.2434 59.6023 71.18L70.2002 60.4972C70.9645 59.7716 72.0691 59.3299 73.2261 59.3185C74.3831 59.3071 75.5439 59.6785 76.1772 60.3424L76.2259 60.3898L76.2746 60.4372L80.8507 64.8913C84.456 68.6849 89.2977 70.7431 94.4561 70.6922C99.4699 70.6427 104.127 68.682 107.709 65.2004C111.338 61.6225 113.317 56.96 113.268 51.9826L113.196 44.7078C113.173 42.3626 115.081 40.3334 117.251 40.312L131.954 40.1667C134.124 40.1453 135.831 42.1388 135.854 44.484L135.926 51.7588C135.975 56.6884 138.142 61.3578 141.841 64.8633C145.491 68.2735 150.282 70.1408 155.296 70.0912C160.503 70.0398 165.399 67.8375 169.024 63.9246L173.368 59.526C174.133 58.8005 175.237 58.3588 176.394 58.3474C177.551 58.3359 178.713 58.7552 179.442 59.4181L190.297 69.8891C191.076 70.6473 191.569 71.6954 191.58 72.7962C191.591 73.897 191.167 74.9542 190.403 75.7276L185.868 80.2718C182.046 83.8515 179.924 88.659 179.975 93.8279C180.024 98.8054 181.998 103.333 185.552 106.888C189.156 110.49 193.899 112.31 198.864 112.261L206.192 112.189C208.795 112.163 209.783 114.546 209.85 116.46L209.921 123.639Z" fill="black"/>
</svg>
