<svg width="230" height="230" viewBox="0 0 230 230" fill="none" xmlns="http://www.w3.org/2000/svg">
<g clip-path="url(#clip0_26_1373)">
<path d="M121.8 15.6562C117.766 2.69415 99.1023 3.74429 96.5349 17.0778L95.7907 21.0084C95.3543 23.2929 94.3147 25.4189 92.7795 27.166C91.2443 28.9131 89.2695 30.2175 87.0601 30.944C84.8507 31.6704 82.4872 31.7923 80.2148 31.2971C77.9423 30.8019 75.8438 29.7077 74.137 28.1278L71.1975 25.4243C61.2291 16.209 45.5846 26.4575 50.0448 39.2732L51.3458 43.0616C52.1084 45.256 52.2706 47.6143 51.8156 49.8925C51.3605 52.1707 50.3048 54.2858 48.7577 56.0188C47.2106 57.7519 45.2283 59.0399 43.0162 59.7495C40.8041 60.4591 38.4424 60.5644 36.1759 60.0547L32.2648 59.1734C19.0432 56.1782 10.6007 72.8744 20.8761 81.7461L23.8924 84.3637C25.6537 85.8826 26.9764 87.8451 27.7234 90.0476C28.4704 92.2501 28.6144 94.6125 28.1404 96.8894C27.6664 99.1663 26.5917 101.275 25.0279 102.996C23.464 104.718 21.468 105.99 19.2469 106.679L15.4246 107.86C2.46248 111.893 3.51263 130.557 16.8461 133.125L20.7767 133.869C23.0612 134.305 25.1873 135.345 26.9344 136.88C28.6814 138.415 29.9859 140.39 30.7123 142.599C31.4387 144.809 31.5607 147.172 31.0655 149.445C30.5703 151.717 29.476 153.816 27.8962 155.522L25.1926 158.462C15.9773 168.43 26.2258 184.075 39.0416 179.615L42.8299 178.314C45.0256 177.55 47.3857 177.387 49.6655 177.843C51.9453 178.298 54.0617 179.355 55.7954 180.904C57.5291 182.453 58.8168 184.437 59.5251 186.652C60.2335 188.866 60.3366 191.23 59.8238 193.497L58.9417 197.395C55.9465 210.616 72.6427 219.059 81.5144 208.783L84.1321 205.767C85.6509 204.006 87.6134 202.683 89.816 201.936C92.0185 201.189 94.3808 201.045 96.6577 201.519C98.9347 201.993 101.043 203.068 102.765 204.632C104.486 206.195 105.758 208.191 106.448 210.413L107.628 214.235C111.662 227.197 130.325 226.147 132.893 212.813L133.637 208.883C134.073 206.598 135.113 204.472 136.648 202.725C138.183 200.978 140.158 199.674 142.368 198.947C144.577 198.221 146.941 198.099 149.213 198.594C151.485 199.089 153.584 200.183 155.291 201.763L158.23 204.467C168.199 213.682 183.843 203.434 179.383 190.618L178.082 186.83C177.318 184.634 177.155 182.274 177.611 179.994C178.066 177.714 179.123 175.598 180.672 173.864C182.221 172.13 184.206 170.843 186.42 170.134C188.634 169.426 190.998 169.323 193.265 169.836L197.163 170.718C210.385 173.713 218.827 157.017 208.552 148.145L205.535 145.527C203.774 144.009 202.451 142.046 201.704 139.843C200.957 137.641 200.813 135.279 201.287 133.002C201.761 130.725 202.836 128.616 204.4 126.895C205.964 125.173 207.96 123.902 210.181 123.212L214.003 122.031C226.965 117.998 225.915 99.334 212.582 96.7665L208.651 96.0223C206.367 95.586 204.24 94.5463 202.493 93.0111C200.746 91.4759 199.442 89.5012 198.715 87.2918C197.989 85.0824 197.867 82.7188 198.362 80.4464C198.857 78.174 199.952 76.0755 201.532 74.3687L204.235 71.4292C213.45 61.4608 203.202 45.8163 190.386 50.2765L186.598 51.5774C184.403 52.3401 182.045 52.5023 179.767 52.0472C177.489 51.5922 175.374 50.5365 173.641 48.9893C171.908 47.4422 170.62 45.46 169.91 43.2478C169.2 41.0357 169.095 38.6741 169.605 36.4076L170.486 32.4965C173.481 19.2749 156.785 10.8324 147.913 21.1078L145.296 24.124C143.777 25.8853 141.814 27.2081 139.612 27.9551C137.409 28.7021 135.047 28.846 132.77 28.372C130.493 27.898 128.384 26.8234 126.663 25.2595C124.942 23.6957 123.67 21.6996 122.98 19.4786L121.8 15.6562ZM118.525 182.675C109.556 183.307 100.551 182.15 92.0333 179.272C83.5156 176.393 75.6548 171.851 68.9079 165.908C62.161 159.965 56.6625 152.741 52.732 144.654C48.8015 136.568 46.5173 127.781 46.0122 118.804C45.5071 109.828 46.7912 100.84 49.7898 92.3637C52.7884 83.8875 57.4418 76.0918 63.4795 69.4296C69.5171 62.7675 76.8187 57.3717 84.9598 53.5559C93.1009 49.7402 101.919 47.5805 110.902 47.2025C128.869 46.1915 146.501 52.3592 159.92 64.3487C173.339 76.3382 181.446 93.1673 182.457 111.134C183.468 129.1 177.3 146.733 165.311 160.152C153.321 173.571 136.492 181.678 118.526 182.689L118.525 182.675Z" fill="black"/>
</g>
<defs>
<clipPath id="clip0_26_1373">
<rect width="217.208" height="217.208" fill="white" transform="translate(0.180176 12.614) rotate(-3.22042)"/>
</clipPath>
</defs>
</svg>
