<svg width="223" height="224" viewBox="0 0 223 224" fill="none" xmlns="http://www.w3.org/2000/svg">
<path d="M179.847 105.879L172.239 80.1292L157.889 84.3693C155.322 79.8782 152.131 75.8632 148.478 72.3855L155.527 59.4755L131.942 46.6493L125.068 59.2888C120.081 57.9555 114.88 57.378 109.575 57.5602L105.523 43.8473L79.7733 51.4558L83.8252 65.1688C79.2731 67.8991 75.2307 71.2444 71.7591 75.0408L59.1196 68.1671L46.2934 91.7522L59.2271 98.7577C58.0514 103.662 57.5883 108.757 57.8414 113.932L43.4914 118.172L51.0999 143.921L65.8857 139.552C68.517 143.769 71.7061 147.529 75.309 150.84L67.8211 164.608L91.4062 177.435L99.0358 163.405C103.632 164.526 108.429 164.968 113.269 164.814L117.826 180.237L143.575 172.628L139.018 157.205C143.197 154.694 146.95 151.726 150.199 148.287L164.229 155.917L177.055 132.332L163.32 124.834C164.555 120.131 165.188 115.241 165.095 110.238L179.847 105.879ZM116.999 130.063C107.041 133.006 96.6071 127.303 93.6648 117.345C90.7224 107.387 96.3815 96.9295 106.339 93.9871C116.297 91.0448 126.765 96.7375 129.707 106.695C132.65 116.653 126.957 127.121 116.999 130.063Z" fill="black"/>
</svg>
