<svg width="154" height="153" viewBox="0 0 154 153" fill="none" xmlns="http://www.w3.org/2000/svg">
<g clip-path="url(#clip0_26_1360)">
<path d="M78.2054 12.6461C75.2322 4.4834 63.3339 5.72341 62.0991 14.3246L61.7432 16.8598C61.5339 18.3334 60.9341 19.7241 60.006 20.8876C59.0779 22.0511 57.8554 22.9451 56.4653 23.4768C55.0751 24.0085 53.568 24.1584 52.1004 23.9112C50.6327 23.6639 49.258 23.0283 48.1188 22.0705L46.1574 20.4319C39.5047 14.8451 29.8168 21.8729 33.0584 29.9289L34.0054 32.3109C34.5597 33.6903 34.7353 35.1929 34.5138 36.663C34.2924 38.1331 33.682 39.5173 32.7459 40.6722C31.8097 41.8271 30.5819 42.7109 29.1895 43.2319C27.7971 43.7528 26.2907 43.8922 24.8264 43.6354L22.2995 43.1912C13.7568 41.6795 8.86901 52.6093 15.7075 57.9671L17.7153 59.5484C18.8875 60.4656 19.7928 61.6798 20.3374 63.0649C20.882 64.45 21.046 65.9556 20.8124 67.4255C20.5788 68.8954 19.9561 70.276 19.009 71.4241C18.0618 72.5722 16.8246 73.4458 15.4259 73.9545L13.0186 74.8255C4.85594 77.7987 6.09595 89.6969 14.6972 90.9317L17.2323 91.2877C18.7059 91.497 20.0966 92.0968 21.2601 93.0249C22.4237 93.9529 23.3177 95.1755 23.8493 96.5656C24.381 97.9558 24.531 99.4629 24.2837 100.931C24.0364 102.398 23.4009 103.773 22.443 104.912L20.8045 106.873C15.2177 113.526 22.2454 123.214 30.3015 119.973L32.6834 119.026C34.0637 118.47 35.5673 118.294 37.0385 118.516C38.5096 118.738 39.8947 119.349 41.0501 120.286C42.2055 121.223 43.0891 122.453 43.6093 123.847C44.1296 125.24 44.2675 126.748 44.0088 128.213L43.5638 130.731C42.0521 139.274 52.9818 144.162 58.3396 137.323L59.9209 135.316C60.8381 134.143 62.0523 133.238 63.4374 132.693C64.8226 132.149 66.3282 131.985 67.7981 132.218C69.268 132.452 70.6486 133.075 71.7966 134.022C72.9447 134.969 73.8184 136.206 74.327 137.605L75.198 140.012C78.1712 148.175 90.0695 146.935 91.3043 138.334L91.6602 135.799C91.8695 134.325 92.4693 132.934 93.3974 131.771C94.3255 130.607 95.548 129.713 96.9382 129.182C98.3283 128.65 99.8354 128.5 101.303 128.747C102.771 128.994 104.145 129.63 105.285 130.588L107.246 132.226C113.899 137.813 123.587 130.785 120.345 122.729L119.398 120.347C118.843 118.967 118.667 117.464 118.889 115.992C119.11 114.521 119.721 113.136 120.659 111.981C121.596 110.825 122.825 109.942 124.219 109.422C125.613 108.901 127.121 108.763 128.586 109.022L131.104 109.467C139.647 110.979 144.534 100.049 137.696 94.6913L135.688 93.1099C134.516 92.1927 133.611 90.9786 133.066 89.5934C132.521 88.2083 132.357 86.7027 132.591 85.2328C132.825 83.7629 133.447 82.3823 134.394 81.2342C135.342 80.0862 136.579 79.2125 137.978 78.7039L140.385 77.8328C148.547 74.8596 147.307 62.9614 138.706 61.7266L136.171 61.3706C134.698 61.1614 133.307 60.5616 132.143 59.6335C130.98 58.7054 130.086 57.4829 129.554 56.0927C129.022 54.7026 128.872 53.1955 129.12 51.7278C129.367 50.2602 130.003 48.8854 130.96 47.7462L132.599 45.7849C138.186 39.1321 131.158 29.4442 123.102 32.6858L120.72 33.6328C119.341 34.1872 117.838 34.3627 116.368 34.1413C114.898 33.9198 113.514 33.3095 112.359 32.3733C111.204 31.4372 110.32 30.2094 109.799 28.817C109.278 27.4246 109.139 25.9182 109.395 24.4539L109.84 21.927C111.351 13.3842 100.422 8.49647 95.0638 15.335L93.4825 17.3428C92.5653 18.5149 91.3511 19.4203 89.966 19.9649C88.5809 20.5095 87.0752 20.6735 85.6053 20.4399C84.1354 20.2063 82.7548 19.5836 81.6068 18.6364C80.4587 17.6892 79.585 16.4521 79.0764 15.0534L78.2054 12.6461ZM81.2016 119.507C75.4879 120.184 69.6966 119.719 64.1642 118.139C58.6318 116.558 53.4686 113.894 48.9748 110.301C44.481 106.708 40.7462 102.257 37.9873 97.2082C35.2284 92.1591 33.5006 86.612 32.9042 80.8893C32.3078 75.1666 32.8547 69.3824 34.5132 63.8729C36.1716 58.3634 38.9086 53.2385 42.5649 48.796C46.2213 44.3534 50.7241 40.6819 55.8117 37.9947C60.8994 35.3075 66.4704 33.6583 72.2009 33.1429C83.6546 31.9493 95.1134 35.3544 104.056 42.6094C112.999 49.8643 118.694 60.3747 119.888 71.8284C121.082 83.2821 117.676 94.7409 110.422 103.684C103.167 112.627 92.6562 118.322 81.2025 119.515L81.2016 119.507Z" fill="black"/>
</g>
<defs>
<clipPath id="clip0_26_1360">
<rect width="139" height="139" fill="white" transform="translate(0.37207 14.4077) rotate(-5.94977)"/>
</clipPath>
</defs>
</svg>
