<svg width="93" height="93" viewBox="0 0 93 93" fill="none" xmlns="http://www.w3.org/2000/svg">
<g clip-path="url(#clip0_26_1362)">
<path d="M82.0537 50.4523L77.6519 48.5271C72.8665 46.2984 72.1074 39.7715 76.2535 36.504L80.096 33.62C83.2915 31.1593 83.8426 26.9173 81.4219 24.0653L77.3076 18.625C74.8469 15.4296 70.6049 14.8785 67.7529 17.2991L63.9104 20.1832C59.7643 23.4507 53.5249 20.6947 52.9256 15.542L52.3663 10.7327C51.9268 6.95403 48.4756 4.22195 44.6969 4.66143L37.8265 5.46049C34.0478 5.89997 31.3158 9.35121 31.7552 13.1299L32.2746 17.5956C32.8739 22.7484 27.4336 26.8628 22.6483 24.634L18.2864 23.0523C14.6115 21.3908 10.6491 23.2443 9.29104 26.5357L6.53506 32.775C5.217 36.41 6.72699 40.4123 10.0584 42.1139L14.4603 44.0391C19.2057 45.9243 20.0047 52.7946 15.8187 55.7187L11.9761 58.6027C8.78065 61.0633 8.22953 65.3054 10.6502 68.1574L14.7646 73.5976C17.2252 76.7931 21.4673 77.3442 24.3192 74.9235L28.2017 72.383C32.3478 69.1155 38.5872 71.8714 39.1865 77.0242L39.7458 81.8335C40.1853 85.6122 43.6365 88.3442 47.4152 87.9048L54.2856 87.1057C58.0643 86.6662 60.7964 83.215 60.3569 79.4363L59.8375 74.9706C59.2382 69.8178 64.6785 65.7034 69.4638 67.9322L73.8657 69.8574C77.5406 71.5189 81.503 69.6654 82.861 66.374L85.617 60.1347C86.8951 56.1562 85.3851 52.1539 82.0537 50.4523ZM47.6542 60.0238C40.0968 60.9028 33.1943 55.4386 32.3153 47.8812C31.4364 40.3238 36.9005 33.4213 44.4579 32.5424C52.0153 31.6634 58.9178 37.1276 59.7968 44.685C60.6757 52.2424 55.2116 59.1448 47.6542 60.0238Z" fill="black"/>
</g>
<defs>
<clipPath id="clip0_26_1362">
<rect width="83" height="83" fill="white" transform="translate(0.0395508 9.85522) rotate(-6.63399)"/>
</clipPath>
</defs>
</svg>
