<svg width="45" height="45" viewBox="0 0 45 45" fill="none" xmlns="http://www.w3.org/2000/svg">
<g clip-path="url(#clip0_40_1168)">
<path d="M32.9158 44.5504L35.17 42.296C35.4711 41.9956 35.6211 41.6496 35.6211 41.2584C35.6211 40.8681 35.4711 40.5223 35.17 40.2219L17.4494 22.5002L35.1696 4.77941C35.4706 4.47886 35.6206 4.13298 35.6206 3.74225C35.6206 3.35137 35.4706 3.00549 35.1696 2.7051L32.9152 0.451063C32.6148 0.150041 32.2689 3.66817e-06 31.8781 3.65108e-06C31.4875 3.63401e-06 31.1416 0.150515 30.8412 0.451063L9.82872 21.4631C9.52817 21.7635 9.37798 22.1095 9.37798 22.5002C9.37798 22.891 9.52817 23.2364 9.82872 23.5366L30.8412 44.5504C31.1418 44.8508 31.4876 45 31.8781 45C32.2689 45 32.6148 44.8508 32.9158 44.5504Z" fill="black"/>
</g>
<defs>
<clipPath id="clip0_40_1168">
<rect width="45" height="45" fill="white" transform="translate(45 3.8147e-06) rotate(90)"/>
</clipPath>
</defs>
</svg>
