<svg width="526" height="329" viewBox="0 0 526 329" fill="none" xmlns="http://www.w3.org/2000/svg">
<g clip-path="url(#clip0_28_1873)">
<path d="M458.216 22.4765H349.345C349.169 22.4759 349.001 22.4058 348.877 22.2816C348.753 22.1573 348.684 21.9891 348.684 21.8137C348.684 21.6383 348.753 21.4701 348.877 21.3459C349.001 21.2216 349.169 21.1515 349.345 21.1509H458.216C458.392 21.1515 458.56 21.2216 458.684 21.3459C458.808 21.4701 458.878 21.6383 458.878 21.8137C458.878 21.9891 458.808 22.1573 458.684 22.2816C458.56 22.4058 458.392 22.4759 458.216 22.4765Z" fill="#E6E6E6"/>
<path d="M87.1734 239.175H56.9551V309.119H87.1734V239.175Z" fill="#3F3D56"/>
<path d="M470.396 239.175H440.178V309.119H470.396V239.175Z" fill="#3F3D56"/>
<path d="M86.8846 179.934C134.87 179.934 173.769 141.094 173.769 93.182C173.769 45.2703 134.87 6.43018 86.8846 6.43018C38.8995 6.43018 0 45.2703 0 93.182C0 141.094 38.8995 179.934 86.8846 179.934Z" fill="#E4E4E4"/>
<path d="M83.7392 198.717H60.3887V242.604H83.7392V198.717Z" fill="#3F3D56"/>
<path d="M69.3175 104.085H63.8232V202.831H69.3175V104.085Z" fill="#3F3D56"/>
<path d="M80.3058 104.085H74.8115V202.831H80.3058V104.085Z" fill="#3F3D56"/>
<path d="M78.9324 108.201H66.5703V115.058H78.9324V108.201Z" fill="#3F3D56"/>
<path d="M78.9324 135.63H66.5703V142.487H78.9324V135.63Z" fill="#3F3D56"/>
<path d="M78.9324 165.802H66.5703V172.659H78.9324V165.802Z" fill="#3F3D56"/>
<path d="M67.9434 99.9712H65.1963V106.829H67.9434V99.9712Z" fill="#3F3D56"/>
<path d="M78.9317 99.9712H76.1846V106.829H78.9317V99.9712Z" fill="#3F3D56"/>
<path d="M466.963 198.717H443.612V242.604H466.963V198.717Z" fill="#3F3D56"/>
<path d="M452.54 104.085H447.046V202.831H452.54V104.085Z" fill="#3F3D56"/>
<path d="M463.528 104.085H458.034V202.831H463.528V104.085Z" fill="#3F3D56"/>
<path d="M462.155 108.201H449.793V115.058H462.155V108.201Z" fill="#3F3D56"/>
<path d="M462.155 135.63H449.793V142.487H462.155V135.63Z" fill="#3F3D56"/>
<path d="M462.155 165.802H449.793V172.659H462.155V165.802Z" fill="#3F3D56"/>
<path d="M451.167 99.9717H448.42V106.829H451.167V99.9717Z" fill="#3F3D56"/>
<path d="M462.154 99.9717H459.407V106.829H462.154V99.9717Z" fill="#3F3D56"/>
<path d="M514.356 239.861C514.167 242.162 513.943 244.447 513.683 246.718H13.6663C13.4095 244.447 13.1855 242.162 12.9941 239.861H514.356Z" fill="#3F3D56"/>
<path d="M267.44 229.191C201.583 229.191 133.658 186.483 65.501 102.204L67.6384 100.48C136.193 185.252 204.346 227.658 270.165 226.423C334.141 225.256 397.904 182.896 459.682 100.52L461.881 102.165C399.568 185.253 335.083 227.982 270.215 229.166C269.291 229.183 268.366 229.191 267.44 229.191Z" fill="#3F3D56"/>
<path d="M267.231 219.973C205.025 219.973 140.871 180.37 76.4971 102.214L78.6191 100.471C143.357 179.07 207.678 218.323 269.863 217.206C330.231 216.1 390.401 176.838 448.701 100.511L450.885 102.174C392.051 179.201 331.163 218.827 269.913 219.949C269.02 219.965 268.125 219.973 267.231 219.973Z" fill="#3F3D56"/>
<path d="M511.736 169.796C510.784 168.981 509.824 168.159 508.872 167.329C488.315 149.458 467.704 127.75 447.041 102.205L449.179 100.485C468.8 124.753 488.373 145.533 507.898 162.825C508.88 163.701 509.865 164.566 510.852 165.42C511.162 166.876 511.456 168.335 511.736 169.796Z" fill="#3F3D56"/>
<path d="M508.569 155.689C507.503 154.738 506.441 153.768 505.38 152.777C488.46 137.021 472.641 120.126 458.032 102.212L460.155 100.469C473.74 117.107 488.36 132.874 503.93 147.677C505.048 148.741 506.159 149.782 507.277 150.8V150.808C507.723 152.43 508.161 154.059 508.569 155.689Z" fill="#3F3D56"/>
<path d="M97.629 122.981H94.8818V241.918H97.629V122.981Z" fill="#3F3D56"/>
<path d="M123.187 149.092H120.439V241.918H123.187V149.092Z" fill="#3F3D56"/>
<path d="M157.999 178.12H155.252V242.603H157.999V178.12Z" fill="#3F3D56"/>
<path d="M191.323 198.716H188.576V241.917H191.323V198.716Z" fill="#3F3D56"/>
<path d="M218.975 210.361H216.228V243.288H218.975V210.361Z" fill="#3F3D56"/>
<path d="M478.411 122.981H475.664V241.918H478.411V122.981Z" fill="#3F3D56"/>
<path d="M503.967 149.092H501.22V241.918H503.967V149.092Z" fill="#3F3D56"/>
<path d="M79.5556 102.204C70.0061 114.01 60.4641 125.004 50.9293 135.185C50.0074 136.158 49.0933 137.126 48.1869 138.089C40.5712 146.078 32.9681 153.546 25.3775 160.494C24.456 161.339 23.5394 162.171 22.6277 162.991C21.2978 164.183 19.9756 165.36 18.6461 166.521C18.3362 166.793 18.0341 167.064 17.7242 167.328C17.0745 167.894 16.4171 168.46 15.7598 169.018C16.0545 167.547 16.3567 166.084 16.6739 164.613V164.605C17.3542 164.024 18.0263 163.428 18.6988 162.825C19.0161 162.546 19.326 162.267 19.6432 161.988V161.98C20.6404 161.098 21.6352 160.202 22.6277 159.295C23.5492 158.465 24.4658 157.622 25.3775 156.767C32.9707 149.744 40.5738 142.183 48.1869 134.084C49.1011 133.111 50.0152 132.137 50.9293 131.149C59.7535 121.637 68.583 111.415 77.4178 100.484L79.5556 102.204Z" fill="#3F3D56"/>
<path d="M68.5631 102.212C62.5868 109.469 56.6157 116.392 50.6498 122.98C49.8264 123.885 49.0104 124.783 48.187 125.673C40.5031 134.039 32.8244 141.847 25.1511 149.096C24.3048 149.896 23.4637 150.685 22.6277 151.465C22.4994 151.593 22.3632 151.714 22.2349 151.827C21.8947 152.151 21.555 152.461 21.2148 152.777C20.4818 153.464 19.7492 154.135 19.0088 154.799C19.4319 153.147 19.8777 151.497 20.346 149.85C21.1241 149.141 21.8972 148.417 22.6653 147.678C23.0206 147.346 23.3681 147.014 23.723 146.674C31.6408 139.169 39.5662 131.062 47.4993 122.354C53.808 115.429 60.1215 108.134 66.44 100.47L68.5631 102.212Z" fill="#3F3D56"/>
<path d="M50.9327 122.981H48.1855V241.918H50.9327V122.981Z" fill="#3F3D56"/>
<path d="M25.375 149.092H22.6279V241.918H25.375V149.092Z" fill="#3F3D56"/>
<path d="M436.59 120.238H433.843V241.917H436.59V120.238Z" fill="#3F3D56"/>
<path d="M411.033 149.092H408.286V241.918H411.033V149.092Z" fill="#3F3D56"/>
<path d="M376.222 178.121H373.475V242.603H376.222V178.121Z" fill="#3F3D56"/>
<path d="M342.897 198.717H340.149V241.918H342.897V198.717Z" fill="#3F3D56"/>
<path d="M315.243 210.361H312.496V243.288H315.243V210.361Z" fill="#3F3D56"/>
<path d="M261.987 218.456H259.24V243.289H261.987V218.456Z" fill="#3F3D56"/>
<path d="M200.637 77.5594C200.55 77.5597 200.463 77.5428 200.382 77.5096C200.301 77.4764 200.228 77.4277 200.166 77.3661C200.104 77.3045 200.055 77.2313 200.021 77.1508C199.988 77.0702 199.971 76.9838 199.971 76.8965C199.971 76.8093 199.988 76.7229 200.021 76.6423C200.055 76.5618 200.104 76.4886 200.166 76.427C200.228 76.3654 200.301 76.3167 200.382 76.2835C200.463 76.2503 200.55 76.2334 200.637 76.2337H244.58C245.686 71.6798 248.288 67.6271 251.971 64.7223C255.653 61.8175 260.204 60.228 264.897 60.2076C266.568 54.8114 269.773 50.0159 274.121 46.4036C278.47 42.7912 283.775 40.5175 289.393 39.8587C295.011 39.1999 300.7 40.1844 305.769 42.6924C310.837 45.2005 315.067 49.1242 317.944 53.987C318.597 53.9362 319.238 53.9106 319.854 53.9106C326.103 53.9275 332.115 56.3 336.688 60.5534C341.26 64.8068 344.055 70.6272 344.514 76.8501C344.52 76.9369 344.509 77.0241 344.481 77.1067C344.453 77.1893 344.41 77.2656 344.353 77.3313C344.295 77.397 344.226 77.4508 344.148 77.4897C344.07 77.5285 343.985 77.5517 343.898 77.5578C343.882 77.5589 343.866 77.5594 343.851 77.5594C343.683 77.5592 343.521 77.4955 343.399 77.3811C343.276 77.2668 343.201 77.1102 343.189 76.943L200.637 77.5594Z" fill="#E6E6E6"/>
<path d="M253.635 95.6694H217.123C216.948 95.6688 216.779 95.5987 216.655 95.4744C216.532 95.3502 216.462 95.182 216.462 95.0066C216.462 94.8312 216.532 94.663 216.655 94.5387C216.779 94.4145 216.948 94.3444 217.123 94.3438H253.635C253.722 94.3434 253.809 94.3604 253.89 94.3935C253.971 94.4267 254.044 94.4755 254.106 94.5371C254.168 94.5986 254.217 94.6718 254.251 94.7524C254.284 94.833 254.301 94.9193 254.301 95.0066C254.301 95.0938 254.284 95.1802 254.251 95.2608C254.217 95.3414 254.168 95.4145 254.106 95.4761C254.044 95.5377 253.971 95.5865 253.89 95.6196C253.809 95.6528 253.722 95.6697 253.635 95.6694Z" fill="#E6E6E6"/>
<path d="M274.335 4.725L279.856 0.316139C275.567 -0.156321 273.804 2.17918 273.083 4.02772C269.733 2.63853 266.085 4.45914 266.085 4.45914L277.131 8.46316C276.574 6.97701 275.604 5.68028 274.335 4.725Z" fill="#3F3D56"/>
<path d="M293.978 119.388L299.499 114.979C295.21 114.506 293.448 116.842 292.727 118.69C289.376 117.301 285.729 119.122 285.729 119.122L296.775 123.126C296.217 121.64 295.247 120.343 293.978 119.388Z" fill="#3F3D56"/>
<path d="M423.172 76.39L428.692 71.9812C424.404 71.5087 422.641 73.8442 421.92 75.6928C418.569 74.3036 414.922 76.1242 414.922 76.1242L425.968 80.1282C425.411 78.6421 424.441 77.3453 423.172 76.39Z" fill="#3F3D56"/>
<path d="M97.4611 296.105H43.8193V305.158H97.4611V296.105Z" fill="#3F3D56"/>
<path d="M482.02 296.106H428.378V305.158H482.02V296.106Z" fill="#3F3D56"/>
<path d="M514.757 233.237H12.5068V235.5H514.757V233.237Z" fill="#3F3D56"/>
</g>
<defs>
<clipPath id="clip0_28_1873">
<rect width="526" height="329" fill="white"/>
</clipPath>
</defs>
</svg>
