<svg width="297" height="357" viewBox="0 0 297 357" fill="none" xmlns="http://www.w3.org/2000/svg">
<g clip-path="url(#clip0_39_943)">
<path d="M2.12307 170.748C3.21435 172.567 4.69196 174.124 6.45182 175.311C8.21167 176.498 10.211 177.286 12.3089 177.618C14.4068 177.951 16.5523 177.821 18.5943 177.236C20.6362 176.652 22.525 175.628 24.1275 174.237L68.9193 199.869L67.25 173.149L24.9708 152.905C22.4499 150.374 19.0859 148.853 15.5164 148.631C11.9469 148.409 8.41984 149.502 5.60356 151.701C2.78728 153.901 0.877449 157.054 0.235974 160.565C-0.405501 164.075 0.265944 167.699 2.12307 170.748Z" fill="#FFB8B8"/>
<path d="M131.8 273.429C118.513 291.983 118.988 323.026 122.695 357H185.515L188.247 350.641L191.888 357H251.067C251.067 357 246.515 270.704 238.321 267.979C230.127 265.253 131.8 273.429 131.8 273.429Z" fill="#2F2E41"/>
<path d="M185.516 79.5729C203.114 79.5729 217.381 65.3385 217.381 47.7795C217.381 30.2205 203.114 15.9861 185.516 15.9861C167.917 15.9861 153.65 30.2205 153.65 47.7795C153.65 65.3385 167.917 79.5729 185.516 79.5729Z" fill="#FFB8B8"/>
<path d="M208.547 87.8218L214.778 99.7384L257.879 118.909L246.55 228.301L241.781 239.629L244.357 249.467L238.146 256.727C244.381 262.356 245.173 268.248 241.781 274.343L221.933 278.879C221.933 278.879 111.574 288.67 120.875 271.612C131.037 252.973 133.625 197.928 111.191 168.514C92.1446 143.541 106.767 111.137 106.767 111.137L151.945 97.6659L168.562 87.8218L208.547 87.8218Z" fill="#454FC0"/>
<path d="M199.663 1.20727C199.813 0.891159 200.054 0.62692 200.355 0.448488C200.656 0.270056 201.004 0.185575 201.354 0.205899C186.765 -0.664775 171.399 1.03172 159.194 9.05285C156.238 10.9961 153.45 13.314 150.232 14.7236C150.081 14.7917 149.949 14.8978 149.85 15.0317C149.752 15.1655 149.689 15.3225 149.67 15.4874C149.65 15.6524 149.673 15.8196 149.737 15.9729C149.801 16.1262 149.904 16.2604 150.035 16.3624L150.389 16.6389C150.528 16.748 150.635 16.8932 150.697 17.0586C150.76 17.224 150.776 17.4034 150.743 17.5772C150.711 17.751 150.631 17.9125 150.513 18.0443C150.395 18.1761 150.243 18.273 150.073 18.3245C149.897 18.3783 149.739 18.4813 149.619 18.6214C149.499 18.7615 149.422 18.9329 149.396 19.1154C149.37 19.298 149.398 19.484 149.475 19.6516C149.551 19.8191 149.675 19.9613 149.83 20.0614L152.538 21.8078C152.674 21.8942 152.787 22.0134 152.865 22.1544C152.943 22.2955 152.985 22.4539 152.986 22.6151C152.986 22.7763 152.947 22.9351 152.87 23.077C152.793 23.219 152.682 23.3394 152.547 23.4273C152.317 23.5686 152.077 23.6905 151.827 23.7916C151.671 23.8499 151.533 23.9471 151.427 24.0739C151.32 24.2008 151.247 24.353 151.217 24.5158C151.186 24.6786 151.198 24.8466 151.251 25.0036C151.304 25.1606 151.397 25.3012 151.52 25.412C152.693 26.4537 153.593 27.7658 154.141 29.2339C155.043 31.5757 155.205 34.126 155.358 36.6304C156.291 33.0169 160.243 30.8898 163.977 30.6737C167.71 30.4576 171.352 31.6867 174.985 32.5702C182.899 34.4891 191.119 34.8045 199.157 33.498C196.427 38.9634 198.73 45.4826 201.047 51.1345L208.547 47.927C218.847 42.1258 211.672 66.6661 207.822 70.035C215.684 72.7548 236.264 42.5679 229.644 31.1172C226.2 25.1608 228.644 17.4784 221.874 11.8292C218.555 8.34374 211.93 9.89288 208.547 6.99608C207.215 5.85594 209.245 2.80567 207.415 2.14092C206.807 1.92013 199.763 0.98474 199.663 1.20727Z" fill="#2F2E41"/>
<path d="M145.687 100.743C139.84 126.644 124.843 187.118 109.628 199.765C108.663 200.674 107.506 201.356 106.243 201.76C52.7614 214.76 35.625 181.6 35.625 181.6C35.625 181.6 49.9573 174.632 50.3208 161.01L79.2242 169.958L104.42 113.385L108.128 109.935L108.148 109.914L145.687 100.743Z" fill="#454FC0"/>
<path d="M259.717 339.922C261.249 338.453 262.439 336.667 263.204 334.69C263.968 332.712 264.289 330.592 264.144 328.477C263.998 326.363 263.39 324.306 262.362 322.451C261.333 320.597 259.91 318.99 258.192 317.744L273.184 268.444L247.46 276.058L237.166 321.707C235.259 324.725 234.528 328.337 235.112 331.858C235.696 335.378 237.553 338.563 240.333 340.808C243.113 343.053 246.621 344.203 250.194 344.04C253.767 343.877 257.155 342.411 259.717 339.922Z" fill="#FFB8B8"/>
<path d="M245.995 116.151L257.879 118.909C257.879 118.909 306.995 214.256 295.159 232.424C283.323 250.591 268.824 310.74 268.824 310.74C268.824 310.74 247.378 306.486 239.184 295.585L254.189 224.248L238.712 164.295L245.995 116.151Z" fill="#454FC0"/>
<path d="M20.5528 257.739L20.9795 104.176C20.9916 101.067 22.2389 98.0911 24.4478 95.8994C26.6566 93.7078 29.6466 92.4798 32.7618 92.4849L148.998 92.8064C152.113 92.8186 155.096 94.0631 157.293 96.2669C159.49 98.4708 160.72 101.454 160.715 104.562L160.288 258.125C160.276 261.233 159.029 264.21 156.82 266.401C154.611 268.593 151.621 269.821 148.506 269.816L32.2699 269.494C29.1548 269.482 26.1717 268.238 23.975 266.034C21.7784 263.83 20.5476 260.847 20.5528 257.739Z" fill="#E6E6E6"/>
<path d="M29.5977 211.381L29.872 112.656C29.8834 109.746 31.0515 106.958 33.1202 104.906C35.1888 102.853 37.9891 101.703 40.9065 101.708L140.802 101.984C143.719 101.995 146.513 103.161 148.571 105.225C150.628 107.289 151.781 110.083 151.776 112.994L151.396 249.644C151.385 252.555 150.216 255.342 148.148 257.395C146.079 259.447 143.279 260.597 140.361 260.593L78.4781 260.421C65.4828 260.371 53.0382 255.179 43.8745 245.986C34.7108 236.792 29.5764 224.347 29.5977 211.381Z" fill="white"/>
<path d="M129.355 145.073H51.4626C50.2231 145.073 49.0344 144.582 48.1579 143.708C47.2815 142.833 46.7891 141.647 46.7891 140.41C46.7891 139.174 47.2815 137.988 48.1579 137.113C49.0344 136.239 50.2231 135.747 51.4626 135.747H129.355C130.595 135.747 131.784 136.239 132.66 137.113C133.537 137.988 134.029 139.174 134.029 140.41C134.029 141.647 133.537 142.833 132.66 143.708C131.784 144.582 130.595 145.073 129.355 145.073Z" fill="#32D22A"/>
<path d="M68.599 123.572H51.4626C50.2231 123.572 49.0344 123.08 48.1579 122.206C47.2815 121.331 46.7891 120.145 46.7891 118.909C46.7891 117.672 47.2815 116.486 48.1579 115.611C49.0344 114.737 50.2231 114.246 51.4626 114.246H68.599C69.8385 114.246 71.0273 114.737 71.9037 115.611C72.7802 116.486 73.2726 117.672 73.2726 118.909C73.2726 120.145 72.7802 121.331 71.9037 122.206C71.0273 123.08 69.8385 123.572 68.599 123.572Z" fill="#32D22A"/>
<path d="M129.355 166.575H51.4626C50.2231 166.575 49.0344 166.084 48.1579 165.209C47.2815 164.335 46.7891 163.149 46.7891 161.912C46.7891 160.675 47.2815 159.489 48.1579 158.615C49.0344 157.74 50.2231 157.249 51.4626 157.249H129.355C130.595 157.249 131.784 157.74 132.66 158.615C133.537 159.489 134.029 160.675 134.029 161.912C134.029 163.149 133.537 164.335 132.66 165.209C131.784 166.084 130.595 166.575 129.355 166.575Z" fill="#32D22A"/>
<path d="M129.355 188.077H51.4626C50.2231 188.077 49.0344 187.586 48.1579 186.711C47.2815 185.837 46.7891 184.65 46.7891 183.414C46.7891 182.177 47.2815 180.991 48.1579 180.117C49.0344 179.242 50.2231 178.751 51.4626 178.751H129.355C130.595 178.751 131.784 179.242 132.66 180.117C133.537 180.991 134.029 182.177 134.029 183.414C134.029 184.65 133.537 185.837 132.66 186.711C131.784 187.586 130.595 188.077 129.355 188.077Z" fill="#32D22A"/>
<path d="M123.053 244.733C133.324 244.733 141.649 236.426 141.649 226.179C141.649 215.931 133.324 207.625 123.053 207.625C112.783 207.625 104.457 215.931 104.457 226.179C104.457 236.426 112.783 244.733 123.053 244.733Z" fill="#32D22A"/>
<path d="M120.516 235.835C120.195 235.835 119.878 235.761 119.591 235.617C119.304 235.474 119.054 235.266 118.862 235.009L113.788 228.26C113.625 228.043 113.506 227.797 113.438 227.534C113.371 227.271 113.355 226.998 113.394 226.729C113.432 226.461 113.523 226.202 113.661 225.969C113.8 225.735 113.983 225.532 114.2 225.369C114.418 225.206 114.665 225.088 114.929 225.021C115.192 224.953 115.466 224.938 115.735 224.977C116.005 225.016 116.263 225.107 116.497 225.245C116.731 225.383 116.935 225.567 117.098 225.784L120.417 230.199L128.942 217.441C129.092 217.214 129.286 217.02 129.512 216.868C129.737 216.716 129.991 216.611 130.258 216.557C130.525 216.503 130.799 216.503 131.066 216.555C131.334 216.608 131.588 216.712 131.814 216.863C132.041 217.014 132.235 217.207 132.386 217.433C132.538 217.659 132.643 217.912 132.696 218.179C132.749 218.445 132.748 218.719 132.695 218.986C132.641 219.252 132.536 219.505 132.384 219.731L122.238 234.916C122.054 235.191 121.807 235.417 121.518 235.577C121.228 235.737 120.904 235.825 120.574 235.835C120.555 235.835 120.535 235.835 120.516 235.835Z" fill="white"/>
<path d="M83.3991 56.735C88.2746 56.735 92.227 52.7916 92.227 47.9271C92.227 43.0626 88.2746 39.1191 83.3991 39.1191C78.5237 39.1191 74.5713 43.0626 74.5713 47.9271C74.5713 52.7916 78.5237 56.735 83.3991 56.735Z" fill="#F2F2F2"/>
<path d="M51.2038 310.092C56.0793 310.092 60.0317 306.149 60.0317 301.284C60.0317 296.42 56.0793 292.477 51.2038 292.477C46.3283 292.477 42.376 296.42 42.376 301.284C42.376 306.149 46.3283 310.092 51.2038 310.092Z" fill="#F2F2F2"/>
<path d="M254.244 90.9306C259.119 90.9306 263.072 86.9871 263.072 82.1226C263.072 77.2581 259.119 73.3147 254.244 73.3147C249.368 73.3147 245.416 77.2581 245.416 82.1226C245.416 86.9871 249.368 90.9306 254.244 90.9306Z" fill="#F2F2F2"/>
</g>
<defs>
<clipPath id="clip0_39_943">
<rect width="297" height="357" fill="white"/>
</clipPath>
</defs>
</svg>
