<svg width="96" height="96" viewBox="0 0 96 96" fill="none" xmlns="http://www.w3.org/2000/svg">
<path d="M30.5439 76.8375H25.3877C21.7689 76.8375 18.8252 73.8938 18.8252 70.275V47.8219C18.8252 44.2031 21.7689 41.2594 25.3877 41.2594H30.5439C34.1627 41.2594 37.1064 44.2031 37.1064 47.8219V70.275C37.1064 73.8938 34.1627 76.8375 30.5439 76.8375ZM25.3971 45.0094C23.8502 45.0094 22.5846 46.275 22.5846 47.8219V70.275C22.5846 71.8219 23.8502 73.0875 25.3971 73.0875H30.5533C32.1002 73.0875 33.3658 71.8219 33.3658 70.275V47.8219C33.3658 46.275 32.1002 45.0094 30.5533 45.0094H25.3971Z" fill="#A688FF"/>
<path d="M78.2627 16.6594H73.1064C71.5596 16.6594 70.2939 17.925 70.2939 19.4719V70.275C70.2939 71.8219 71.5596 73.0875 73.1064 73.0875H78.2627C79.8096 73.0875 81.0752 71.8219 81.0752 70.275V19.4719C81.0752 17.925 79.8096 16.6594 78.2627 16.6594ZM54.4033 28.1907H49.2471C47.7002 28.1907 46.4346 29.4563 46.4346 31.0032V70.275C46.4346 71.8219 47.7002 73.0875 49.2471 73.0875H54.4033C55.9502 73.0875 57.2158 71.8219 57.2158 70.275V31.0032C57.2158 29.4563 55.9502 28.1907 54.4033 28.1907ZM30.5439 44.9719H25.3877C23.8408 44.9719 22.5752 46.2375 22.5752 47.7844V70.275C22.5752 71.8219 23.8408 73.0875 25.3877 73.0875H30.5439C32.0908 73.0875 33.3564 71.8219 33.3564 70.275V47.7844C33.3564 46.2375 32.1002 44.9719 30.5439 44.9719Z" fill="#E6E6E6"/>
<path className="fillChange" d="M78.2627 12.9094H73.1064C69.4877 12.9094 66.5439 15.8532 66.5439 19.4719V38.9626C64.8283 38.1563 62.9439 37.6313 60.9658 37.4626V31.0126C60.9658 27.3938 58.0221 24.45 54.4033 24.45H49.2471C45.6283 24.45 42.6846 27.3938 42.6846 31.0126V70.2844C42.6846 73.9032 45.6283 76.8469 49.2471 76.8469H54.4033C57.9846 76.8469 60.9002 73.9688 60.9658 70.4063C62.9439 70.2376 64.8283 69.7126 66.5439 68.9063V70.2844C66.5439 73.9032 69.4877 76.8469 73.1064 76.8469H78.2627C81.8814 76.8469 84.8252 73.9032 84.8252 70.2844V19.4719C84.8252 15.8532 81.8721 12.9094 78.2627 12.9094ZM70.2939 47.0344C71.5689 49.0219 72.3096 51.3844 72.3096 53.9251C72.3096 56.4563 71.5689 58.8188 70.2939 60.8157V47.0344ZM46.7439 53.9251C46.7439 47.6626 51.2627 42.4407 57.2158 41.3532V66.4969C51.2627 65.4094 46.7439 60.1876 46.7439 53.9251ZM49.2471 28.1907H54.4033C55.9502 28.1907 57.2158 29.4563 57.2158 31.0032V37.5563C52.8471 38.1751 49.0221 40.5001 46.4346 43.8376V31.0032C46.4346 29.4563 47.7002 28.1907 49.2471 28.1907ZM54.4033 73.0876H49.2471C47.7002 73.0876 46.4346 71.8219 46.4346 70.2751V64.0126C49.0127 67.3501 52.8377 69.6844 57.2158 70.2938C57.2064 71.8407 55.9502 73.0876 54.4033 73.0876ZM60.9658 66.6282V41.2219C63.0096 41.4469 64.9033 42.1594 66.5439 43.2469V64.6126C64.9033 65.6907 63.0096 66.4032 60.9658 66.6282ZM70.2939 70.2751V68.6907L74.6627 73.0876H73.1064C71.5502 73.0876 70.2939 71.8313 70.2939 70.2751ZM81.0752 70.2751C81.0752 71.3344 80.4846 72.2626 79.6127 72.7407L71.8502 64.9407C74.4658 62.0157 76.0596 58.1532 76.0596 53.9251C76.0596 48.9188 73.8189 44.4188 70.2939 41.3907V19.4719C70.2939 17.925 71.5596 16.6594 73.1064 16.6594H78.2627C79.8096 16.6594 81.0752 17.925 81.0752 19.4719V70.2751ZM83.644 82.6219H82.7065C82.1908 82.6219 81.769 82.2001 81.769 81.6844C81.769 81.1688 82.1908 80.7469 82.7065 80.7469H83.644C84.1596 80.7469 84.5815 81.1688 84.5815 81.6844C84.5815 82.2001 84.1689 82.6219 83.644 82.6219ZM78.9565 82.6219H78.019C77.5033 82.6219 77.0815 82.2001 77.0815 81.6844C77.0815 81.1688 77.5033 80.7469 78.019 80.7469H78.9565C79.4721 80.7469 79.894 81.1688 79.894 81.6844C79.894 82.2001 79.4814 82.6219 78.9565 82.6219ZM74.2689 82.6219H73.3314C72.8158 82.6219 72.3939 82.2001 72.3939 81.6844C72.3939 81.1688 72.8158 80.7469 73.3314 80.7469H74.2689C74.7846 80.7469 75.2065 81.1688 75.2065 81.6844C75.2065 82.2001 74.7939 82.6219 74.2689 82.6219ZM69.5814 82.6219H68.6439C68.1283 82.6219 67.7064 82.2001 67.7064 81.6844C67.7064 81.1688 68.1283 80.7469 68.6439 80.7469H69.5814C70.0971 80.7469 70.5189 81.1688 70.5189 81.6844C70.5189 82.2001 70.1064 82.6219 69.5814 82.6219ZM64.8939 82.6219H63.9564C63.4408 82.6219 63.0189 82.2001 63.0189 81.6844C63.0189 81.1688 63.4408 80.7469 63.9564 80.7469H64.8939C65.4096 80.7469 65.8314 81.1688 65.8314 81.6844C65.8314 82.2001 65.4189 82.6219 64.8939 82.6219ZM60.2064 82.6219H59.2689C58.7533 82.6219 58.3314 82.2001 58.3314 81.6844C58.3314 81.1688 58.7533 80.7469 59.2689 80.7469H60.2064C60.7221 80.7469 61.1439 81.1688 61.1439 81.6844C61.1439 82.2001 60.7314 82.6219 60.2064 82.6219ZM55.5189 82.6219H54.5814C54.0658 82.6219 53.6439 82.2001 53.6439 81.6844C53.6439 81.1688 54.0658 80.7469 54.5814 80.7469H55.5189C56.0346 80.7469 56.4564 81.1688 56.4564 81.6844C56.4564 82.2001 56.0439 82.6219 55.5189 82.6219ZM50.8314 82.6219H49.8939C49.3783 82.6219 48.9564 82.2001 48.9564 81.6844C48.9564 81.1688 49.3783 80.7469 49.8939 80.7469H50.8314C51.3471 80.7469 51.7689 81.1688 51.7689 81.6844C51.7689 82.2001 51.3564 82.6219 50.8314 82.6219ZM46.1439 82.6219H45.2064C44.6908 82.6219 44.2689 82.2001 44.2689 81.6844C44.2689 81.1688 44.6908 80.7469 45.2064 80.7469H46.1439C46.6596 80.7469 47.0814 81.1688 47.0814 81.6844C47.0814 82.2001 46.6689 82.6219 46.1439 82.6219ZM41.4564 82.6219H40.5189C40.0033 82.6219 39.5814 82.2001 39.5814 81.6844C39.5814 81.1688 40.0033 80.7469 40.5189 80.7469H41.4564C41.9721 80.7469 42.3939 81.1688 42.3939 81.6844C42.3939 82.2001 41.9814 82.6219 41.4564 82.6219ZM36.7689 82.6219H35.8314C35.3158 82.6219 34.8939 82.2001 34.8939 81.6844C34.8939 81.1688 35.3158 80.7469 35.8314 80.7469H36.7689C37.2846 80.7469 37.7064 81.1688 37.7064 81.6844C37.7064 82.2001 37.2939 82.6219 36.7689 82.6219ZM32.0814 82.6219H31.1439C30.6283 82.6219 30.2064 82.2001 30.2064 81.6844C30.2064 81.1688 30.6283 80.7469 31.1439 80.7469H32.0814C32.5971 80.7469 33.0189 81.1688 33.0189 81.6844C33.0189 82.2001 32.6064 82.6219 32.0814 82.6219ZM27.3939 82.6219H26.4564C25.9408 82.6219 25.5189 82.2001 25.5189 81.6844C25.5189 81.1688 25.9408 80.7469 26.4564 80.7469H27.3939C27.9096 80.7469 28.3314 81.1688 28.3314 81.6844C28.3314 82.2001 27.9189 82.6219 27.3939 82.6219ZM22.7064 82.6219H21.7689C21.2533 82.6219 20.8314 82.2001 20.8314 81.6844C20.8314 81.1688 21.2533 80.7469 21.7689 80.7469H22.7064C23.2221 80.7469 23.6439 81.1688 23.6439 81.6844C23.6439 82.2001 23.2314 82.6219 22.7064 82.6219ZM18.0189 82.6219H17.0814C16.5658 82.6219 16.1439 82.2001 16.1439 81.6844C16.1439 81.1688 16.5658 80.7469 17.0814 80.7469H18.0189C18.5346 80.7469 18.9564 81.1688 18.9564 81.6844C18.9564 82.2001 18.5439 82.6219 18.0189 82.6219ZM13.3314 82.6219H12.3939C11.8783 82.6219 11.4564 82.2001 11.4564 81.6844C11.4564 81.1688 11.8783 80.7469 12.3939 80.7469H13.3314C13.8471 80.7469 14.2689 81.1688 14.2689 81.6844C14.2689 82.2001 13.8564 82.6219 13.3314 82.6219ZM11.9814 79.2844C11.4658 79.2844 11.0439 78.8626 11.0439 78.3469V77.4094C11.0439 76.8938 11.4658 76.4719 11.9814 76.4719C12.4971 76.4719 12.9189 76.8938 12.9189 77.4094V78.3469C12.9189 78.8626 12.4971 79.2844 11.9814 79.2844ZM11.9814 74.5969C11.4658 74.5969 11.0439 74.1751 11.0439 73.6594V72.7219C11.0439 72.2063 11.4658 71.7844 11.9814 71.7844C12.4971 71.7844 12.9189 72.2063 12.9189 72.7219V73.6594C12.9189 74.1751 12.4971 74.5969 11.9814 74.5969ZM11.9814 69.9094C11.4658 69.9094 11.0439 69.4876 11.0439 68.9719V68.0344C11.0439 67.5188 11.4658 67.0969 11.9814 67.0969C12.4971 67.0969 12.9189 67.5188 12.9189 68.0344V68.9719C12.9189 69.4876 12.4971 69.9094 11.9814 69.9094ZM11.9814 65.2219C11.4658 65.2219 11.0439 64.8001 11.0439 64.2844V63.3469C11.0439 62.8313 11.4658 62.4094 11.9814 62.4094C12.4971 62.4094 12.9189 62.8313 12.9189 63.3469V64.2844C12.9189 64.8001 12.4971 65.2219 11.9814 65.2219ZM11.9814 60.5344C11.4658 60.5344 11.0439 60.1126 11.0439 59.5969V58.6594C11.0439 58.1438 11.4658 57.7219 11.9814 57.7219C12.4971 57.7219 12.9189 58.1438 12.9189 58.6594V59.5969C12.9189 60.1126 12.4971 60.5344 11.9814 60.5344ZM11.9814 55.8469C11.4658 55.8469 11.0439 55.4251 11.0439 54.9094V53.9719C11.0439 53.4563 11.4658 53.0344 11.9814 53.0344C12.4971 53.0344 12.9189 53.4563 12.9189 53.9719V54.9094C12.9189 55.4251 12.4971 55.8469 11.9814 55.8469ZM11.9814 51.1594C11.4658 51.1594 11.0439 50.7376 11.0439 50.2219V49.2844C11.0439 48.7688 11.4658 48.3469 11.9814 48.3469C12.4971 48.3469 12.9189 48.7688 12.9189 49.2844V50.2219C12.9189 50.7376 12.4971 51.1594 11.9814 51.1594ZM11.9814 46.4719C11.4658 46.4719 11.0439 46.0501 11.0439 45.5344V44.5969C11.0439 44.0813 11.4658 43.6594 11.9814 43.6594C12.4971 43.6594 12.9189 44.0813 12.9189 44.5969V45.5344C12.9189 46.0501 12.4971 46.4719 11.9814 46.4719ZM11.9814 41.7844C11.4658 41.7844 11.0439 41.3626 11.0439 40.8469V39.9094C11.0439 39.3938 11.4658 38.9719 11.9814 38.9719C12.4971 38.9719 12.9189 39.3938 12.9189 39.9094V40.8469C12.9189 41.3626 12.4971 41.7844 11.9814 41.7844ZM11.9814 37.0969C11.4658 37.0969 11.0439 36.6751 11.0439 36.1594V35.2219C11.0439 34.7063 11.4658 34.2844 11.9814 34.2844C12.4971 34.2844 12.9189 34.7063 12.9189 35.2219V36.1594C12.9189 36.6751 12.4971 37.0969 11.9814 37.0969ZM11.9814 32.4094C11.4658 32.4094 11.0439 31.9876 11.0439 31.4719V30.5344C11.0439 30.0188 11.4658 29.5969 11.9814 29.5969C12.4971 29.5969 12.9189 30.0188 12.9189 30.5344V31.4719C12.9189 31.9876 12.4971 32.4094 11.9814 32.4094ZM11.9814 27.7219C11.4658 27.7219 11.0439 27.3001 11.0439 26.7844V25.8469C11.0439 25.3313 11.4658 24.9094 11.9814 24.9094C12.4971 24.9094 12.9189 25.3313 12.9189 25.8469V26.7844C12.9189 27.3001 12.4971 27.7219 11.9814 27.7219ZM11.9814 23.0344C11.4658 23.0344 11.0439 22.6125 11.0439 22.0969V21.1594C11.0439 20.6438 11.4658 20.2219 11.9814 20.2219C12.4971 20.2219 12.9189 20.6438 12.9189 21.1594V22.0969C12.9189 22.6125 12.4971 23.0344 11.9814 23.0344Z" fill="#A688FF"/>
<path d="M59.5312 41.1469C52.4812 41.1469 46.7437 46.8844 46.7437 53.9344C46.7437 60.9844 52.4812 66.7125 59.5312 66.7125C66.5812 66.7125 72.3187 60.975 72.3187 53.925C72.3187 46.875 66.5812 41.1469 59.5312 41.1469Z" fill="white"/>
<path d="M59.5313 43.2844C58.2188 43.2844 56.925 43.5188 55.7063 43.9875C55.2188 44.175 54.9844 44.7188 55.1719 45.1969C55.3594 45.6844 55.9032 45.9188 56.3813 45.7313C57.3844 45.3469 58.4438 45.15 59.5313 45.15C64.3688 45.15 68.2969 49.0875 68.2969 53.9157C68.2969 55.7625 67.725 57.525 66.6563 59.025C66.2438 59.6063 65.7563 60.1313 65.2032 60.6C64.8094 60.9375 64.7625 61.5282 65.1 61.9219C65.2875 62.1375 65.55 62.25 65.8125 62.25C66.0282 62.25 66.2438 62.175 66.4219 62.025C67.0782 61.4625 67.6782 60.825 68.1844 60.1125C69.4875 58.2938 70.1813 56.1563 70.1813 53.9063C70.1719 48.0563 65.4 43.2844 59.5313 43.2844Z" fill="#D1C2FC"/>
</svg>
