<svg width="96" height="96" viewBox="0 0 96 96" fill="none" xmlns="http://www.w3.org/2000/svg">
<path d="M58.2564 14.7468H36.6001C34.0126 14.7468 31.9126 16.8468 31.9126 19.4343V75.5624C31.9126 78.1499 34.0126 80.2499 36.6001 80.2499H58.2564C60.8439 80.2499 62.9439 78.1499 62.9439 75.5624V19.4343C62.9439 16.8468 60.8439 14.7468 58.2564 14.7468ZM76.2845 20.5875H62.9439V76.1343H76.2938C79.0407 76.1343 81.2626 74.0343 81.2626 71.4468V25.275C81.2532 22.6875 79.0314 20.5875 76.2845 20.5875Z" fill="white"/>
<path class="fillChange" d="M13.9499 44.8125C14.4655 44.8125 14.8874 44.3907 14.8874 43.875V42.9375C14.8874 42.4219 14.4655 42 13.9499 42C13.4342 42 13.0124 42.4219 13.0124 42.9375V43.875C13.0124 44.3907 13.4342 44.8125 13.9499 44.8125ZM13.9499 49.5C14.4655 49.5 14.8874 49.0782 14.8874 48.5625V47.625C14.8874 47.1094 14.4655 46.6875 13.9499 46.6875C13.4342 46.6875 13.0124 47.1094 13.0124 47.625V48.5625C13.0124 49.0782 13.4342 49.5 13.9499 49.5ZM13.9499 58.875C14.4655 58.875 14.8874 58.4532 14.8874 57.9375V57C14.8874 56.4844 14.4655 56.0625 13.9499 56.0625C13.4342 56.0625 13.0124 56.4844 13.0124 57V57.9375C13.0124 58.4532 13.4342 58.875 13.9499 58.875ZM13.9499 54.1875C14.4655 54.1875 14.8874 53.7657 14.8874 53.25V52.3125C14.8874 51.7969 14.4655 51.375 13.9499 51.375C13.4342 51.375 13.0124 51.7969 13.0124 52.3125V53.25C13.0124 53.7657 13.4342 54.1875 13.9499 54.1875ZM13.9499 30.75C14.4655 30.75 14.8874 30.3281 14.8874 29.8125V28.875C14.8874 28.3594 14.4655 27.9375 13.9499 27.9375C13.4342 27.9375 13.0124 28.3594 13.0124 28.875V29.8125C13.0124 30.3281 13.4342 30.75 13.9499 30.75ZM13.9499 35.4375C14.4655 35.4375 14.8874 35.0156 14.8874 34.5V33.5625C14.8874 33.0469 14.4655 32.625 13.9499 32.625C13.4342 32.625 13.0124 33.0469 13.0124 33.5625V34.5C13.0124 35.0156 13.4342 35.4375 13.9499 35.4375ZM13.9311 26.0625H13.9499C14.4561 26.0625 14.878 25.65 14.8874 25.1438C14.8874 24.9 14.9249 24.6469 14.9811 24.4125C15.103 23.9063 14.7842 23.4 14.278 23.2875C13.7717 23.1656 13.2655 23.4844 13.153 23.9906C13.0686 24.3563 13.0217 24.7313 13.0124 25.1156C13.003 25.6313 13.4155 26.0532 13.9311 26.0625ZM13.9499 63.5625C14.4655 63.5625 14.8874 63.1407 14.8874 62.625V61.6875C14.8874 61.1719 14.4655 60.75 13.9499 60.75C13.4342 60.75 13.0124 61.1719 13.0124 61.6875V62.625C13.0124 63.1407 13.4342 63.5625 13.9499 63.5625ZM13.9499 40.125C14.4655 40.125 14.8874 39.7032 14.8874 39.1875V38.25C14.8874 37.7344 14.4655 37.3125 13.9499 37.3125C13.4342 37.3125 13.0124 37.7344 13.0124 38.25V39.1875C13.0124 39.7032 13.4342 40.125 13.9499 40.125ZM13.9499 68.25C14.4655 68.25 14.8874 67.8282 14.8874 67.3125V66.375C14.8874 65.8594 14.4655 65.4375 13.9499 65.4375C13.4342 65.4375 13.0124 65.8594 13.0124 66.375V67.3125C13.0124 67.8282 13.4342 68.25 13.9499 68.25ZM21.7311 19.5844H20.7936C20.278 19.5844 19.8561 20.0063 19.8561 20.5219C19.8561 21.0375 20.278 21.4594 20.7936 21.4594H21.7311C22.2467 21.4594 22.6686 21.0375 22.6686 20.5219C22.6686 20.0063 22.2467 19.5844 21.7311 19.5844ZM26.0155 75.1313H25.078C24.5624 75.1313 24.1405 75.5532 24.1405 76.0688C24.1405 76.5844 24.5624 77.0063 25.078 77.0063H26.0155C26.5311 77.0063 26.953 76.5844 26.953 76.0688C26.953 75.5532 26.5311 75.1313 26.0155 75.1313ZM21.328 75.1313H20.3905C19.8749 75.1313 19.453 75.5532 19.453 76.0688C19.453 76.5844 19.8749 77.0063 20.3905 77.0063H21.328C21.8436 77.0063 22.2655 76.5844 22.2655 76.0688C22.2655 75.5532 21.8436 75.1313 21.328 75.1313ZM16.753 19.9781C16.4061 20.1094 16.0686 20.2688 15.7592 20.4656C15.3186 20.7375 15.178 21.3094 15.4405 21.75C15.6186 22.0406 15.928 22.2 16.2467 22.2C16.4155 22.2 16.5842 22.1531 16.7342 22.0688C16.9499 21.9375 17.1842 21.825 17.4186 21.7313C17.9061 21.5532 18.1499 21.0094 17.9624 20.5219C17.7749 20.0438 17.2311 19.8 16.753 19.9781ZM14.8874 71.3813V71.0625C14.8874 70.5469 14.4655 70.125 13.9499 70.125C13.4342 70.125 13.0124 70.5469 13.0124 71.0625V71.3813C13.0124 71.6344 13.0311 71.8875 13.0686 72.1313C13.1342 72.6 13.5374 72.9375 13.9967 72.9375C14.0436 72.9375 14.0811 72.9375 14.128 72.9282C14.6436 72.8532 14.9999 72.3844 14.9249 71.8688C14.8967 71.7094 14.8874 71.5407 14.8874 71.3813ZM17.1092 74.7375C16.8749 74.625 16.6592 74.5032 16.453 74.3532C16.0311 74.0532 15.4499 74.1469 15.1405 74.5688C14.8405 74.9907 14.9342 75.5719 15.3561 75.8813C15.6561 76.0969 15.9749 76.2844 16.3124 76.4438C16.4436 76.5 16.5749 76.5281 16.7061 76.5281C17.0624 76.5281 17.3999 76.3313 17.5592 75.9844C17.7749 75.5157 17.578 74.9532 17.1092 74.7375ZM76.2842 18.6469H64.7717C64.4061 15.3656 61.6217 12.8063 58.2467 12.8063H36.5905C32.9717 12.8063 30.028 15.75 30.028 19.3688V19.5938C29.5874 19.65 29.2499 20.0156 29.2217 20.4656L25.6311 16.9406C25.2092 16.5281 24.478 16.8188 24.478 17.4L24.4405 23.6344C24.4405 24.2157 25.1624 24.5157 25.5842 24.1032L29.2124 20.6156C29.2592 21.0469 29.5874 21.3844 30.0092 21.45V75.1313H29.7374C29.2217 75.1313 28.7999 75.5532 28.7999 76.0688C28.7999 76.5844 29.2217 77.0063 29.7374 77.0063H30.1874C30.8717 79.9032 33.4686 82.0688 36.5717 82.0688H58.228C60.9842 82.0688 63.3467 80.3625 64.3217 77.9438H76.2655C80.0342 77.9438 83.1092 75 83.1092 71.3813V25.2094C83.128 21.5906 80.0624 18.6469 76.2842 18.6469ZM61.0686 75.5063C61.0686 77.0532 59.803 78.3188 58.2561 78.3188H36.5999C35.053 78.3188 33.7874 77.0532 33.7874 75.5063V19.3781C33.7874 17.8313 35.053 16.5656 36.5999 16.5656H58.2561C59.803 16.5656 61.0686 17.8313 61.0686 19.3781V75.5063ZM79.378 71.3813C79.378 72.9282 77.9905 74.1938 76.2842 74.1938H64.8186V22.3969H76.2936C77.9999 22.3969 79.3874 23.6625 79.3874 25.2094V71.3813H79.378Z" fill="#A688FF"/>
<path d="M70.7064 71.8501H68.5596C68.0439 71.8501 67.6221 71.4282 67.6221 70.9126C67.6221 70.3969 68.0439 69.9751 68.5596 69.9751H70.7064C72.9283 69.9751 74.7377 68.2969 74.7377 66.2251V43.8938C74.7377 43.3782 75.1596 42.9563 75.6752 42.9563C76.1908 42.9563 76.6127 43.3782 76.6127 43.8938V66.2251C76.6127 69.3282 73.9596 71.8501 70.7064 71.8501Z" fill="#D0C2FC"/>
<path d="M54.1404 27.7406H40.7061C40.1904 27.7406 39.7686 27.3187 39.7686 26.8031C39.7686 26.2875 40.1904 25.8656 40.7061 25.8656H54.1311C54.6467 25.8656 55.0686 26.2875 55.0686 26.8031C55.0686 27.3187 54.6561 27.7406 54.1404 27.7406Z" fill="#A688FF"/>
<path d="M54.1404 33.7876H40.7061C40.1904 33.7876 39.7686 33.3657 39.7686 32.8501C39.7686 32.3345 40.1904 31.9126 40.7061 31.9126H54.1311C54.6467 31.9126 55.0686 32.3345 55.0686 32.8501C55.0686 33.3657 54.6561 33.7876 54.1404 33.7876Z" fill="#A688FF"/>
<path d="M54.1404 39.8345H40.7061C40.1904 39.8345 39.7686 39.4126 39.7686 38.897C39.7686 38.3813 40.1904 37.9595 40.7061 37.9595H54.1311C54.6467 37.9595 55.0686 38.3813 55.0686 38.897C55.0686 39.4126 54.6561 39.8345 54.1404 39.8345Z" fill="#A688FF"/>
<path d="M47.428 53.9624C43.7437 53.9624 40.7437 56.9624 40.7437 60.6468C40.7437 64.3312 43.7437 67.3312 47.428 67.3312C51.1124 67.3312 54.1124 64.3312 54.1124 60.6468C54.1124 56.9624 51.1124 53.9624 47.428 53.9624Z" fill="#E6E6E6"/>
<path d="M47.428 52.0874C42.703 52.0874 38.8687 55.9312 38.8687 60.6468C38.8687 65.3624 42.7124 69.2062 47.428 69.2062C52.1437 69.2062 55.9874 65.3624 55.9874 60.6468C55.9874 55.9312 52.1437 52.0874 47.428 52.0874ZM47.428 67.3312C43.7437 67.3312 40.7437 64.3312 40.7437 60.6468C40.7437 56.9624 43.7437 53.9624 47.428 53.9624C51.1124 53.9624 54.1124 56.9624 54.1124 60.6468C54.1124 64.3312 51.1124 67.3312 47.428 67.3312Z" fill="#A688FF"/>
</svg>
