<svg width="114" height="109" viewBox="0 0 114 109" fill="none" xmlns="http://www.w3.org/2000/svg">
<g clip-path="url(#clip0_28_1532)">
<path d="M167.049 108.524C167.049 108.556 167.043 108.589 167.031 108.618C167.018 108.648 167 108.676 166.977 108.699C166.954 108.722 166.927 108.74 166.897 108.752C166.867 108.764 166.835 108.771 166.803 108.771H-12.1693C-12.2347 108.771 -12.2975 108.745 -12.3438 108.698C-12.39 108.652 -12.416 108.589 -12.416 108.524C-12.416 108.459 -12.39 108.396 -12.3438 108.35C-12.2975 108.303 -12.2347 108.277 -12.1693 108.277H166.803C166.835 108.277 166.867 108.284 166.897 108.296C166.927 108.308 166.954 108.326 166.977 108.349C167 108.372 167.018 108.4 167.031 108.429C167.043 108.459 167.049 108.492 167.049 108.524Z" fill="#CCCCCC"/>
<path d="M61.6527 10.2515L37.2673 15.7365C36.614 15.8842 36.0459 16.285 35.6878 16.851C35.3297 17.4169 35.2107 18.1018 35.357 18.7553L42.0437 48.4703L70.695 42.0258C70.9304 41.9736 71.1458 41.8547 71.3155 41.6834L64.6722 12.1615C64.5244 11.5082 64.1235 10.9403 63.5574 10.5823C62.9914 10.2242 62.3064 10.1052 61.6527 10.2515Z" fill="#E6E6E6"/>
<path d="M52.7948 14.3432L39.431 17.3491C38.836 17.4836 38.3187 17.8484 37.9925 18.3637C37.6662 18.879 37.5577 19.5025 37.6907 20.0977L43.9775 48.0355L69.424 42.3118L64.8456 21.9659C64.2558 19.359 62.6558 17.0924 60.3967 15.6634C58.1375 14.2343 55.4036 13.7596 52.7948 14.3432Z" fill="white"/>
<path d="M64.5305 40.8058L47.7544 44.5792C47.6825 44.5952 47.6144 44.6253 47.5541 44.6677C47.4938 44.71 47.4425 44.7639 47.403 44.8261C47.3636 44.8883 47.3368 44.9577 47.3242 45.0303C47.3116 45.1029 47.3134 45.1772 47.3296 45.2491C47.3458 45.321 47.376 45.389 47.4184 45.4492C47.4609 45.5094 47.5149 45.5606 47.5772 45.5999C47.6395 45.6392 47.7089 45.6659 47.7816 45.6784C47.8542 45.6908 47.9286 45.6888 48.0004 45.6725L64.7766 41.8991C64.8485 41.8831 64.9167 41.8531 64.977 41.8107C65.0374 41.7684 65.0888 41.7145 65.1283 41.6523C65.1678 41.5901 65.1946 41.5207 65.2072 41.448C65.2199 41.3754 65.218 41.301 65.2018 41.2291C65.1857 41.1572 65.1554 41.0892 65.1129 41.0289C65.0704 40.9687 65.0164 40.9175 64.9541 40.8782C64.8917 40.8388 64.8222 40.8122 64.7495 40.7998C64.6768 40.7873 64.6024 40.7894 64.5305 40.8058Z" fill="#E4E4E4"/>
<path d="M64.0436 38.6436L47.2675 42.417C47.1223 42.4497 46.9961 42.5386 46.9165 42.6644C46.837 42.7901 46.8106 42.9422 46.8433 43.0874C46.8759 43.2325 46.9649 43.3587 47.0907 43.4382C47.2164 43.5178 47.3686 43.5441 47.5138 43.5115L64.2899 39.738C64.3618 39.7218 64.4298 39.6917 64.49 39.6492C64.5502 39.6068 64.6015 39.5529 64.6409 39.4907C64.6802 39.4284 64.707 39.359 64.7195 39.2864C64.7321 39.2139 64.7303 39.1395 64.7141 39.0677C64.6979 38.9958 64.6677 38.9278 64.6253 38.8676C64.5829 38.8074 64.529 38.7562 64.4667 38.7168C64.4044 38.6774 64.335 38.6507 64.2624 38.6381C64.1898 38.6255 64.1155 38.6274 64.0436 38.6436Z" fill="#E4E4E4"/>
<path d="M54.0534 38.6202L46.7812 40.2559C46.6362 40.2886 46.5101 40.3774 46.4306 40.503C46.3511 40.6286 46.3248 40.7806 46.3574 40.9256C46.39 41.0706 46.4789 41.1967 46.6045 41.2761C46.7302 41.3556 46.8822 41.3819 47.0272 41.3493L54.2994 39.7135C54.3714 39.6975 54.4395 39.6675 54.4998 39.6252C54.5602 39.5828 54.6116 39.529 54.6511 39.4668C54.6906 39.4045 54.7174 39.3351 54.73 39.2625C54.7427 39.1899 54.7408 39.1155 54.7247 39.0435C54.7085 38.9716 54.6783 38.9036 54.6357 38.8434C54.5932 38.7832 54.5392 38.7319 54.4769 38.6926C54.4145 38.6533 54.345 38.6266 54.2723 38.6142C54.1997 38.6018 54.1253 38.6038 54.0534 38.6202Z" fill="#E4E4E4"/>
<path d="M62.5387 31.9553L45.7626 35.7288C45.6907 35.745 45.6227 35.7751 45.5625 35.8176C45.5023 35.86 45.451 35.9139 45.4116 35.9761C45.3321 36.1018 45.3057 36.254 45.3384 36.3991C45.3711 36.5443 45.46 36.6705 45.5858 36.75C45.7115 36.8295 45.8637 36.8559 46.0089 36.8232L62.785 33.0498C62.8569 33.0336 62.9249 33.0034 62.9851 32.961C63.0453 32.9186 63.0966 32.8647 63.136 32.8024C63.1754 32.7402 63.2021 32.6708 63.2147 32.5982C63.2272 32.5256 63.2254 32.4513 63.2092 32.3794C63.193 32.3076 63.1629 32.2396 63.1204 32.1794C63.078 32.1192 63.0241 32.0679 62.9618 32.0286C62.8995 31.9892 62.8301 31.9624 62.7575 31.9499C62.6849 31.9373 62.6106 31.9392 62.5387 31.9553Z" fill="#E4E4E4"/>
<path d="M62.0525 29.7943L45.2764 33.5678C45.2045 33.5838 45.1364 33.6139 45.0761 33.6562C45.0158 33.6986 44.9645 33.7524 44.925 33.8146C44.8856 33.8768 44.8588 33.9462 44.8461 34.0188C44.8335 34.0914 44.8354 34.1658 44.8516 34.2376C44.8677 34.3095 44.8979 34.3775 44.9404 34.4377C44.9829 34.4979 45.0368 34.5491 45.0991 34.5885C45.1615 34.6278 45.2309 34.6545 45.3035 34.6669C45.3762 34.6794 45.4505 34.6774 45.5224 34.6611L62.2985 30.8876C62.3704 30.8715 62.4384 30.8414 62.4986 30.7991C62.5588 30.7567 62.6101 30.7029 62.6495 30.6407C62.6889 30.5785 62.7157 30.5091 62.7283 30.4365C62.7408 30.364 62.739 30.2897 62.7228 30.2179C62.7067 30.146 62.6765 30.0781 62.6341 30.0179C62.5916 29.9577 62.5377 29.9065 62.4755 29.8672C62.4132 29.8279 62.3438 29.8012 62.2713 29.7887C62.1987 29.7762 62.1243 29.7781 62.0525 29.7943Z" fill="#E4E4E4"/>
<path d="M52.0621 29.77L44.7899 31.4058C44.718 31.4219 44.6501 31.4521 44.5898 31.4945C44.5296 31.537 44.4784 31.5908 44.439 31.6531C44.3996 31.7153 44.3728 31.7847 44.3603 31.8573C44.3477 31.9299 44.3496 32.0042 44.3657 32.0761C44.3819 32.148 44.4121 32.2159 44.4545 32.2761C44.497 32.3363 44.5509 32.3876 44.6131 32.427C44.6754 32.4664 44.7448 32.4931 44.8174 32.5057C44.89 32.5182 44.9643 32.5164 45.0362 32.5002L52.3084 30.8645C52.3803 30.8483 52.4483 30.8181 52.5085 30.7757C52.5687 30.7333 52.62 30.6794 52.6594 30.6171C52.6987 30.5549 52.7255 30.4855 52.7381 30.4129C52.7506 30.3403 52.7488 30.266 52.7326 30.1941C52.7164 30.1223 52.6863 30.0543 52.6438 29.9941C52.6014 29.9339 52.5475 29.8826 52.4852 29.8432C52.4229 29.8039 52.3535 29.7771 52.2809 29.7646C52.2083 29.752 52.134 29.7539 52.0621 29.77Z" fill="#E4E4E4"/>
<path d="M60.5475 23.105L43.7714 26.8785C43.6262 26.9111 43.5 27.0001 43.4204 27.1258C43.3409 27.2515 43.3145 27.4037 43.3472 27.5488C43.3798 27.6939 43.4688 27.8201 43.5946 27.8997C43.7203 27.9792 43.8725 28.0055 44.0177 27.9729L60.7938 24.1994C60.8657 24.1833 60.9337 24.1531 60.9939 24.1107C61.0541 24.0682 61.1054 24.0143 61.1448 23.9521C61.1841 23.8898 61.2109 23.8205 61.2235 23.7479C61.236 23.6753 61.2342 23.601 61.218 23.5291C61.2018 23.4572 61.1716 23.3893 61.1292 23.3291C61.0868 23.2688 61.0329 23.2176 60.9706 23.1782C60.9083 23.1388 60.8389 23.1121 60.7663 23.0995C60.6937 23.087 60.6194 23.0888 60.5475 23.105Z" fill="#E6E6E6"/>
<path d="M60.0612 20.9439L43.285 24.7173C43.2132 24.7335 43.1452 24.7637 43.085 24.8061C43.0247 24.8485 42.9735 24.9024 42.9341 24.9647C42.8545 25.0904 42.8282 25.2425 42.8609 25.3877C42.8935 25.5328 42.9825 25.659 43.1082 25.7385C43.234 25.8181 43.3862 25.8444 43.5313 25.8118L60.3075 22.0383C60.3793 22.0221 60.4473 21.992 60.5076 21.9495C60.5678 21.9071 60.619 21.8532 60.6584 21.791C60.6978 21.7287 60.7246 21.6593 60.7371 21.5867C60.7497 21.5142 60.7478 21.4398 60.7317 21.368C60.7155 21.2961 60.6853 21.2281 60.6429 21.1679C60.6004 21.1077 60.5465 21.0565 60.4843 21.0171C60.422 20.9777 60.3526 20.951 60.28 20.9384C60.2074 20.9258 60.1331 20.9277 60.0612 20.9439Z" fill="#E6E6E6"/>
<path d="M50.0704 20.9197L42.7982 22.5554C42.6531 22.5881 42.5268 22.677 42.4473 22.8027C42.3677 22.9285 42.3414 23.0806 42.374 23.2258C42.4067 23.3709 42.4957 23.4971 42.6214 23.5766C42.7472 23.6562 42.8994 23.6825 43.0445 23.6499L50.3167 22.0141C50.3886 21.998 50.4566 21.9678 50.5168 21.9253C50.577 21.8829 50.6283 21.829 50.6677 21.7668C50.7071 21.7045 50.7338 21.6351 50.7464 21.5626C50.7589 21.49 50.7571 21.4156 50.7409 21.3438C50.7247 21.2719 50.6946 21.204 50.6521 21.1437C50.6097 21.0835 50.5558 21.0323 50.4935 20.9929C50.4313 20.9535 50.3618 20.9268 50.2893 20.9142C50.2167 20.9017 50.1423 20.9035 50.0704 20.9197Z" fill="#E6E6E6"/>
<path d="M13.0034 44.7288C12.8444 44.7289 12.692 44.7922 12.5796 44.9045C12.4672 45.0169 12.404 45.1693 12.4038 45.3282V107.311C12.404 107.47 12.4672 107.623 12.5796 107.735C12.692 107.847 12.8444 107.911 13.0034 107.911H90.7348C90.8938 107.911 91.0462 107.847 91.1585 107.735C91.2709 107.623 91.3341 107.47 91.3343 107.311V55.2778C91.3341 55.1189 91.2709 54.9665 91.1585 54.8541C91.0462 54.7417 90.8938 54.6785 90.7348 54.6783H46.1221C45.6692 54.6787 45.2325 54.51 44.8975 54.2052L34.8679 45.0942C34.6092 44.8588 34.2719 44.7285 33.922 44.7288H13.0034Z" fill="#3F3D56"/>
<path d="M105.769 28.5168L64.1483 10.6272C63.0323 10.149 61.7722 10.133 60.6444 10.5825C59.5166 11.0321 58.6131 11.9105 58.1323 13.0251L36.3232 63.7427L85.2254 84.762C85.6264 84.9358 86.069 84.9906 86.5003 84.9196L108.168 34.5314C108.646 33.4157 108.662 32.1559 108.212 31.0283C107.763 29.9007 106.884 28.9975 105.769 28.5168Z" fill="#E6E6E6"/>
<path d="M88.4162 25.099L65.6069 15.2951C64.5908 14.8595 63.4433 14.8446 62.4163 15.2537C61.3892 15.6628 60.5664 16.4624 60.1282 17.4773L39.6235 65.1615L83.0557 83.8296L97.9884 49.1033C99.8971 44.6504 99.9612 39.6224 98.1667 35.1223C96.3722 30.6223 92.8656 27.0176 88.4162 25.099Z" fill="white"/>
<path d="M77.4774 76.4142L48.8439 64.1069C48.7213 64.054 48.5894 64.0257 48.4559 64.0238C48.3224 64.0218 48.1898 64.0463 48.0657 64.0956C47.9416 64.1449 47.8285 64.2183 47.7328 64.3114C47.637 64.4045 47.5606 64.5155 47.5079 64.6382C47.4551 64.7608 47.4271 64.8927 47.4254 65.0262C47.4237 65.1597 47.4483 65.2922 47.4978 65.4162C47.5474 65.5402 47.6209 65.6532 47.7142 65.7487C47.8075 65.8442 47.9187 65.9205 48.0414 65.973L76.675 78.2803C76.7976 78.3333 76.9294 78.3615 77.0629 78.3635C77.1965 78.3654 77.3291 78.341 77.4531 78.2916C77.5772 78.2423 77.6904 78.169 77.7861 78.0759C77.8818 77.9828 77.9582 77.8717 78.011 77.7491C78.0637 77.6264 78.0917 77.4946 78.0935 77.3611C78.0952 77.2276 78.0706 77.095 78.021 76.9711C77.9715 76.8471 77.898 76.7341 77.8047 76.6385C77.7114 76.543 77.6002 76.4668 77.4774 76.4142Z" fill="#E4E4E4"/>
<path d="M79.0644 72.7241L50.4308 60.4167C50.1831 60.3104 49.9032 60.3067 49.6528 60.4066C49.4024 60.5065 49.2019 60.7017 49.0954 60.9493C48.9889 61.197 48.9851 61.4768 49.0849 61.7272C49.1847 61.9776 49.3799 62.1781 49.6276 62.2847L78.2611 74.5921C78.3838 74.6448 78.5157 74.6728 78.6492 74.6746C78.7827 74.6764 78.9153 74.6519 79.0393 74.6024C79.1634 74.553 79.2765 74.4796 79.3721 74.3865C79.4678 74.2933 79.5442 74.1823 79.597 74.0596C79.6497 73.937 79.6778 73.8051 79.6795 73.6716C79.6813 73.5381 79.6568 73.4056 79.6073 73.2816C79.5579 73.1575 79.4845 73.0445 79.3913 72.9488C79.2982 72.8532 79.1871 72.7768 79.0644 72.7241Z" fill="#E4E4E4"/>
<path d="M64.4292 62.0635L52.017 56.7284C51.8944 56.6756 51.7626 56.6475 51.6292 56.6456C51.4957 56.6437 51.3632 56.6682 51.2392 56.7176C51.1152 56.7669 51.0021 56.8402 50.9064 56.9333C50.8108 57.0264 50.7344 57.1374 50.6817 57.26C50.629 57.3826 50.601 57.5144 50.5992 57.6478C50.5975 57.7812 50.622 57.9137 50.6715 58.0376C50.721 58.1616 50.7944 58.2746 50.8876 58.3701C50.9808 58.4657 51.0919 58.5419 51.2146 58.5945L63.6267 63.9295C63.7493 63.9824 63.8811 64.0105 64.0146 64.0124C64.148 64.0142 64.2806 63.9898 64.4046 63.9404C64.5286 63.8911 64.6416 63.8177 64.7373 63.7247C64.8329 63.6316 64.9093 63.5206 64.962 63.398C65.0147 63.2754 65.0428 63.1436 65.0445 63.0102C65.0463 62.8767 65.0217 62.7443 64.9722 62.6203C64.9227 62.4964 64.8493 62.3834 64.7561 62.2879C64.6629 62.1923 64.5518 62.1161 64.4292 62.0635Z" fill="#E4E4E4"/>
<path d="M83.9734 61.3085L55.3398 49.0012C55.0921 48.895 54.8124 48.8915 54.5621 48.9914C54.3119 49.0914 54.1115 49.2865 54.005 49.5341C53.8986 49.7816 53.8948 50.0612 53.9945 50.3116C54.0941 50.5619 54.2891 50.7625 54.5366 50.8691L83.1701 63.1765C83.2929 63.2294 83.4248 63.2577 83.5584 63.2596C83.6921 63.2615 83.8248 63.2371 83.949 63.1877C84.0732 63.1383 84.1864 63.0649 84.2822 62.9717C84.378 62.8785 84.4545 62.7674 84.5073 62.6446C84.5601 62.5218 84.5881 62.3899 84.5899 62.2563C84.5916 62.1226 84.567 61.99 84.5174 61.8659C84.4678 61.7418 84.3942 61.6287 84.3009 61.5331C84.2075 61.4374 84.0963 61.3611 83.9734 61.3085Z" fill="#E4E4E4"/>
<path d="M85.5595 57.6201L56.9259 45.3127C56.8033 45.2598 56.6715 45.2315 56.5379 45.2296C56.4044 45.2277 56.2718 45.2521 56.1477 45.3014C56.0236 45.3507 55.9105 45.4241 55.8148 45.5172C55.7191 45.6103 55.6427 45.7213 55.5899 45.844C55.5372 45.9666 55.5091 46.0985 55.5074 46.232C55.5057 46.3655 55.5303 46.498 55.5799 46.622C55.6294 46.746 55.7029 46.859 55.7962 46.9545C55.8895 47.05 56.0007 47.1263 56.1235 47.1788L84.757 59.4861C84.8796 59.5391 85.0114 59.5673 85.145 59.5693C85.2785 59.5712 85.4111 59.5468 85.5352 59.4975C85.6593 59.4481 85.7724 59.3748 85.8681 59.2817C85.9638 59.1886 86.0403 59.0775 86.093 58.9549C86.1457 58.8322 86.1738 58.7004 86.1755 58.5669C86.1772 58.4334 86.1526 58.3008 86.103 58.1769C86.0535 58.0529 85.98 57.9399 85.8867 57.8444C85.7934 57.7488 85.6822 57.6726 85.5595 57.6201Z" fill="#E4E4E4"/>
<path d="M70.925 46.9576L58.5128 41.6225C58.2651 41.5162 57.9853 41.5125 57.7348 41.6124C57.4844 41.7123 57.2839 41.9075 57.1774 42.1552C57.0709 42.4028 57.0672 42.6826 57.167 42.933C57.2668 43.1834 57.4619 43.384 57.7096 43.4905L70.1218 48.8256C70.2445 48.8784 70.3764 48.9065 70.5099 48.9083C70.6435 48.9101 70.7761 48.8856 70.9002 48.8362C71.0243 48.7867 71.1374 48.7134 71.2331 48.6202C71.3288 48.527 71.4052 48.416 71.458 48.2933C71.5107 48.1706 71.5388 48.0387 71.5406 47.9052C71.5423 47.7716 71.5178 47.6391 71.4683 47.515C71.4188 47.391 71.3453 47.2779 71.2521 47.1823C71.1589 47.0866 71.0478 47.0103 70.925 46.9576Z" fill="#E4E4E4"/>
<path d="M90.4687 46.2027L61.8351 33.8953C61.5875 33.7893 61.3078 33.7858 61.0576 33.8858C60.8074 33.9857 60.6071 34.1809 60.5006 34.4283C60.3942 34.6758 60.3904 34.9554 60.49 35.2057C60.5896 35.456 60.7845 35.6566 61.0319 35.7633L89.6654 48.0707C89.7881 48.1234 89.92 48.1516 90.0536 48.1534C90.1872 48.1552 90.3198 48.1307 90.4438 48.0813C90.5679 48.0318 90.6811 47.9584 90.7768 47.8653C90.8725 47.7721 90.9489 47.661 91.0017 47.5384C91.0544 47.4157 91.0825 47.2838 91.0842 47.1503C91.086 47.0167 91.0614 46.8842 91.012 46.7601C90.9625 46.6361 90.889 46.523 90.7958 46.4274C90.7026 46.3317 90.5914 46.2554 90.4687 46.2027Z" fill="#813FBB"/>
<path d="M92.0549 42.5143L63.4214 30.207C63.1737 30.1008 62.8939 30.0973 62.6437 30.1973C62.3934 30.2972 62.193 30.4923 62.0866 30.7399C61.9801 30.9874 61.9763 31.2671 62.076 31.5174C62.1757 31.7677 62.3707 31.9683 62.6181 32.075L91.2517 44.3823C91.3744 44.4355 91.5065 44.4639 91.6403 44.466C91.774 44.4681 91.9069 44.4438 92.0312 44.3944C92.1556 44.3451 92.269 44.2717 92.3649 44.1784C92.4608 44.0852 92.5374 43.9739 92.5903 43.851C92.6431 43.7281 92.6712 43.5961 92.6729 43.4623C92.6745 43.3285 92.6498 43.1958 92.6001 43.0716C92.5504 42.9474 92.4766 42.8343 92.383 42.7386C92.2895 42.643 92.178 42.5668 92.0549 42.5143Z" fill="#813FBB"/>
<path d="M77.4206 31.8519L65.0085 26.5168C64.7607 26.4105 64.4809 26.4068 64.2304 26.5067C63.98 26.6066 63.7795 26.8018 63.673 27.0494C63.5665 27.2971 63.5628 27.5769 63.6626 27.8273C63.7624 28.0777 63.9575 28.2782 64.2052 28.3848L76.6174 33.7198C76.7401 33.7726 76.872 33.8007 77.0055 33.8026C77.1391 33.8044 77.2717 33.7799 77.3958 33.7305C77.5199 33.681 77.633 33.6076 77.7287 33.5145C77.8244 33.4213 77.9008 33.3102 77.9536 33.1875C78.0063 33.0649 78.0344 32.933 78.0362 32.7994C78.0379 32.6659 78.0134 32.5333 77.9639 32.4093C77.9144 32.2853 77.8409 32.1722 77.7477 32.0765C77.6545 31.9809 77.5434 31.9046 77.4206 31.8519Z" fill="#813FBB"/>
<path d="M46.5189 46.938L22.1336 52.423C21.4802 52.5707 20.9122 52.9716 20.554 53.5375C20.1959 54.1035 20.0769 54.7883 20.2232 55.4419L26.9099 85.1569L55.5612 78.7123C55.7966 78.6601 56.012 78.5413 56.1817 78.3699L49.5384 48.848C49.3906 48.1948 48.9897 47.6268 48.4237 47.2688C47.8576 46.9107 47.1726 46.7918 46.5189 46.938Z" fill="#E6E6E6"/>
<path d="M37.661 51.0297L24.2972 54.0357C23.7022 54.1701 23.1849 54.535 22.8587 55.0502C22.5324 55.5655 22.4239 56.1891 22.5569 56.7842L28.8437 84.722L54.2902 78.9983L49.7118 58.6524C49.122 56.0455 47.522 53.7789 45.2629 52.3499C43.0037 50.9209 40.2698 50.4461 37.661 51.0297Z" fill="white"/>
<path d="M49.3963 77.4923L32.6201 81.2657C32.5482 81.2818 32.4801 81.3118 32.4199 81.3542C32.3596 81.3966 32.3082 81.4504 32.2688 81.5126C32.2293 81.5748 32.2025 81.6442 32.1899 81.7168C32.1773 81.7894 32.1791 81.8638 32.1953 81.9356C32.2115 82.0075 32.2417 82.0755 32.2842 82.1357C32.3266 82.1959 32.3806 82.2471 32.4429 82.2864C32.5052 82.3258 32.5747 82.3524 32.6473 82.3649C32.7199 82.3774 32.7943 82.3754 32.8662 82.3591L49.6423 78.5856C49.7143 78.5696 49.7824 78.5396 49.8427 78.4973C49.9031 78.4549 49.9545 78.4011 49.994 78.3388C50.0335 78.2766 50.0603 78.2072 50.0729 78.1345C50.0856 78.0619 50.0837 77.9875 50.0676 77.9156C50.0514 77.8437 50.0212 77.7757 49.9786 77.7155C49.9361 77.6552 49.8821 77.604 49.8198 77.5647C49.7574 77.5253 49.6879 77.4987 49.6152 77.4863C49.5426 77.4739 49.4681 77.4759 49.3963 77.4923Z" fill="#E4E4E4"/>
<path d="M48.9098 75.3301L32.1337 79.1036C31.9885 79.1362 31.8623 79.2252 31.7827 79.3509C31.7032 79.4766 31.6768 79.6288 31.7095 79.7739C31.7421 79.919 31.8311 80.0452 31.9569 80.1248C32.0826 80.2043 32.2348 80.2306 32.38 80.198L49.1561 76.4245C49.3013 76.3919 49.4275 76.3029 49.5071 76.1772C49.5866 76.0515 49.613 75.8993 49.5803 75.7542C49.5476 75.6091 49.4586 75.4828 49.3329 75.4033C49.2072 75.3238 49.055 75.2974 48.9098 75.3301Z" fill="#E4E4E4"/>
<path d="M38.9196 75.3067L31.6474 76.9425C31.5756 76.9586 31.5077 76.9888 31.4475 77.0311C31.3874 77.0735 31.3361 77.1274 31.2968 77.1895C31.2574 77.2517 31.2307 77.321 31.2182 77.3936C31.2056 77.4661 31.2075 77.5403 31.2236 77.6121C31.2398 77.6839 31.2699 77.7518 31.3123 77.8119C31.3547 77.8721 31.4086 77.9233 31.4708 77.9626C31.533 78.002 31.6023 78.0287 31.6748 78.0412C31.7473 78.0538 31.8216 78.0519 31.8934 78.0358L39.1656 76.4001C39.2376 76.3841 39.3057 76.354 39.366 76.3117C39.4264 76.2694 39.4778 76.2155 39.5173 76.1533C39.5568 76.091 39.5836 76.0216 39.5963 75.949C39.6089 75.8764 39.6071 75.802 39.5909 75.7301C39.5747 75.6581 39.5445 75.5901 39.502 75.5299C39.4594 75.4697 39.4054 75.4185 39.3431 75.3791C39.2807 75.3398 39.2112 75.3132 39.1385 75.3007C39.0659 75.2883 38.9915 75.2904 38.9196 75.3067Z" fill="#E4E4E4"/>
<path d="M47.4049 68.6419L30.6288 72.4153C30.5569 72.4315 30.4889 72.4616 30.4287 72.5041C30.3685 72.5465 30.3172 72.6004 30.2778 72.6626C30.1983 72.7884 30.1719 72.9405 30.2046 73.0856C30.2373 73.2308 30.3262 73.357 30.452 73.4365C30.5777 73.5161 30.7299 73.5424 30.8751 73.5097L47.6512 69.7363C47.7964 69.7036 47.9226 69.6147 48.0022 69.489C48.0817 69.3632 48.1081 69.2111 48.0754 69.066C48.0428 68.9208 47.9538 68.7946 47.828 68.7151C47.7023 68.6355 47.5501 68.6092 47.4049 68.6419Z" fill="#E4E4E4"/>
<path d="M46.9187 66.4808L30.1426 70.2543C30.0707 70.2703 30.0026 70.3004 29.9423 70.3427C29.882 70.3851 29.8307 70.4389 29.7912 70.5011C29.7518 70.5634 29.725 70.6328 29.7124 70.7053C29.6998 70.7779 29.7016 70.8523 29.7178 70.9242C29.7339 70.996 29.7641 71.064 29.8066 71.1242C29.8491 71.1844 29.903 71.2356 29.9654 71.275C30.0277 71.3143 30.0971 71.341 30.1698 71.3534C30.2424 71.3659 30.3168 71.3639 30.3886 71.3476L47.1648 67.5741C47.2366 67.558 47.3046 67.528 47.3648 67.4856C47.425 67.4432 47.4763 67.3894 47.5157 67.3272C47.5551 67.265 47.5819 67.1956 47.5945 67.1231C47.607 67.0505 47.6052 66.9762 47.589 66.9044C47.5729 66.8325 47.5427 66.7646 47.5003 66.7044C47.4578 66.6443 47.4039 66.593 47.3417 66.5537C47.2794 66.5144 47.21 66.4877 47.1375 66.4752C47.0649 66.4627 46.9906 66.4646 46.9187 66.4808Z" fill="#E4E4E4"/>
<path d="M36.9283 66.4566L29.6561 68.0923C29.511 68.1249 29.3847 68.2139 29.3052 68.3396C29.2256 68.4653 29.1993 68.6175 29.2319 68.7626C29.2646 68.9077 29.3536 69.034 29.4793 69.1135C29.6051 69.193 29.7573 69.2194 29.9024 69.1867L37.1746 67.551C37.3198 67.5183 37.446 67.4294 37.5256 67.3037C37.6051 67.1779 37.6315 67.0258 37.5988 66.8807C37.5662 66.7355 37.4772 66.6093 37.3514 66.5298C37.2257 66.4502 37.0735 66.4239 36.9283 66.4566Z" fill="#E4E4E4"/>
<path d="M45.4132 59.7915L28.6371 63.565C28.5652 63.5811 28.4972 63.6113 28.437 63.6537C28.3768 63.6962 28.3255 63.7501 28.2861 63.8123C28.2066 63.938 28.1802 64.0902 28.2129 64.2353C28.2456 64.3804 28.3345 64.5067 28.4603 64.5862C28.586 64.6657 28.7382 64.6921 28.8834 64.6594L45.6595 60.8859C45.7314 60.8698 45.7994 60.8396 45.8596 60.7972C45.9198 60.7547 45.9711 60.7009 46.0105 60.6386C46.0499 60.5764 46.0766 60.507 46.0892 60.4344C46.1017 60.3618 46.0999 60.2875 46.0837 60.2156C46.0675 60.1438 46.0374 60.0758 45.9949 60.0156C45.9525 59.9554 45.8986 59.9041 45.8363 59.8647C45.7741 59.8253 45.7047 59.7986 45.6321 59.786C45.5595 59.7735 45.4851 59.7753 45.4132 59.7915Z" fill="#E6E6E6"/>
<path d="M44.9269 57.6306L28.1508 61.4041C28.0789 61.4203 28.0109 61.4504 27.9507 61.4929C27.8905 61.5353 27.8392 61.5892 27.7998 61.6514C27.7203 61.7771 27.6939 61.9293 27.7266 62.0744C27.7592 62.2196 27.8482 62.3458 27.974 62.4253C28.0997 62.5048 28.2519 62.5312 28.3971 62.4985L45.1732 58.7251C45.3184 58.6924 45.4446 58.6034 45.5241 58.4777C45.6037 58.352 45.63 58.1999 45.5974 58.0547C45.5647 57.9096 45.4757 57.7834 45.35 57.7038C45.2243 57.6243 45.0721 57.598 44.9269 57.6306Z" fill="#E6E6E6"/>
<path d="M34.9366 57.6062L27.6644 59.2419C27.5193 59.2746 27.393 59.3636 27.3135 59.4893C27.2339 59.615 27.2076 59.7671 27.2402 59.9123C27.2729 60.0574 27.3619 60.1836 27.4876 60.2632C27.6134 60.3427 27.7656 60.369 27.9107 60.3364L35.1829 58.7006C35.2548 58.6845 35.3228 58.6543 35.383 58.6119C35.4432 58.5694 35.4945 58.5156 35.5339 58.4533C35.5733 58.3911 35.6 58.3217 35.6126 58.2491C35.6251 58.1765 35.6233 58.1022 35.6071 58.0303C35.5909 57.9584 35.5608 57.8905 35.5183 57.8303C35.4759 57.7701 35.422 57.7188 35.3597 57.6794C35.2975 57.64 35.2281 57.6133 35.1555 57.6007C35.0829 57.5882 35.0085 57.59 34.9366 57.6062Z" fill="#E6E6E6"/>
<path d="M12.4888 61.0088C12.41 61.0088 12.3321 61.0243 12.2593 61.0544C12.1866 61.0845 12.1205 61.1286 12.0648 61.1843C12.0091 61.2399 11.965 61.306 11.9348 61.3787C11.9047 61.4514 11.8892 61.5293 11.8892 61.608C11.8892 61.6305 11.9076 107.793 11.9076 107.793C11.924 107.939 11.9939 108.075 12.1038 108.173C12.2137 108.271 12.356 108.325 12.5034 108.325H96.0037C96.1512 108.325 96.2935 108.271 96.4034 108.173C96.5133 108.075 96.5831 107.94 96.5995 107.793L101.797 61.6753C101.806 61.5915 101.798 61.5066 101.772 61.4262C101.747 61.3458 101.705 61.2717 101.648 61.2088C101.592 61.1455 101.524 61.095 101.446 61.0605C101.369 61.026 101.286 61.0084 101.201 61.0088L12.4888 61.0088Z" fill="#3F3D56"/>
<path d="M18.3807 63.5644C17.5336 63.5669 16.7214 63.9025 16.1198 64.4988C15.5182 65.0951 15.1754 65.9041 15.1655 66.751L15.2698 102.527C15.2661 102.952 15.3465 103.373 15.5064 103.766C15.6663 104.159 15.9026 104.517 16.2015 104.818C16.5005 105.12 16.8562 105.359 17.2481 105.522C17.6401 105.686 18.0605 105.77 18.4851 105.77H71.4905C77.5698 105.774 83.4371 103.537 87.9701 99.4868C92.503 95.4368 95.3833 89.858 96.0599 83.8179L97.9396 67.139C97.9903 66.6893 97.9455 66.234 97.8081 65.8029C97.6706 65.3717 97.4437 64.9744 97.1421 64.637C96.8405 64.2995 96.471 64.0296 96.0579 63.8448C95.6447 63.6599 95.1972 63.5644 94.7446 63.5644H18.3807ZM99.6085 63.5644L99.599 63.3572H99.6085V63.5644Z" fill="#813FBB"/>
<path d="M41.5343 90.3678H21.0007C20.7885 90.3678 20.585 90.2836 20.435 90.1336C20.285 89.9836 20.2007 89.7801 20.2007 89.568C20.2007 89.3559 20.285 89.1524 20.435 89.0024C20.585 88.8524 20.7885 88.7682 21.0007 88.7682H41.5343C42.5661 88.7538 42.5764 90.3824 41.5343 90.3678Z" fill="#E4E4E4"/>
<path d="M69.1955 94.5517H21.0007C20.7885 94.5517 20.585 94.4674 20.435 94.3174C20.285 94.1674 20.2007 93.964 20.2007 93.7518C20.2007 93.5397 20.285 93.3363 20.435 93.1863C20.585 93.0363 20.7885 92.952 21.0007 92.952H69.1955C70.2272 92.9376 70.2375 94.5662 69.1955 94.5517Z" fill="#E4E4E4"/>
</g>
<defs>
<clipPath id="clip0_28_1532">
<rect width="114" height="108.771" fill="white"/>
</clipPath>
</defs>
</svg>
