<svg width="115" height="118" viewBox="0 0 115 118" fill="none" xmlns="http://www.w3.org/2000/svg">
<g clip-path="url(#clip0_28_2022)">
<path d="M107.441 116.898H2.51758L6.32207 42.5083H22.7415L37.8821 53.1354H111.246L107.441 116.898Z" fill="#E5E5E5"/>
<path d="M81.7567 94.2129L21.1121 69.2034C20.9001 69.1157 20.7315 68.9473 20.6433 68.7353C20.5551 68.5232 20.5544 68.2848 20.6415 68.0723L48.1208 1.25543C48.2084 1.04313 48.3765 0.874287 48.5882 0.785947C48.8 0.697606 49.0381 0.696983 49.2503 0.784215L109.895 25.7937C110.107 25.8814 110.276 26.0498 110.364 26.2618C110.452 26.4739 110.453 26.7123 110.365 26.9248L82.8862 93.7417C82.7986 93.954 82.6305 94.1228 82.4188 94.2112C82.207 94.2995 81.9689 94.3001 81.7567 94.2129Z" fill="#F9F9F9"/>
<path d="M81.7567 94.2129L21.1121 69.2034C20.9001 69.1157 20.7315 68.9473 20.6433 68.7353C20.5551 68.5232 20.5544 68.2848 20.6415 68.0723L48.1208 1.25543C48.2084 1.04313 48.3765 0.874287 48.5882 0.785947C48.8 0.697606 49.0381 0.696983 49.2503 0.784215L109.895 25.7937C110.107 25.8814 110.276 26.0498 110.364 26.2618C110.452 26.4739 110.453 26.7123 110.365 26.9248L82.8862 93.7417C82.7986 93.954 82.6305 94.1228 82.4188 94.2112C82.207 94.2995 81.9689 94.3001 81.7567 94.2129ZM49.1185 1.10468C48.9912 1.05233 48.8483 1.0527 48.7213 1.10571C48.5942 1.15871 48.4933 1.26002 48.4408 1.38741L20.9616 68.2043C20.9093 68.3318 20.9097 68.4748 20.9626 68.6021C21.0155 68.7293 21.1167 68.8303 21.2439 68.8829L81.8885 93.8924C82.0158 93.9448 82.1587 93.9444 82.2857 93.8914C82.4128 93.8384 82.5136 93.7371 82.5662 93.6097L110.045 26.7928C110.098 26.6653 110.097 26.5223 110.044 26.395C109.991 26.2678 109.89 26.1668 109.763 26.1142L49.1185 1.10468Z" fill="#3F3D56"/>
<path d="M66.2465 33.8597L51.2054 27.6569C50.9934 27.5691 50.8248 27.4008 50.7365 27.1887C50.6483 26.9767 50.6477 26.7383 50.7348 26.5258L56.9292 11.4639C57.0168 11.2516 57.1849 11.0828 57.3966 10.9944C57.6084 10.9061 57.8465 10.9055 58.0587 10.9927L73.0998 17.1956C73.3119 17.2833 73.4805 17.4517 73.5687 17.6637C73.6569 17.8758 73.6575 18.1142 73.5704 18.3267L67.3761 33.3885C67.2885 33.6008 67.1203 33.7697 66.9086 33.858C66.6968 33.9464 66.4587 33.947 66.2465 33.8597ZM57.9269 11.3132C57.7996 11.2608 57.6567 11.2612 57.5297 11.3142C57.4026 11.3672 57.3017 11.4685 57.2492 11.5959L51.0548 26.6577C51.0026 26.7852 51.0029 26.9283 51.0559 27.0555C51.1088 27.1828 51.21 27.2838 51.3372 27.3364L66.3783 33.5393C66.5056 33.5916 66.6485 33.5913 66.7756 33.5383C66.9026 33.4853 67.0035 33.3839 67.056 33.2565L73.2504 18.1947C73.3027 18.0672 73.3023 17.9242 73.2494 17.7969C73.1964 17.6697 73.0953 17.5687 72.9681 17.5161L57.9269 11.3132Z" fill="#F2F2F2"/>
<path d="M61.1686 33.9206L46.1274 27.7177C45.9366 27.6387 45.7849 27.4872 45.7055 27.2964C45.6261 27.1055 45.6255 26.891 45.7039 26.6997L51.8983 11.6379C51.9771 11.4468 52.1284 11.2948 52.319 11.2153C52.5096 11.1358 52.7239 11.1352 52.9149 11.2138L67.956 17.4166C68.1468 17.4956 68.2986 17.6471 68.378 17.8379C68.4574 18.0288 68.4579 18.2434 68.3795 18.4346L62.1852 33.4965C62.1063 33.6876 61.955 33.8395 61.7644 33.919C61.5739 33.9985 61.3596 33.9991 61.1686 33.9206Z" fill="#745934"/>
<path d="M90.14 54.4892L43.0964 35.0887C43.0019 35.0497 42.9159 34.9925 42.8435 34.9202C42.771 34.8479 42.7135 34.7621 42.6741 34.6676C42.6348 34.573 42.6145 34.4717 42.6143 34.3693C42.6141 34.2669 42.634 34.1654 42.6729 34.0707C42.7119 33.976 42.7691 33.89 42.8412 33.8174C42.9134 33.7449 42.9991 33.6872 43.0935 33.6479C43.1879 33.6085 43.2891 33.5881 43.3914 33.5879C43.4937 33.5877 43.595 33.6076 43.6895 33.6466L90.7331 53.0471C90.924 53.1259 91.076 53.2774 91.1554 53.4683C91.2348 53.6592 91.2352 53.8739 91.1566 54.0651C91.0779 54.2564 90.9266 54.4085 90.736 54.488C90.5453 54.5675 90.331 54.568 90.14 54.4892Z" fill="#CCCCCC"/>
<path d="M76.7362 54.7709L41.0535 40.0555C40.9589 40.0165 40.8729 39.9593 40.8005 39.887C40.728 39.8147 40.6705 39.7289 40.6312 39.6344C40.5918 39.5398 40.5715 39.4385 40.5713 39.3361C40.5711 39.2337 40.591 39.1322 40.63 39.0375C40.6689 38.9428 40.7261 38.8568 40.7983 38.7842C40.8704 38.7117 40.9561 38.654 41.0505 38.6147C41.1449 38.5753 41.2462 38.5549 41.3484 38.5547C41.4507 38.5545 41.552 38.5744 41.6465 38.6134L77.3292 53.3288C77.5202 53.4075 77.6721 53.559 77.7515 53.7499C77.831 53.9409 77.8314 54.1555 77.7528 54.3468C77.6741 54.538 77.5228 54.6901 77.3322 54.7697C77.1415 54.8492 76.9271 54.8496 76.7362 54.7709Z" fill="#CCCCCC"/>
<path d="M97.4922 36.1564L76.6907 27.578C76.5961 27.539 76.5102 27.4817 76.4377 27.4095C76.3652 27.3372 76.3077 27.2513 76.2684 27.1568C76.2291 27.0623 76.2087 26.9609 76.2085 26.8585C76.2083 26.7561 76.2282 26.6547 76.2672 26.56C76.3061 26.4653 76.3633 26.3792 76.4355 26.3067C76.5076 26.2341 76.5934 26.1765 76.6877 26.1371C76.7821 26.0977 76.8834 26.0774 76.9856 26.0772C77.0879 26.0769 77.1892 26.0969 77.2838 26.1359L98.0853 34.7144C98.2763 34.7931 98.4282 34.9446 98.5076 35.1355C98.587 35.3264 98.5875 35.5411 98.5088 35.7323C98.4302 35.9236 98.2789 36.0757 98.0882 36.1552C97.8976 36.2348 97.6832 36.2352 97.4922 36.1564Z" fill="#CCCCCC"/>
<path d="M90.2579 38.9828L74.6477 32.5453C74.4567 32.4665 74.3048 32.315 74.2254 32.1241C74.146 31.9332 74.1455 31.7185 74.2242 31.5273C74.3028 31.336 74.4541 31.1839 74.6448 31.1044C74.8354 31.0249 75.0498 31.0244 75.2408 31.1032L90.851 37.5407C91.042 37.6195 91.1939 37.771 91.2733 37.9619C91.3527 38.1528 91.3531 38.3675 91.2745 38.5587C91.1958 38.75 91.0446 38.9021 90.8539 38.9816C90.6633 39.0611 90.4489 39.0616 90.2579 38.9828Z" fill="#CCCCCC"/>
<path d="M86.054 64.4233L39.0105 45.0228C38.9159 44.9838 38.83 44.9266 38.7575 44.8543C38.6851 44.782 38.6275 44.6962 38.5882 44.6016C38.5489 44.5071 38.5285 44.4058 38.5283 44.3034C38.5281 44.2009 38.548 44.0995 38.587 44.0048C38.6259 43.9101 38.6831 43.824 38.7553 43.7515C38.8274 43.6789 38.9132 43.6213 39.0076 43.5819C39.102 43.5426 39.2032 43.5222 39.3055 43.522C39.4077 43.5218 39.509 43.5417 39.6036 43.5807L86.6471 62.9812C86.8381 63.06 86.99 63.2115 87.0694 63.4024C87.1488 63.5933 87.1493 63.808 87.0706 63.9992C86.992 64.1904 86.8407 64.3425 86.65 64.4221C86.4594 64.5016 86.245 64.5021 86.054 64.4233Z" fill="#CCCCCC"/>
<path d="M72.6502 64.7054L36.9675 49.9901C36.873 49.9511 36.787 49.8938 36.7146 49.8216C36.6421 49.7493 36.5846 49.6635 36.5452 49.5689C36.5059 49.4744 36.4856 49.373 36.4854 49.2706C36.4851 49.1682 36.5051 49.0668 36.544 48.9721C36.583 48.8774 36.6401 48.7913 36.7123 48.7188C36.7845 48.6462 36.8702 48.5886 36.9646 48.5492C37.059 48.5098 37.1602 48.4895 37.2625 48.4893C37.3647 48.4891 37.4661 48.509 37.5606 48.548L73.2433 63.2634C73.3379 63.3023 73.4238 63.3596 73.4963 63.4319C73.5687 63.5041 73.6263 63.59 73.6656 63.6845C73.7049 63.779 73.7253 63.8804 73.7255 63.9828C73.7257 64.0852 73.7057 64.1867 73.6668 64.2813C73.6279 64.376 73.5707 64.4621 73.4985 64.5347C73.4264 64.6072 73.3406 64.6648 73.2462 64.7042C73.1518 64.7436 73.0506 64.764 72.9483 64.7642C72.8461 64.7644 72.7448 64.7444 72.6502 64.7054Z" fill="#CCCCCC"/>
<path d="M81.9686 74.3579L34.9251 54.9574C34.7341 54.8786 34.5822 54.7271 34.5028 54.5362C34.4233 54.3453 34.4229 54.1306 34.5015 53.9394C34.5802 53.7482 34.7315 53.596 34.9221 53.5165C35.1128 53.437 35.3272 53.4365 35.5181 53.5153L82.5617 72.9158C82.7526 72.9945 82.9045 73.146 82.984 73.3369C83.0634 73.5279 83.0638 73.7425 82.9852 73.9338C82.9065 74.125 82.7552 74.2771 82.5646 74.3567C82.374 74.4362 82.1596 74.4366 81.9686 74.3579Z" fill="#CCCCCC"/>
<path d="M79.9261 79.3252L32.8826 59.9247C32.6916 59.8459 32.5397 59.6944 32.4603 59.5035C32.3809 59.3126 32.3804 59.0979 32.4591 58.9067C32.5377 58.7154 32.689 58.5633 32.8796 58.4838C33.0703 58.4043 33.2847 58.4038 33.4756 58.4826L80.5192 77.8831C80.6137 77.9221 80.6997 77.9793 80.7722 78.0516C80.8446 78.1239 80.9022 78.2097 80.9415 78.3042C80.9808 78.3988 81.0012 78.5001 81.0014 78.6025C81.0016 78.7049 80.9816 78.8064 80.9427 78.9011C80.9038 78.9958 80.8466 79.0818 80.7744 79.1544C80.7022 79.227 80.6165 79.2846 80.5221 79.3239C80.4277 79.3633 80.3265 79.3837 80.2242 79.3839C80.122 79.3841 80.0207 79.3642 79.9261 79.3252Z" fill="#CCCCCC"/>
<path d="M56.976 78.9561C57.9175 79.006 58.8615 78.9771 59.7982 78.8699C60.6417 78.7711 61.5203 78.6352 62.2597 78.1911C62.5795 78.0085 62.8517 77.7528 63.0543 77.445C63.2568 77.1372 63.3839 76.7858 63.4253 76.4195C63.458 76.0711 63.379 75.7213 63.1999 75.4207C63.0208 75.1202 62.7509 74.8846 62.4291 74.7479C62.1027 74.6103 61.7452 74.5636 61.3944 74.6128C61.0436 74.662 60.7126 74.8053 60.4365 75.0275C60.1416 75.284 59.9083 75.6038 59.754 75.9632C59.5997 76.3226 59.5284 76.7123 59.5455 77.1031C59.5844 78.7081 60.8525 80.2931 62.2606 80.9607C63.8467 81.7127 66.0126 81.0737 66.4188 79.2219C66.5033 78.8368 65.9794 78.7029 65.7604 78.9504C65.4614 79.2805 65.2995 79.7124 65.3079 80.158C65.3162 80.6036 65.4941 81.0291 65.8053 81.3478C66.1164 81.6664 66.5373 81.854 66.9819 81.8724C67.4266 81.8907 67.8615 81.7384 68.1977 81.4464L67.6081 81.2033C67.7795 81.9223 68.1369 82.5834 68.6443 83.1201C69.1518 83.6568 69.7915 84.0503 70.4991 84.2608C70.8482 84.3656 71.2102 84.4209 71.5747 84.425C72.0176 84.4262 72.4726 84.6488 72.8962 84.787L75.9486 85.7828C76.3976 85.9293 76.6825 85.2468 76.2298 85.0991L73.4653 84.1972C73.0046 84.0469 72.5451 83.8925 72.0831 83.7463C71.7528 83.6418 71.3912 83.6984 71.0467 83.6369C70.4018 83.5147 69.805 83.2114 69.3257 82.7625C68.8464 82.3136 68.5044 81.7375 68.3396 81.1014C68.3296 81.0381 68.3034 80.9784 68.2637 80.9282C68.224 80.8779 68.1721 80.8387 68.1129 80.8143C68.0538 80.7898 67.9893 80.7811 67.9258 80.7888C67.8622 80.7965 67.8017 80.8204 67.7501 80.8582C67.557 81.0423 67.299 81.1425 67.0325 81.137C66.7659 81.1315 66.5123 81.0208 66.3269 80.829C66.1415 80.6372 66.0393 80.3798 66.0425 80.1128C66.0457 79.8459 66.1541 79.591 66.344 79.4037L65.6857 79.1322C65.4236 80.3267 63.9684 80.775 62.9197 80.4296C61.7468 80.0433 60.7387 78.9192 60.3889 77.7418C60.2953 77.4588 60.261 77.1596 60.2881 76.8629C60.3152 76.5661 60.4032 76.2781 60.5464 76.0169C60.6741 75.7786 60.8732 75.5865 61.1157 75.4676C61.3582 75.3486 61.6318 75.3089 61.8981 75.3539C62.1359 75.3875 62.3513 75.5124 62.4989 75.702C62.6465 75.8917 62.7147 76.1314 62.6891 76.3705C62.65 76.6395 62.5454 76.8948 62.3847 77.1138C62.2239 77.3328 62.0118 77.5089 61.767 77.6265C61.1069 77.9813 60.3165 78.0697 59.5833 78.1502C58.7473 78.2413 57.9054 78.2653 57.0656 78.222C56.5943 78.1982 56.4997 78.9321 56.976 78.9561Z" fill="#745934"/>
<path d="M107.441 58.1486V116.899H2.51758V47.5215H18.937L34.0768 58.1486H107.441Z" fill="#F9F9F9"/>
<path d="M51.7759 105.87H8.92529V109.279H51.7759V105.87Z" fill="#745934"/>
<path d="M30.3506 99.2534H8.92529V102.662H30.3506V99.2534Z" fill="#745934"/>
<path d="M107.642 117.099H2.31738V47.3208H19.0002L34.1409 57.9479H107.642V117.099ZM2.71786 116.698H107.241V58.349H34.0145L18.8738 47.7218H2.71786V116.698Z" fill="#3F3D56"/>
<path d="M158.55 117.5H-31.6748C-31.7279 117.5 -31.7788 117.479 -31.8164 117.441C-31.8539 117.404 -31.875 117.353 -31.875 117.3C-31.875 117.246 -31.8539 117.195 -31.8164 117.158C-31.7788 117.12 -31.7279 117.099 -31.6748 117.099H158.55C158.603 117.099 158.654 117.12 158.691 117.158C158.729 117.195 158.75 117.246 158.75 117.3C158.75 117.353 158.729 117.404 158.691 117.441C158.654 117.479 158.603 117.5 158.55 117.5Z" fill="#CBCBCB"/>
</g>
<defs>
<clipPath id="clip0_28_2022">
<rect width="115" height="117.5" fill="white"/>
</clipPath>
</defs>
</svg>
