<svg width="440" height="292" viewBox="0 0 440 292" fill="none" xmlns="http://www.w3.org/2000/svg">
<g clip-path="url(#clip0_36_835)">
<path d="M279.459 162.167C281 161.846 282.351 160.935 283.224 159.63C284.096 158.325 284.418 156.73 284.122 155.19C284.055 154.85 283.959 154.517 283.833 154.193L299.83 140.451L289.372 137.502L275.785 151.004C274.358 151.683 273.256 152.894 272.717 154.375C272.179 155.857 272.247 157.49 272.907 158.922C273.468 160.124 274.422 161.099 275.613 161.689C276.803 162.279 278.16 162.447 279.459 162.167Z" fill="#FFB6B6"/>
<path d="M383.333 259.623L383.914 246.595C389.975 243.366 396.735 241.661 403.607 241.627C394.149 249.333 395.331 264.189 388.918 274.553C386.894 277.77 384.168 280.491 380.945 282.516C377.721 284.541 374.081 285.816 370.295 286.248L362.38 291.078C361.294 285.044 361.534 278.847 363.082 272.914C364.631 266.981 367.451 261.453 371.35 256.711C373.564 254.072 376.102 251.722 378.905 249.715C380.8 254.697 383.333 259.623 383.333 259.623Z" fill="#F2F2F2"/>
<path d="M362.939 284.374L355.772 284.373L352.362 256.823L362.94 256.824L362.939 284.374Z" fill="#FFB6B6"/>
<path d="M364.766 291.297L341.657 291.296V291.005C341.657 288.628 342.605 286.348 344.292 284.667C345.979 282.986 348.266 282.041 350.652 282.041H350.653L354.874 278.849L362.75 282.041L364.767 282.042L364.766 291.297Z" fill="#2F2E41"/>
<path d="M329.642 284.374L322.475 284.373L319.065 256.823L329.643 256.824L329.642 284.374Z" fill="#FFB6B6"/>
<path d="M331.469 291.297L308.36 291.296V291.005C308.361 288.628 309.308 286.348 310.995 284.667C312.682 282.986 314.97 282.041 317.355 282.041H317.356L321.577 278.849L329.453 282.041L331.47 282.042L331.469 291.297Z" fill="#2F2E41"/>
<path d="M326.54 133.755L373.156 134.916C382.01 139.709 382.144 150.081 379.243 162.397C379.243 162.397 380.223 169.717 378.264 171.668C376.306 173.62 375.326 173.62 376.306 177.036C377.285 180.452 372.111 186.032 372.739 186.658C373.368 187.284 374.837 190.7 374.837 190.7L369.94 218.516C369.94 218.516 366.513 266.827 365.533 267.803C364.554 268.779 363.575 267.803 364.554 270.243C365.533 272.683 366.513 271.707 365.533 272.683C364.666 273.615 363.849 274.592 363.085 275.611H351.247C351.247 275.611 350.354 270.731 350.354 270.243C350.354 269.755 349.375 266.827 349.375 266.339C349.375 265.851 350.24 264.988 350.24 264.988C350.539 263.996 350.742 262.978 350.844 261.947C350.844 260.971 353.782 223.396 353.782 223.396L347.906 174.596L333.706 222.42C333.706 222.42 333.706 264.387 332.727 265.363C331.747 266.339 331.747 265.851 332.237 267.803C332.727 269.755 334.685 269.267 333.216 270.731C331.747 272.195 331.258 269.755 331.747 272.195L332.237 274.635L317.548 274.844C317.548 274.844 315.589 270.731 316.568 269.267C317.548 267.803 317.489 268.202 316.294 265.807C315.099 263.411 314.61 262.923 315.099 262.435C315.589 261.947 315.589 259.351 315.589 259.351L318.037 212.66C318.037 212.66 318.527 163.373 318.527 161.909C318.564 161.155 318.424 160.404 318.12 159.713V157.726L319.996 150.685L326.54 133.755Z" fill="#2F2E41"/>
<path d="M278.92 146.316L286.798 152.648L329.748 119.468L327.206 61.7211C324.791 63.647 322.782 66.031 321.297 68.7353C319.812 71.4396 318.88 74.4106 318.554 77.4763L311.196 110.097L278.92 146.316Z" fill="#E6E6E6"/>
<path d="M319.582 148.342C334.785 150.278 348.792 144.412 362.023 139.984C367.996 137.985 374.014 140.072 379.559 136.691C377.161 113.153 379.489 86.6396 384.582 58.3848C384.873 56.7853 384.57 55.1351 383.729 53.7419C382.889 52.3488 381.569 51.308 380.015 50.8137L363.602 46.1208L358.549 40.5651L345.498 43.8669L340.93 52.0966L325.23 62.6684C324.314 63.2851 323.596 64.1525 323.162 65.1662C322.729 66.1799 322.598 67.2968 322.787 68.3826C327.503 94.9551 326.41 122.229 319.582 148.342Z" fill="#E6E6E6"/>
<path d="M368.103 155.627C369.497 154.9 370.548 153.655 371.029 152.163C371.511 150.67 371.385 149.048 370.678 147.647C370.521 147.338 370.337 147.043 370.128 146.766L381.754 129.196L370.886 129.203L361.511 145.887C360.324 146.928 359.595 148.393 359.483 149.965C359.371 151.537 359.883 153.089 360.911 154.287C361.779 155.291 362.964 155.97 364.271 156.213C365.578 156.457 366.929 156.25 368.103 155.627Z" fill="#FFB6B6"/>
<path d="M364.819 139.224L371.935 148.342L396.841 111.363L394.687 73.7956C394.412 69.0108 392.928 64.3729 390.372 60.3133C387.816 56.2537 384.271 52.9044 380.068 50.5769L380.576 108.324L364.819 139.224Z" fill="#E6E6E6"/>
<path d="M346.938 38.4157C355.734 38.4157 362.865 31.309 362.865 22.5426C362.865 13.7761 355.734 6.66943 346.938 6.66943C338.142 6.66943 331.011 13.7761 331.011 22.5426C331.011 31.309 338.142 38.4157 346.938 38.4157Z" fill="#FFB6B6"/>
<path d="M336.789 13.227C337.406 13.2318 338.019 13.312 338.616 13.4659C339.792 13.7477 340.986 13.9473 342.19 14.0633C345.878 14.409 349.342 15.9761 352.031 18.5144C354.719 21.0527 356.477 24.4156 357.023 28.0662C357.948 27.262 360.054 25.7828 361.78 27.1575C361.807 27.1794 361.822 27.1906 361.883 27.1619C363.029 26.62 365.064 19.9491 365.126 14.0754C365.158 10.958 364.666 6.97705 362.136 5.71639L362.002 5.64997L361.967 5.5056C361.798 4.80434 359.91 3.60729 356.628 2.67559C350.663 0.98245 341.772 -2.31583 336.766 2.53816C336.387 4.17455 335.154 7.67643 333.909 8.07337C332.53 8.51272 331.339 8.89188 331.152 10.5775C330.995 12.9764 331.006 15.3832 331.186 17.7804C331.653 16.3135 332.57 15.0296 333.808 14.1094C334.688 13.5189 335.728 13.211 336.789 13.227Z" fill="#2F2E41"/>
<path d="M440 291.397C440 291.476 439.985 291.555 439.954 291.628C439.924 291.701 439.88 291.768 439.823 291.824C439.767 291.88 439.7 291.924 439.627 291.955C439.553 291.985 439.475 292 439.395 292H0.604851C0.444435 292 0.290594 291.937 0.177163 291.823C0.0637319 291.71 0 291.557 0 291.397C0 291.237 0.0637319 291.084 0.177163 290.971C0.290594 290.858 0.444435 290.794 0.604851 290.794H439.395C439.475 290.794 439.553 290.81 439.627 290.84C439.7 290.87 439.767 290.914 439.823 290.97C439.88 291.026 439.924 291.093 439.954 291.166C439.985 291.24 440 291.318 440 291.397Z" fill="#CCCCCC"/>
<path d="M181.595 51.224L121.809 64.6291C120.207 64.9902 118.815 65.9697 117.936 67.3529C117.058 68.7361 116.767 70.4098 117.125 72.0071L133.519 144.629L203.764 128.879C204.342 128.751 204.87 128.461 205.286 128.042L188.998 55.8919C188.636 54.2955 187.653 52.9075 186.265 52.0324C184.877 51.1573 183.198 50.8666 181.595 51.224Z" fill="#E6E6E6"/>
<path d="M159.879 61.2238L127.115 68.5701C125.656 68.8987 124.388 69.7904 123.588 71.0496C122.788 72.3089 122.522 73.8329 122.848 75.2874L138.261 143.566L200.649 129.578L189.424 79.8533C187.978 73.4821 184.056 67.9426 178.517 64.4501C172.978 60.9577 166.275 59.7974 159.879 61.2238Z" fill="white"/>
<path d="M188.651 125.897L147.52 135.119C147.344 135.158 147.177 135.232 147.029 135.335C146.882 135.439 146.756 135.57 146.659 135.722C146.562 135.874 146.496 136.044 146.466 136.221C146.435 136.399 146.439 136.581 146.479 136.756C146.518 136.932 146.593 137.098 146.697 137.245C146.801 137.392 146.933 137.517 147.086 137.614C147.239 137.71 147.409 137.775 147.587 137.805C147.765 137.836 147.947 137.831 148.124 137.791L189.254 128.569C189.431 128.53 189.598 128.456 189.745 128.353C189.893 128.25 190.019 128.118 190.116 127.966C190.213 127.814 190.279 127.644 190.31 127.467C190.341 127.289 190.336 127.107 190.297 126.932C190.257 126.756 190.183 126.59 190.079 126.442C189.974 126.295 189.842 126.17 189.689 126.074C189.536 125.978 189.366 125.913 189.188 125.882C189.01 125.852 188.827 125.857 188.651 125.897Z" fill="#E4E4E4"/>
<path d="M187.458 120.613L146.327 129.835C145.972 129.915 145.662 130.132 145.467 130.439C145.272 130.747 145.207 131.119 145.287 131.473C145.368 131.828 145.586 132.136 145.894 132.331C146.202 132.525 146.575 132.589 146.931 132.51L188.062 123.288C188.238 123.248 188.405 123.174 188.552 123.071C188.7 122.967 188.826 122.835 188.922 122.683C189.019 122.531 189.084 122.361 189.115 122.184C189.146 122.007 189.141 121.825 189.102 121.649C189.062 121.474 188.988 121.308 188.884 121.16C188.78 121.013 188.648 120.888 188.495 120.792C188.343 120.695 188.172 120.63 187.994 120.599C187.817 120.569 187.634 120.573 187.458 120.613Z" fill="#E4E4E4"/>
<path d="M162.965 120.556L145.136 124.554C144.78 124.633 144.471 124.851 144.276 125.157C144.082 125.464 144.017 125.836 144.097 126.19C144.177 126.545 144.395 126.853 144.703 127.047C145.011 127.241 145.384 127.305 145.739 127.226L163.569 123.228C163.745 123.189 163.912 123.116 164.06 123.012C164.208 122.909 164.334 122.777 164.431 122.625C164.528 122.473 164.593 122.303 164.624 122.126C164.655 121.948 164.651 121.766 164.611 121.591C164.571 121.415 164.497 121.249 164.393 121.101C164.289 120.954 164.157 120.829 164.004 120.733C163.851 120.637 163.68 120.572 163.502 120.541C163.324 120.511 163.142 120.516 162.965 120.556Z" fill="#E4E4E4"/>
<path d="M183.769 104.267L142.638 113.489C142.462 113.529 142.295 113.602 142.147 113.706C142 113.81 141.874 113.942 141.778 114.094C141.583 114.401 141.518 114.773 141.598 115.128C141.678 115.482 141.896 115.791 142.205 115.985C142.513 116.179 142.886 116.244 143.242 116.164L184.372 106.942C184.549 106.902 184.715 106.829 184.863 106.725C185.011 106.621 185.136 106.489 185.233 106.337C185.329 106.185 185.395 106.016 185.426 105.838C185.457 105.661 185.452 105.479 185.412 105.304C185.373 105.128 185.299 104.962 185.195 104.815C185.091 104.668 184.958 104.542 184.806 104.446C184.653 104.35 184.483 104.284 184.305 104.254C184.127 104.223 183.945 104.228 183.769 104.267Z" fill="#E4E4E4"/>
<path d="M182.576 98.9857L141.445 108.208C141.269 108.247 141.102 108.321 140.954 108.424C140.806 108.528 140.68 108.659 140.584 108.811C140.487 108.963 140.421 109.133 140.39 109.31C140.359 109.488 140.364 109.669 140.404 109.845C140.443 110.021 140.517 110.187 140.621 110.334C140.726 110.481 140.858 110.606 141.011 110.702C141.163 110.799 141.334 110.864 141.512 110.894C141.69 110.925 141.872 110.92 142.048 110.88L183.179 101.658C183.355 101.618 183.522 101.545 183.669 101.441C183.817 101.338 183.943 101.206 184.039 101.054C184.136 100.902 184.202 100.733 184.232 100.555C184.263 100.378 184.259 100.196 184.219 100.021C184.179 99.8453 184.105 99.6793 184.001 99.5322C183.897 99.3852 183.765 99.26 183.613 99.1639C183.46 99.0677 183.29 99.0025 183.112 98.9719C182.934 98.9414 182.752 98.946 182.576 98.9857Z" fill="#E4E4E4"/>
<path d="M158.083 98.9261L140.253 102.924C140.077 102.963 139.91 103.037 139.763 103.141C139.615 103.244 139.489 103.376 139.393 103.528C139.296 103.68 139.231 103.85 139.2 104.027C139.169 104.205 139.174 104.386 139.213 104.562C139.253 104.738 139.327 104.904 139.431 105.051C139.535 105.198 139.667 105.323 139.82 105.42C139.972 105.516 140.143 105.581 140.321 105.612C140.499 105.643 140.681 105.638 140.857 105.599L158.686 101.601C158.863 101.561 159.029 101.488 159.177 101.384C159.325 101.28 159.45 101.149 159.547 100.996C159.644 100.844 159.709 100.675 159.74 100.497C159.771 100.32 159.766 100.138 159.726 99.9626C159.687 99.787 159.613 99.6209 159.509 99.4737C159.405 99.3266 159.273 99.2013 159.12 99.1051C158.967 99.0088 158.797 98.9435 158.619 98.9128C158.441 98.8821 158.259 98.8866 158.083 98.9261Z" fill="#E4E4E4"/>
<path d="M178.886 82.6372L137.755 91.8594C137.399 91.9392 137.09 92.1566 136.895 92.4638C136.7 92.7711 136.635 93.1429 136.715 93.4976C136.795 93.8523 137.013 94.1608 137.322 94.3552C137.63 94.5495 138.003 94.6139 138.359 94.5341L179.49 85.3119C179.666 85.2724 179.832 85.1987 179.98 85.095C180.128 84.9913 180.253 84.8596 180.35 84.7075C180.447 84.5553 180.512 84.3857 180.543 84.2084C180.574 84.031 180.569 83.8493 180.53 83.6737C180.49 83.4981 180.416 83.3319 180.312 83.1848C180.208 83.0377 180.076 82.9124 179.923 82.8161C179.77 82.7199 179.6 82.6545 179.422 82.6238C179.244 82.5931 179.062 82.5977 178.886 82.6372Z" fill="#E6E6E6"/>
<path d="M177.693 77.3558L136.563 86.578C136.387 86.6175 136.22 86.6912 136.072 86.7949C135.925 86.8986 135.799 87.0303 135.702 87.1825C135.507 87.4897 135.443 87.8616 135.523 88.2162C135.603 88.5709 135.821 88.8794 136.129 89.0738C136.438 89.2682 136.811 89.3325 137.167 89.2527L178.297 80.0306C178.473 79.9911 178.64 79.9174 178.788 79.8136C178.935 79.7099 179.061 79.5782 179.158 79.4261C179.254 79.274 179.32 79.1044 179.351 78.927C179.381 78.7496 179.377 78.5679 179.337 78.3923C179.298 78.2167 179.224 78.0506 179.119 77.9034C179.015 77.7563 178.883 77.631 178.731 77.5348C178.578 77.4385 178.408 77.3732 178.23 77.3425C178.052 77.3118 177.87 77.3163 177.693 77.3558Z" fill="#E6E6E6"/>
<path d="M153.2 77.2964L135.37 81.294C135.015 81.3738 134.705 81.5913 134.51 81.8985C134.315 82.2057 134.25 82.5776 134.33 82.9323C134.41 83.287 134.629 83.5954 134.937 83.7898C135.245 83.9842 135.618 84.0486 135.974 83.9688L153.804 79.9711C153.98 79.9316 154.147 79.8579 154.294 79.7542C154.442 79.6504 154.568 79.5188 154.664 79.3666C154.761 79.2145 154.826 79.0449 154.857 78.8675C154.888 78.6902 154.883 78.5085 154.844 78.3329C154.804 78.1572 154.73 77.9911 154.626 77.844C154.522 77.6968 154.39 77.5716 154.237 77.4753C154.085 77.3791 153.914 77.3137 153.736 77.283C153.558 77.2523 153.376 77.2569 153.2 77.2964Z" fill="#E6E6E6"/>
<path d="M62.3215 135.485C61.9318 135.485 61.5582 135.64 61.2826 135.914C61.007 136.189 60.852 136.561 60.8516 136.95V288.433C60.852 288.822 61.007 289.194 61.2826 289.469C61.5582 289.744 61.9318 289.898 62.3215 289.899H252.898C253.288 289.898 253.661 289.744 253.937 289.469C254.212 289.194 254.367 288.822 254.368 288.433V161.266C254.367 160.878 254.212 160.505 253.937 160.23C253.661 159.956 253.288 159.801 252.898 159.801H143.52C142.409 159.802 141.339 159.389 140.517 158.645L115.927 136.378C115.293 135.802 114.466 135.484 113.608 135.485H62.3215Z" fill="#3F3D56"/>
<path d="M289.757 95.8636L187.714 52.1423C184.977 50.9737 181.888 50.9345 179.123 52.0331C176.358 53.1318 174.143 55.2786 172.964 58.0027L119.494 181.954L239.389 233.324C240.372 233.749 241.457 233.883 242.515 233.709L295.637 110.563C296.81 107.836 296.849 104.757 295.747 102.002C294.644 99.2459 292.49 97.0385 289.757 95.8636Z" fill="#E6E6E6"/>
<path d="M247.213 87.5105L191.291 63.5501C188.8 62.4856 185.987 62.4492 183.469 63.449C180.95 64.4488 178.933 66.4032 177.859 68.8833L127.587 185.421L234.071 231.045L270.682 146.176C275.361 135.293 275.518 123.005 271.119 112.007C266.719 101.009 258.122 92.1994 247.213 87.5105Z" fill="white"/>
<path d="M220.394 212.923L150.193 182.844C149.892 182.715 149.569 182.646 149.242 182.641C148.914 182.636 148.589 182.696 148.285 182.817C147.981 182.937 147.703 183.116 147.469 183.344C147.234 183.571 147.047 183.843 146.917 184.143C146.788 184.442 146.719 184.765 146.715 185.091C146.711 185.417 146.771 185.741 146.893 186.044C147.014 186.347 147.194 186.623 147.423 186.857C147.652 187.09 147.924 187.277 148.225 187.405L218.427 217.483C218.728 217.613 219.051 217.682 219.378 217.687C219.706 217.691 220.031 217.632 220.335 217.511C220.639 217.39 220.917 217.211 221.151 216.984C221.386 216.756 221.573 216.485 221.703 216.185C221.832 215.885 221.901 215.563 221.905 215.237C221.909 214.911 221.849 214.587 221.727 214.284C221.606 213.981 221.425 213.704 221.197 213.471C220.968 213.237 220.695 213.051 220.394 212.923Z" fill="#E4E4E4"/>
<path d="M224.285 203.904L154.083 173.825C153.476 173.565 152.79 173.557 152.176 173.801C151.562 174.045 151.07 174.522 150.809 175.127C150.548 175.732 150.539 176.416 150.784 177.028C151.028 177.64 151.507 178.13 152.114 178.391L222.316 208.469C222.616 208.598 222.94 208.667 223.267 208.671C223.594 208.675 223.919 208.615 224.224 208.495C224.528 208.374 224.805 208.194 225.04 207.967C225.274 207.739 225.461 207.468 225.591 207.168C225.72 206.868 225.789 206.546 225.793 206.22C225.798 205.893 225.737 205.57 225.616 205.266C225.495 204.963 225.315 204.687 225.087 204.453C224.858 204.219 224.586 204.033 224.285 203.904Z" fill="#E4E4E4"/>
<path d="M188.403 177.85L157.971 164.811C157.671 164.682 157.348 164.613 157.02 164.609C156.693 164.604 156.368 164.664 156.064 164.784C155.76 164.905 155.483 165.084 155.249 165.312C155.014 165.539 154.827 165.811 154.698 166.11C154.568 166.41 154.5 166.732 154.495 167.058C154.491 167.384 154.551 167.708 154.673 168.011C154.794 168.314 154.974 168.59 155.202 168.823C155.431 169.057 155.703 169.243 156.004 169.372L186.435 182.41C186.736 182.539 187.059 182.608 187.386 182.613C187.713 182.617 188.038 182.557 188.342 182.437C188.646 182.316 188.924 182.137 189.158 181.91C189.393 181.682 189.58 181.411 189.709 181.111C189.838 180.811 189.907 180.489 189.911 180.163C189.916 179.837 189.855 179.513 189.734 179.211C189.613 178.908 189.433 178.632 189.204 178.398C188.976 178.165 188.703 177.978 188.403 177.85Z" fill="#E4E4E4"/>
<path d="M236.319 176.005L166.118 145.926C165.511 145.667 164.825 145.658 164.211 145.903C163.598 146.147 163.106 146.624 162.845 147.229C162.584 147.834 162.575 148.517 162.819 149.129C163.064 149.741 163.542 150.231 164.148 150.492L234.35 180.57C234.651 180.7 234.975 180.769 235.302 180.773C235.63 180.778 235.955 180.718 236.26 180.598C236.564 180.477 236.842 180.298 237.077 180.07C237.312 179.842 237.499 179.57 237.628 179.27C237.758 178.97 237.827 178.648 237.831 178.321C237.835 177.995 237.775 177.67 237.653 177.367C237.532 177.064 237.351 176.787 237.122 176.554C236.894 176.32 236.621 176.133 236.319 176.005Z" fill="#E4E4E4"/>
<path d="M240.208 166.991L170.006 136.912C169.706 136.783 169.382 136.714 169.055 136.709C168.728 136.704 168.403 136.764 168.098 136.884C167.794 137.005 167.517 137.184 167.282 137.412C167.047 137.639 166.86 137.911 166.731 138.211C166.601 138.51 166.533 138.833 166.529 139.159C166.524 139.485 166.585 139.809 166.706 140.112C166.828 140.415 167.008 140.691 167.237 140.925C167.465 141.158 167.738 141.344 168.039 141.473L238.241 171.551C238.541 171.681 238.864 171.75 239.192 171.754C239.519 171.759 239.844 171.7 240.148 171.579C240.453 171.458 240.73 171.279 240.965 171.052C241.199 170.824 241.387 170.553 241.516 170.253C241.645 169.953 241.714 169.631 241.718 169.305C241.723 168.978 241.662 168.654 241.541 168.351C241.419 168.049 241.239 167.772 241.01 167.539C240.782 167.305 240.509 167.119 240.208 166.991Z" fill="#E4E4E4"/>
<path d="M204.328 140.932L173.897 127.893C173.289 127.633 172.603 127.624 171.989 127.868C171.375 128.113 170.884 128.59 170.623 129.195C170.362 129.8 170.352 130.484 170.597 131.096C170.842 131.708 171.32 132.198 171.927 132.459L202.359 145.497C202.66 145.626 202.983 145.695 203.31 145.699C203.638 145.704 203.963 145.644 204.267 145.523C204.571 145.402 204.849 145.223 205.083 144.995C205.318 144.768 205.505 144.496 205.635 144.196C205.764 143.896 205.833 143.574 205.837 143.248C205.842 142.921 205.781 142.597 205.66 142.294C205.539 141.991 205.359 141.715 205.13 141.481C204.901 141.247 204.629 141.061 204.328 140.932Z" fill="#E4E4E4"/>
<path d="M252.246 139.087L182.044 109.009C181.437 108.749 180.751 108.741 180.137 108.985C179.524 109.23 179.033 109.706 178.772 110.311C178.511 110.916 178.502 111.599 178.746 112.211C178.99 112.823 179.468 113.313 180.074 113.574L250.276 143.652C250.577 143.781 250.9 143.85 251.228 143.855C251.555 143.859 251.88 143.799 252.185 143.678C252.489 143.558 252.766 143.378 253.001 143.151C253.235 142.923 253.423 142.651 253.552 142.352C253.682 142.052 253.75 141.729 253.755 141.403C253.759 141.077 253.699 140.753 253.577 140.45C253.456 140.146 253.276 139.87 253.047 139.636C252.819 139.403 252.546 139.216 252.246 139.087Z" fill="#ECAE57"/>
<path d="M256.134 130.073L185.932 99.9944C185.325 99.735 184.639 99.7264 184.026 99.9706C183.412 100.215 182.921 100.692 182.66 101.297C182.399 101.902 182.389 102.585 182.634 103.197C182.878 103.809 183.356 104.299 183.963 104.56L254.165 134.638C254.466 134.768 254.789 134.838 255.117 134.843C255.445 134.848 255.771 134.788 256.076 134.668C256.381 134.547 256.659 134.368 256.894 134.14C257.129 133.912 257.317 133.64 257.446 133.34C257.576 133.039 257.645 132.717 257.649 132.39C257.653 132.063 257.592 131.738 257.47 131.435C257.349 131.131 257.168 130.855 256.938 130.621C256.709 130.387 256.436 130.201 256.134 130.073Z" fill="#ECAE57"/>
<path d="M220.254 104.014L189.823 90.9755C189.215 90.7156 188.529 90.7067 187.915 90.9508C187.301 91.1949 186.809 91.672 186.548 92.2772C186.287 92.8825 186.278 93.5663 186.523 94.1783C186.767 94.7903 187.246 95.2804 187.853 95.5408L218.284 108.579C218.585 108.708 218.909 108.777 219.236 108.782C219.564 108.786 219.889 108.726 220.193 108.605C220.497 108.484 220.774 108.305 221.009 108.077C221.244 107.85 221.431 107.578 221.56 107.278C221.69 106.979 221.759 106.656 221.763 106.33C221.767 106.004 221.707 105.68 221.586 105.376C221.464 105.073 221.284 104.797 221.056 104.563C220.827 104.329 220.555 104.143 220.254 104.014Z" fill="#ECAE57"/>
<path d="M144.492 140.884L84.7055 154.289C83.1037 154.65 81.711 155.63 80.8329 157.013C79.9549 158.396 79.6631 160.07 80.0218 161.667L96.4157 234.289L166.661 218.539C167.238 218.412 167.766 218.121 168.182 217.702L151.895 145.552C151.532 143.956 150.55 142.568 149.162 141.693C147.774 140.817 146.094 140.527 144.492 140.884Z" fill="#E6E6E6"/>
<path d="M122.774 150.884L90.01 158.23C88.5514 158.559 87.283 159.451 86.4832 160.71C85.6833 161.969 85.4173 163.493 85.7433 164.948L101.157 233.226L163.545 219.238L152.32 169.513C150.874 163.142 146.951 157.603 141.412 154.11C135.873 150.618 129.171 149.458 122.774 150.884Z" fill="white"/>
<path d="M151.547 215.557L110.417 224.779C110.24 224.818 110.074 224.892 109.926 224.995C109.778 225.099 109.652 225.23 109.555 225.382C109.459 225.534 109.393 225.704 109.362 225.881C109.331 226.059 109.336 226.241 109.375 226.416C109.415 226.592 109.489 226.758 109.593 226.905C109.697 227.052 109.83 227.178 109.982 227.274C110.135 227.37 110.305 227.435 110.483 227.465C110.662 227.496 110.844 227.491 111.02 227.451L152.151 218.229C152.327 218.19 152.494 218.117 152.642 218.013C152.79 217.91 152.916 217.778 153.013 217.626C153.11 217.474 153.175 217.304 153.206 217.127C153.237 216.949 153.233 216.767 153.193 216.592C153.154 216.416 153.079 216.25 152.975 216.102C152.871 215.955 152.739 215.83 152.586 215.734C152.433 215.638 152.262 215.573 152.084 215.542C151.906 215.512 151.724 215.517 151.547 215.557Z" fill="#E4E4E4"/>
<path d="M150.354 210.273L109.224 219.495C108.868 219.575 108.559 219.792 108.363 220.1C108.168 220.407 108.104 220.779 108.184 221.133C108.264 221.488 108.482 221.797 108.79 221.991C109.099 222.185 109.472 222.25 109.828 222.17L150.958 212.948C151.314 212.868 151.624 212.65 151.819 212.343C152.014 212.036 152.078 211.664 151.998 211.309C151.918 210.955 151.7 210.646 151.392 210.452C151.083 210.258 150.71 210.193 150.354 210.273Z" fill="#E4E4E4"/>
<path d="M125.861 210.216L108.031 214.214C107.855 214.253 107.689 214.327 107.541 214.431C107.394 214.534 107.268 214.666 107.172 214.818C107.075 214.97 107.01 215.139 106.979 215.316C106.948 215.493 106.953 215.675 106.993 215.85C107.032 216.026 107.106 216.192 107.21 216.339C107.314 216.486 107.446 216.611 107.598 216.707C107.751 216.803 107.921 216.868 108.099 216.899C108.276 216.93 108.459 216.925 108.635 216.886L126.464 212.888C126.641 212.849 126.808 212.776 126.955 212.672C127.103 212.569 127.229 212.437 127.326 212.285C127.423 212.133 127.489 211.963 127.52 211.786C127.551 211.608 127.546 211.426 127.507 211.251C127.467 211.075 127.393 210.909 127.289 210.762C127.184 210.614 127.052 210.489 126.899 210.393C126.746 210.297 126.576 210.232 126.398 210.201C126.22 210.171 126.037 210.176 125.861 210.216Z" fill="#E4E4E4"/>
<path d="M146.664 193.927L105.534 203.149C105.357 203.189 105.191 203.262 105.043 203.366C104.895 203.47 104.77 203.602 104.673 203.754C104.478 204.061 104.413 204.433 104.494 204.788C104.574 205.142 104.792 205.451 105.1 205.645C105.408 205.839 105.781 205.904 106.137 205.824L147.268 196.602C147.624 196.522 147.933 196.305 148.128 195.997C148.323 195.69 148.388 195.318 148.308 194.964C148.228 194.609 148.01 194.3 147.701 194.106C147.393 193.912 147.02 193.847 146.664 193.927Z" fill="#E4E4E4"/>
<path d="M145.472 188.646L104.342 197.868C104.165 197.907 103.998 197.981 103.851 198.084C103.703 198.188 103.577 198.319 103.48 198.471C103.383 198.623 103.318 198.793 103.287 198.97C103.256 199.148 103.26 199.33 103.3 199.505C103.34 199.681 103.414 199.847 103.518 199.994C103.622 200.141 103.754 200.266 103.907 200.363C104.06 200.459 104.23 200.524 104.408 200.554C104.586 200.585 104.769 200.58 104.945 200.54L146.075 191.318C146.252 191.279 146.418 191.205 146.566 191.101C146.714 190.998 146.839 190.866 146.936 190.714C147.032 190.562 147.098 190.393 147.129 190.215C147.16 190.038 147.155 189.857 147.116 189.681C147.076 189.505 147.002 189.339 146.898 189.192C146.794 189.045 146.662 188.92 146.509 188.824C146.357 188.728 146.186 188.663 146.008 188.632C145.831 188.602 145.648 188.606 145.472 188.646Z" fill="#E4E4E4"/>
<path d="M120.978 188.586L103.149 192.584C102.793 192.664 102.483 192.881 102.288 193.188C102.093 193.496 102.029 193.868 102.109 194.222C102.189 194.577 102.407 194.885 102.715 195.08C103.024 195.274 103.397 195.338 103.753 195.259L121.582 191.261C121.938 191.181 122.247 190.964 122.442 190.657C122.637 190.349 122.702 189.977 122.622 189.623C122.542 189.268 122.324 188.96 122.015 188.765C121.707 188.571 121.334 188.506 120.978 188.586Z" fill="#E4E4E4"/>
<path d="M141.781 172.297L100.651 181.519C100.474 181.559 100.308 181.633 100.16 181.736C100.013 181.84 99.8868 181.972 99.7903 182.124C99.5952 182.431 99.5306 182.803 99.6107 183.158C99.6908 183.512 99.9089 183.821 100.217 184.015C100.526 184.21 100.899 184.274 101.255 184.194L142.385 174.972C142.561 174.933 142.728 174.859 142.876 174.755C143.023 174.651 143.149 174.52 143.245 174.368C143.342 174.216 143.408 174.046 143.438 173.869C143.469 173.691 143.465 173.509 143.425 173.334C143.385 173.158 143.311 172.992 143.207 172.845C143.103 172.698 142.971 172.573 142.819 172.476C142.666 172.38 142.496 172.315 142.318 172.284C142.14 172.253 141.957 172.258 141.781 172.297Z" fill="#E6E6E6"/>
<path d="M140.589 167.016L99.4583 176.238C99.2821 176.278 99.1154 176.351 98.9678 176.455C98.8201 176.559 98.6944 176.69 98.5979 176.843C98.4028 177.15 98.3382 177.522 98.4183 177.876C98.4984 178.231 98.7166 178.54 99.0248 178.734C99.3331 178.928 99.7062 178.993 100.062 178.913L141.193 169.691C141.549 169.611 141.858 169.393 142.053 169.086C142.248 168.779 142.313 168.407 142.233 168.052C142.153 167.698 141.934 167.389 141.626 167.195C141.318 167.001 140.945 166.936 140.589 167.016Z" fill="#E6E6E6"/>
<path d="M116.095 166.956L98.2659 170.954C97.91 171.034 97.6005 171.251 97.4055 171.559C97.2105 171.866 97.1459 172.238 97.2259 172.592C97.306 172.947 97.5242 173.255 97.8325 173.45C98.1408 173.644 98.5139 173.709 98.8698 173.629L116.699 169.631C116.875 169.592 117.042 169.518 117.19 169.414C117.337 169.31 117.463 169.179 117.56 169.027C117.656 168.875 117.722 168.705 117.753 168.528C117.783 168.35 117.779 168.169 117.739 167.993C117.7 167.817 117.626 167.651 117.522 167.504C117.417 167.357 117.285 167.232 117.133 167.135C116.98 167.039 116.81 166.974 116.632 166.943C116.454 166.912 116.272 166.917 116.095 166.956Z" fill="#E6E6E6"/>
<path d="M61.0589 175.272C60.8659 175.272 60.6748 175.31 60.4964 175.384C60.3181 175.457 60.156 175.565 60.0195 175.701C59.883 175.837 59.7747 175.999 59.7008 176.176C59.6269 176.354 59.5889 176.545 59.5889 176.737C59.5889 176.792 59.6341 289.611 59.6341 289.611C59.6744 289.969 59.8456 290.299 60.1151 290.539C60.3846 290.779 60.7335 290.912 61.0949 290.912H265.815C266.176 290.912 266.525 290.779 266.795 290.539C267.064 290.299 267.235 289.969 267.276 289.611L280.018 176.901C280.041 176.696 280.021 176.489 279.958 176.292C279.895 176.096 279.792 175.915 279.654 175.761C279.517 175.607 279.348 175.483 279.159 175.399C278.97 175.314 278.765 175.271 278.558 175.272L61.0589 175.272Z" fill="#3F3D56"/>
<path d="M75.5058 181.518C73.4288 181.524 71.4377 182.344 69.9626 183.802C68.4876 185.259 67.6472 187.236 67.623 189.306L67.8787 276.741C67.8696 277.778 68.0668 278.807 68.4588 279.769C68.8509 280.73 69.4301 281.604 70.163 282.341C70.896 283.077 71.7681 283.662 72.729 284.061C73.6899 284.46 74.7207 284.666 75.7617 284.666H205.717C220.621 284.676 235.006 279.209 246.12 269.311C257.233 259.413 264.295 245.778 265.954 231.017L270.563 190.254C270.687 189.155 270.577 188.042 270.24 186.989C269.903 185.935 269.347 184.964 268.607 184.139C267.868 183.315 266.962 182.655 265.949 182.203C264.936 181.752 263.839 181.518 262.729 181.518H75.5058ZM274.654 181.518L274.631 181.012H274.654V181.518Z" fill="#ECAE57"/>
<path d="M132.271 247.024H81.9282C81.408 247.024 80.9091 246.818 80.5413 246.452C80.1734 246.085 79.9668 245.588 79.9668 245.07C79.9668 244.551 80.1734 244.054 80.5413 243.687C80.9091 243.321 81.408 243.115 81.9282 243.115H132.271C134.801 243.08 134.826 247.06 132.271 247.024Z" fill="#E4E4E4"/>
<path d="M200.089 257.25H81.9282C81.408 257.25 80.9091 257.044 80.5413 256.677C80.1734 256.311 79.9668 255.813 79.9668 255.295C79.9668 254.777 80.1734 254.279 80.5413 253.913C80.9091 253.546 81.408 253.34 81.9282 253.34H200.089C202.618 253.305 202.643 257.285 200.089 257.25Z" fill="#E4E4E4"/>
</g>
<defs>
<clipPath id="clip0_36_835">
<rect width="440" height="292" fill="white"/>
</clipPath>
</defs>
</svg>
