<svg width="65" height="65" viewBox="0 0 65 65" fill="none" xmlns="http://www.w3.org/2000/svg">
<g clip-path="url(#clip0_28_1594)">
<path fill-rule="evenodd" clip-rule="evenodd" d="M32.506 0C14.5639 0 0.0161133 14.5478 0.0161133 32.4939C0.0161133 46.8488 9.3233 59.0281 22.238 63.3263C23.863 63.6228 24.3749 62.66 24.3749 61.7987C24.3749 61.0269 24.3911 58.8697 24.3749 56.158C15.3378 58.1222 13.465 51.8781 13.465 51.8781C11.9883 48.1244 9.85955 47.125 9.85955 47.125C6.91018 45.11 10.081 45.1486 10.081 45.1486C13.3411 45.3781 15.0596 48.4981 15.0596 48.4981C17.9581 53.4605 22.6625 52.0264 24.513 51.1977C24.8096 49.0973 25.6505 47.6653 26.5788 46.8528C19.3638 46.0322 11.7791 43.2453 11.7791 30.7937C11.7791 27.2452 13.0446 24.3466 15.1225 22.0756C14.7874 21.255 13.6702 17.9502 15.4414 13.4753C15.4414 13.4753 18.1694 12.6019 24.3749 16.8086C26.9667 16.0875 29.7475 15.728 32.51 15.7158C35.2705 15.728 38.0492 16.0875 40.6452 16.8086C46.8507 12.6039 49.5746 13.4753 49.5746 13.4753C51.3458 17.9502 50.2307 21.255 49.8975 22.0756C51.9755 24.3466 53.2369 27.2452 53.2369 30.7937C53.2369 43.2778 45.64 46.0241 38.4007 46.8264C39.5666 47.8319 40.6249 49.7819 40.6249 52.8125C40.6249 56.875 40.6249 60.7384 40.6249 61.8069C40.6249 62.6763 41.1489 63.637 42.7983 63.3222C55.7008 59.018 64.9999 46.8447 64.9999 32.4939C64.9999 14.5478 50.4521 0 32.506 0Z" fill="white"/>
</g>
<defs>
<clipPath id="clip0_28_1594">
<rect width="65" height="65" rx="10" fill="white"/>
</clipPath>
</defs>
</svg>
