<svg width="371" height="238" viewBox="0 0 371 238" fill="none" xmlns="http://www.w3.org/2000/svg">
<g clip-path="url(#clip0_17_1028)">
<path d="M444.277 23H1.72303C1.26273 22.9917 0.824573 22.83 0.502479 22.5496C0.180386 22.2692 0 21.8924 0 21.5C0 21.1076 0.180386 20.7308 0.502479 20.4504C0.824573 20.17 1.26273 20.0083 1.72303 20H444.277C444.737 20.0083 445.175 20.17 445.498 20.4504C445.82 20.7308 446 21.1076 446 21.5C446 21.8924 445.82 22.2692 445.498 22.5496C445.175 22.83 444.737 22.9917 444.277 23Z" fill="#404A8A"/>
<path d="M21.3877 14.1368C25.2132 14.1368 28.3144 10.9722 28.3144 7.06839C28.3144 3.16463 25.2132 0 21.3877 0C17.5622 0 14.4609 3.16463 14.4609 7.06839C14.4609 10.9722 17.5622 14.1368 21.3877 14.1368Z" fill="#404A8A"/>
<path d="M45.3174 14.1368C49.1429 14.1368 52.2441 10.9722 52.2441 7.06839C52.2441 3.16463 49.1429 0 45.3174 0C41.4918 0 38.3906 3.16463 38.3906 7.06839C38.3906 10.9722 41.4918 14.1368 45.3174 14.1368Z" fill="#404A8A"/>
<path d="M69.2461 14.1368C73.0716 14.1368 76.1728 10.9722 76.1728 7.06839C76.1728 3.16463 73.0716 0 69.2461 0C65.4205 0 62.3193 3.16463 62.3193 7.06839C62.3193 10.9722 65.4205 14.1368 69.2461 14.1368Z" fill="#404A8A"/>
<path d="M369.26 2H352.263C351.926 2.0067 351.605 2.14499 351.369 2.3852C351.133 2.6254 351.001 2.94835 351.001 3.28472C351.001 3.62109 351.133 3.94404 351.369 4.18425C351.605 4.42445 351.926 4.56274 352.263 4.56944H369.26C369.597 4.56274 369.918 4.42445 370.154 4.18425C370.39 3.94404 370.522 3.62109 370.522 3.28472C370.522 2.94835 370.39 2.6254 370.154 2.3852C369.918 2.14499 369.597 2.0067 369.26 2Z" fill="#404A8A"/>
<path d="M369.26 6.82251H352.262C351.925 6.82916 351.604 6.96745 351.368 7.20765C351.132 7.44786 351 7.77084 351 8.10723C351 8.44362 351.132 8.76661 351.368 9.00682C351.604 9.24702 351.925 9.3853 352.262 9.39195H369.26C369.597 9.3853 369.917 9.24702 370.153 9.00682C370.389 8.76661 370.521 8.44362 370.521 8.10723C370.521 7.77084 370.389 7.44786 370.153 7.20765C369.917 6.96745 369.597 6.82916 369.26 6.82251Z" fill="#404A8A"/>
<path d="M369.26 11.6386H352.262C351.925 11.6453 351.604 11.7835 351.368 12.0237C351.132 12.264 351 12.5869 351 12.9233C351 13.2597 351.132 13.5827 351.368 13.8229C351.604 14.0631 351.925 14.2014 352.262 14.2081H369.26C369.597 14.2014 369.917 14.0631 370.153 13.8229C370.389 13.5827 370.521 13.2597 370.521 12.9233C370.521 12.5869 370.389 12.264 370.153 12.0237C369.917 11.7835 369.597 11.6453 369.26 11.6386Z" fill="#404A8A"/>
<path d="M23.0245 70.4554C27.754 70.4554 31.5881 66.6282 31.5881 61.9072C31.5881 57.1862 27.754 53.359 23.0245 53.359C18.295 53.359 14.4609 57.1862 14.4609 61.9072C14.4609 66.6282 18.295 70.4554 23.0245 70.4554Z" fill="#E6E7E8"/>
<path d="M352.206 84H18.7942C17.7879 84 16.8228 83.5786 16.1113 82.8285C15.3997 82.0783 15 81.0609 15 80C15 78.9391 15.3997 77.9217 16.1113 77.1716C16.8228 76.4214 17.7879 76 18.7942 76H352.206C353.212 76 354.177 76.4214 354.889 77.1716C355.6 77.9217 356 78.9391 356 80C356 81.0609 355.6 82.0783 354.889 82.8285C354.177 83.5786 353.212 84 352.206 84Z" fill="#E6E7E8"/>
<path d="M264.214 94H18.786C17.7819 94 16.8189 93.5786 16.1089 92.8284C15.3989 92.0783 15 91.0609 15 90C15 88.9391 15.3989 87.9217 16.1089 87.1716C16.8189 86.4214 17.7819 86 18.786 86H264.214C265.218 86 266.181 86.4214 266.891 87.1716C267.601 87.9217 268 88.9391 268 90C268 91.0609 267.601 92.0783 266.891 92.8284C266.181 93.5786 265.218 94 264.214 94Z" fill="#E6E7E8"/>
<path d="M23.0245 203.879C27.754 203.879 31.5881 200.052 31.5881 195.331C31.5881 190.61 27.754 186.783 23.0245 186.783C18.295 186.783 14.4609 190.61 14.4609 195.331C14.4609 200.052 18.295 203.879 23.0245 203.879Z" fill="#E6E7E8"/>
<path d="M351.998 216.99H18.7978C18.2994 216.991 17.8056 216.888 17.3449 216.688C16.8842 216.487 16.4655 216.193 16.1127 215.822C15.76 215.451 15.4802 215.011 15.2892 214.525C15.0983 214.04 15 213.52 15 212.995C15 212.47 15.0983 211.95 15.2892 211.465C15.4802 210.98 15.76 210.539 16.1127 210.168C16.4655 209.797 16.8842 209.503 17.3449 209.302C17.8056 209.102 18.2994 208.999 18.7978 209H351.998C353.054 209.062 354.05 209.538 354.791 210.334C355.531 211.13 355.963 212.189 356 213.303C355.969 213.823 355.84 214.331 355.622 214.798C355.404 215.265 355.1 215.682 354.728 216.025C354.355 216.368 353.923 216.629 353.454 216.795C352.986 216.961 352.491 217.027 351.998 216.99Z" fill="#E6E7E8"/>
<path d="M264.214 227H18.786C17.7819 227 16.8189 226.579 16.1089 225.828C15.3989 225.078 15 224.061 15 223C15 221.939 15.3989 220.922 16.1089 220.172C16.8189 219.421 17.7819 219 18.786 219H264.214C265.218 219 266.181 219.421 266.891 220.172C267.601 220.922 268 221.939 268 223C268 224.061 267.601 225.078 266.891 225.828C266.181 226.579 265.218 227 264.214 227Z" fill="#E6E7E8"/>
<path d="M23.0245 132.138C27.754 132.138 31.5881 128.311 31.5881 123.59C31.5881 118.869 27.754 115.042 23.0245 115.042C18.295 115.042 14.4609 118.869 14.4609 123.59C14.4609 128.311 18.295 132.138 23.0245 132.138Z" fill="#E6E7E8"/>
<path d="M352.206 145H18.7942C17.7879 145 16.8228 144.579 16.1113 143.828C15.3997 143.078 15 142.061 15 141C15 139.939 15.3997 138.922 16.1113 138.172C16.8228 137.421 17.7879 137 18.7942 137H352.206C353.212 137 354.177 137.421 354.889 138.172C355.6 138.922 356 139.939 356 141C356 142.061 355.6 143.078 354.889 143.828C354.177 144.579 353.212 145 352.206 145Z" fill="#E6E7E8"/>
<path d="M305.213 155H18.787C17.7826 155 16.8194 154.579 16.1092 153.828C15.399 153.078 15 152.061 15 151C15 149.939 15.399 148.922 16.1092 148.172C16.8194 147.421 17.7826 147 18.787 147H305.213C306.217 147 307.181 147.421 307.891 148.172C308.601 148.922 309 149.939 309 151C309 152.061 308.601 153.078 307.891 153.828C307.181 154.579 306.217 155 305.213 155Z" fill="#E6E7E8"/>
<path d="M286.207 166H18.7931C17.7871 166 16.8223 165.579 16.111 164.828C15.3996 164.078 15 163.061 15 162C15 160.939 15.3996 159.922 16.111 159.172C16.8223 158.421 17.7871 158 18.7931 158H286.207C287.213 158 288.178 158.421 288.889 159.172C289.6 159.922 290 160.939 290 162C290 163.061 289.6 164.078 288.889 164.828C288.178 165.579 287.213 166 286.207 166Z" fill="#E6E7E8"/>
<path d="M300.418 212.607C335.442 212.607 363.835 184.265 363.835 149.304C363.835 114.342 335.442 86 300.418 86C265.393 86 237 114.342 237 149.304C237 184.265 265.393 212.607 300.418 212.607Z" fill="#2A86D2"/>
<path d="M300.331 171.39C305.335 171.39 309.391 167.341 309.391 162.347C309.391 157.352 305.335 153.303 300.331 153.303C295.328 153.303 291.271 157.352 291.271 162.347C291.271 167.341 295.328 171.39 300.331 171.39Z" fill="#404A8A"/>
<path d="M300.33 166.521C302.639 166.521 304.511 164.652 304.511 162.347C304.511 160.042 302.639 158.173 300.33 158.173C298.021 158.173 296.148 160.042 296.148 162.347C296.148 164.652 298.021 166.521 300.33 166.521Z" fill="#2A86D2"/>
<path d="M317.149 182.478H283.688C280.375 182.474 277.199 181.159 274.856 178.82C272.513 176.482 271.195 173.311 271.191 170.004V154.69C271.195 151.383 272.513 148.212 274.856 145.873C277.199 143.535 280.375 142.219 283.688 142.215H317.149C320.462 142.219 323.638 143.535 325.981 145.873C328.324 148.212 329.642 151.383 329.645 154.69V170.004C329.642 173.311 328.324 176.482 325.981 178.82C323.638 181.159 320.462 182.474 317.149 182.478ZM283.688 143.522C280.722 143.525 277.878 144.703 275.781 146.796C273.683 148.89 272.503 151.729 272.5 154.69V170.004C272.503 172.965 273.683 175.803 275.781 177.897C277.878 179.991 280.722 181.168 283.688 181.172H317.149C320.115 181.168 322.959 179.991 325.056 177.897C327.154 175.803 328.334 172.965 328.337 170.004V154.69C328.334 151.729 327.154 148.89 325.056 146.796C322.959 144.703 320.115 143.525 317.149 143.522L283.688 143.522Z" fill="white"/>
<path d="M281.706 174.165H311.406C312.947 174.165 314.474 173.862 315.898 173.273C317.322 172.684 318.616 171.821 319.706 170.733C320.796 169.645 321.661 168.353 322.251 166.932C322.841 165.51 323.144 163.986 323.144 162.448V149.632C323.142 148.211 322.88 146.802 322.37 145.475C323.819 146.564 324.995 147.974 325.804 149.595C326.614 151.215 327.035 153 327.035 154.811V167.626C327.035 169.165 326.732 170.689 326.142 172.11C325.552 173.532 324.687 174.824 323.597 175.912C322.507 177 321.213 177.863 319.789 178.452C318.365 179.041 316.838 179.344 315.297 179.344H285.597C283.217 179.343 280.894 178.619 278.935 177.268C276.977 175.918 275.476 174.005 274.633 171.783C276.666 173.329 279.151 174.166 281.706 174.165Z" fill="#404A8A"/>
<path d="M300.933 114.98C294.731 114.98 289.278 117.783 286.191 121.99C289.492 119.593 293.476 118.317 297.557 118.35C307.163 118.35 314.977 125.066 314.977 133.321V140.184H318.353V129.951C318.353 121.696 310.539 114.98 300.933 114.98Z" fill="#404A8A"/>
<path d="M320.672 143.696H280.163V131.798C280.163 122.199 289.249 114.39 300.418 114.39C311.586 114.39 320.672 122.199 320.672 131.798V143.696ZM281.472 142.39H319.364V131.798C319.364 122.919 310.865 115.696 300.418 115.696C289.971 115.696 281.472 122.919 281.472 131.798V142.39Z" fill="white"/>
<path d="M310.792 139.154H290.043C289.11 139.153 288.215 138.782 287.555 138.123C286.895 137.464 286.523 136.571 286.522 135.639V130.904C286.522 124.303 292.756 118.932 300.418 118.932C308.079 118.932 314.313 124.303 314.313 130.904V135.639C314.312 136.571 313.941 137.464 313.281 138.123C312.621 138.782 311.726 139.153 310.792 139.154ZM300.418 120.238C293.477 120.238 287.831 125.023 287.831 130.904V135.639C287.832 136.224 288.065 136.786 288.48 137.2C288.894 137.614 289.457 137.847 290.043 137.848H310.792C311.379 137.847 311.941 137.614 312.356 137.2C312.771 136.786 313.004 136.224 313.004 135.639V130.904C313.004 125.023 307.358 120.238 300.418 120.238Z" fill="white"/>
</g>
<defs>
<clipPath id="clip0_17_1028">
<rect width="371" height="238" fill="white"/>
</clipPath>
</defs>
</svg>
