<svg width="519" height="328" viewBox="0 0 519 328" fill="none" xmlns="http://www.w3.org/2000/svg">
<g clip-path="url(#clip0_17_937)">
<path d="M457.016 299.968L457.522 288.602C462.791 285.785 468.668 284.297 474.643 284.268C466.42 290.991 467.447 303.951 461.872 312.992C458.306 318.677 452.349 322.431 445.682 323.195L438.8 327.409C436.889 316.755 439.739 305.799 446.598 297.427C448.523 295.125 450.73 293.075 453.166 291.324C454.814 295.67 457.016 299.968 457.016 299.968Z" fill="#F2F2F2"/>
<path d="M109.156 287.513L92.5502 282.485C90.3723 273.636 90.3872 264.39 92.5936 255.549C99.432 270.234 118.971 273.596 130.232 285.241C137.291 292.652 140.595 302.872 139.213 313.013L142.848 324.77C126.384 323.581 111.267 315.243 101.478 301.952C98.8009 298.241 96.6019 294.208 94.9328 289.947C101.976 289.148 109.156 287.513 109.156 287.513Z" fill="#F2F2F2"/>
<path d="M399.476 325.55C399.474 325.894 399.337 326.224 399.095 326.468C398.853 326.71 398.525 326.845 398.183 326.843H392.984C392.272 326.846 391.693 326.271 391.691 325.559V168.32C391.691 164.854 390.527 162.041 389.098 162.035H65.4611C64.0255 162.041 62.868 164.854 62.8616 168.32V324.587C62.8594 325.252 62.3537 325.808 61.6912 325.873C60.6436 325.977 59.5961 326.067 58.555 326.151C58.5291 326.151 58.5032 326.158 58.4774 326.158C57.9083 326.21 57.3393 326.248 56.7702 326.294H56.7638C56.4663 325.757 56.1818 325.207 55.8908 324.658C55.7975 324.471 55.7488 324.265 55.7485 324.056V160.166C55.7485 159.209 55.7873 158.245 55.852 157.295C55.9443 155.989 56.1062 154.69 56.337 153.402C57.4298 147.394 59.9 143.327 62.7064 143.314H391.846C392.255 143.316 392.66 143.402 393.036 143.566C393.587 143.81 394.086 144.159 394.504 144.594C395.071 145.184 395.556 145.847 395.946 146.566C397.329 149.004 398.319 152.639 398.668 156.868C398.668 156.907 398.674 156.945 398.674 156.984C398.765 158.032 398.81 159.099 398.804 160.166L398.894 174.024L398.952 182.288L399.127 208.219L399.192 217.428L399.476 325.55Z" fill="#E6E6E6"/>
<path d="M279.363 95.3741H246.381C245.41 95.3756 244.623 96.1642 244.624 97.1359V149.24H281.125V97.1359C281.126 96.1634 280.338 95.3747 279.365 95.3741H279.363ZM262.983 124.979C260.836 124.969 259.099 123.231 259.089 121.084V115.075C259.089 112.924 260.832 111.18 262.983 111.18C265.134 111.18 266.878 112.924 266.878 115.075V121.084C266.868 123.231 265.13 124.969 262.983 124.979Z" fill="#CCCCCC"/>
<path d="M244.511 147.573V152.601C244.512 153.143 244.951 153.582 245.493 153.583H280.255C280.797 153.581 281.235 153.142 281.238 152.601V147.573H244.511Z" fill="#3F3D56"/>
<path d="M333.979 14.0597H192.993C190.471 14.0637 188.427 16.1072 188.423 18.6293V113.771C188.426 116.294 190.47 118.338 192.993 118.34H333.979C336.501 118.338 338.546 116.294 338.548 113.771V18.6293C338.544 16.1072 336.501 14.0637 333.979 14.0597Z" fill="#E6E6E6"/>
<path d="M332.802 17.3602H194.171C192.82 17.3632 191.727 18.4587 191.727 19.8091V112.593C191.729 113.941 192.822 115.034 194.171 115.036H332.802C334.151 115.034 335.244 113.941 335.246 112.593V19.8091C335.246 18.4587 334.153 17.3632 332.802 17.3602Z" fill="white"/>
<path d="M305.799 155.332H223.321C222.483 155.332 221.804 154.653 221.804 153.815C221.804 153.71 221.815 153.605 221.836 153.503L223.116 147.424C223.266 146.724 223.884 146.222 224.6 146.219H304.519C305.236 146.222 305.854 146.724 306.004 147.424L307.284 153.503C307.456 154.323 306.932 155.127 306.112 155.3C306.009 155.322 305.904 155.332 305.799 155.332Z" fill="#CCCCCC"/>
<path d="M227.411 147.314H225.502C225.327 147.314 225.186 147.455 225.186 147.63V148.522C225.186 148.697 225.327 148.838 225.502 148.838H227.411C227.585 148.838 227.726 148.697 227.726 148.522V147.63C227.726 147.455 227.585 147.314 227.411 147.314Z" fill="#E6E6E6"/>
<path d="M232.491 147.314H230.582C230.408 147.314 230.267 147.455 230.267 147.63V148.522C230.267 148.697 230.408 148.838 230.582 148.838H232.491C232.666 148.838 232.807 148.697 232.807 148.522V147.63C232.807 147.455 232.666 147.314 232.491 147.314Z" fill="#E6E6E6"/>
<path d="M237.572 147.314H235.663C235.489 147.314 235.347 147.455 235.347 147.63V148.522C235.347 148.697 235.489 148.838 235.663 148.838H237.572C237.746 148.838 237.887 148.697 237.887 148.522V147.63C237.887 147.455 237.746 147.314 237.572 147.314Z" fill="#E6E6E6"/>
<path d="M242.652 147.314H240.743C240.569 147.314 240.428 147.455 240.428 147.63V148.522C240.428 148.697 240.569 148.838 240.743 148.838H242.652C242.827 148.838 242.968 148.697 242.968 148.522V147.63C242.968 147.455 242.827 147.314 242.652 147.314Z" fill="#E6E6E6"/>
<path d="M247.733 147.314H245.824C245.65 147.314 245.508 147.455 245.508 147.63V148.522C245.508 148.697 245.65 148.838 245.824 148.838H247.733C247.907 148.838 248.049 148.697 248.049 148.522V147.63C248.049 147.455 247.907 147.314 247.733 147.314Z" fill="#E6E6E6"/>
<path d="M252.813 147.314H250.905C250.73 147.314 250.589 147.455 250.589 147.63V148.522C250.589 148.697 250.73 148.838 250.905 148.838H252.813C252.988 148.838 253.129 148.697 253.129 148.522V147.63C253.129 147.455 252.988 147.314 252.813 147.314Z" fill="#E6E6E6"/>
<path d="M257.894 147.314H255.985C255.811 147.314 255.669 147.455 255.669 147.63V148.522C255.669 148.697 255.811 148.838 255.985 148.838H257.894C258.068 148.838 258.21 148.697 258.21 148.522V147.63C258.21 147.455 258.068 147.314 257.894 147.314Z" fill="#E6E6E6"/>
<path d="M262.974 147.314H261.065C260.891 147.314 260.75 147.455 260.75 147.63V148.522C260.75 148.697 260.891 148.838 261.065 148.838H262.974C263.148 148.838 263.29 148.697 263.29 148.522V147.63C263.29 147.455 263.148 147.314 262.974 147.314Z" fill="#E6E6E6"/>
<path d="M268.055 147.314H266.146C265.971 147.314 265.83 147.455 265.83 147.63V148.522C265.83 148.697 265.971 148.838 266.146 148.838H268.055C268.229 148.838 268.37 148.697 268.37 148.522V147.63C268.37 147.455 268.229 147.314 268.055 147.314Z" fill="#E6E6E6"/>
<path d="M273.135 147.314H271.226C271.052 147.314 270.911 147.455 270.911 147.63V148.522C270.911 148.697 271.052 148.838 271.226 148.838H273.135C273.31 148.838 273.451 148.697 273.451 148.522V147.63C273.451 147.455 273.31 147.314 273.135 147.314Z" fill="#E6E6E6"/>
<path d="M278.216 147.314H276.307C276.133 147.314 275.991 147.455 275.991 147.63V148.522C275.991 148.697 276.133 148.838 276.307 148.838H278.216C278.39 148.838 278.531 148.697 278.531 148.522V147.63C278.531 147.455 278.39 147.314 278.216 147.314Z" fill="#E6E6E6"/>
<path d="M283.296 147.314H281.387C281.213 147.314 281.072 147.455 281.072 147.63V148.522C281.072 148.697 281.213 148.838 281.387 148.838H283.296C283.471 148.838 283.612 148.697 283.612 148.522V147.63C283.612 147.455 283.471 147.314 283.296 147.314Z" fill="#E6E6E6"/>
<path d="M288.377 147.314H286.468C286.294 147.314 286.152 147.455 286.152 147.63V148.522C286.152 148.697 286.294 148.838 286.468 148.838H288.377C288.551 148.838 288.693 148.697 288.693 148.522V147.63C288.693 147.455 288.551 147.314 288.377 147.314Z" fill="#E6E6E6"/>
<path d="M293.457 147.314H291.548C291.374 147.314 291.232 147.455 291.232 147.63V148.522C291.232 148.697 291.374 148.838 291.548 148.838H293.457C293.631 148.838 293.773 148.697 293.773 148.522V147.63C293.773 147.455 293.631 147.314 293.457 147.314Z" fill="#E6E6E6"/>
<path d="M298.538 147.314H296.629C296.454 147.314 296.313 147.455 296.313 147.63V148.522C296.313 148.697 296.454 148.838 296.629 148.838H298.538C298.712 148.838 298.853 148.697 298.853 148.522V147.63C298.853 147.455 298.712 147.314 298.538 147.314Z" fill="#E6E6E6"/>
<path d="M303.618 147.314H301.709C301.535 147.314 301.394 147.455 301.394 147.63V148.522C301.394 148.697 301.535 148.838 301.709 148.838H303.618C303.792 148.838 303.934 148.697 303.934 148.522V147.63C303.934 147.455 303.792 147.314 303.618 147.314Z" fill="#E6E6E6"/>
<path d="M227.351 149.854H225.442C225.268 149.854 225.126 149.996 225.126 150.17V151.063C225.126 151.237 225.268 151.379 225.442 151.379H227.351C227.525 151.379 227.667 151.237 227.667 151.063V150.17C227.667 149.996 227.525 149.854 227.351 149.854Z" fill="#E6E6E6"/>
<path d="M232.431 149.854H230.522C230.348 149.854 230.207 149.996 230.207 150.17V151.063C230.207 151.237 230.348 151.379 230.522 151.379H232.431C232.605 151.379 232.747 151.237 232.747 151.063V150.17C232.747 149.996 232.605 149.854 232.431 149.854Z" fill="#E6E6E6"/>
<path d="M237.512 149.854H235.603C235.428 149.854 235.287 149.996 235.287 150.17V151.063C235.287 151.237 235.428 151.379 235.603 151.379H237.512C237.686 151.379 237.827 151.237 237.827 151.063V150.17C237.827 149.996 237.686 149.854 237.512 149.854Z" fill="#E6E6E6"/>
<path d="M242.592 149.854H240.683C240.509 149.854 240.368 149.996 240.368 150.17V151.063C240.368 151.237 240.509 151.379 240.683 151.379H242.592C242.767 151.379 242.908 151.237 242.908 151.063V150.17C242.908 149.996 242.767 149.854 242.592 149.854Z" fill="#E6E6E6"/>
<path d="M247.673 149.854H245.764C245.59 149.854 245.448 149.996 245.448 150.17V151.063C245.448 151.237 245.59 151.379 245.764 151.379H247.673C247.847 151.379 247.988 151.237 247.988 151.063V150.17C247.988 149.996 247.847 149.854 247.673 149.854Z" fill="#E6E6E6"/>
<path d="M252.753 149.854H250.845C250.67 149.854 250.529 149.996 250.529 150.17V151.063C250.529 151.237 250.67 151.379 250.845 151.379H252.753C252.928 151.379 253.069 151.237 253.069 151.063V150.17C253.069 149.996 252.928 149.854 252.753 149.854Z" fill="#E6E6E6"/>
<path d="M257.834 149.854H255.925C255.751 149.854 255.609 149.996 255.609 150.17V151.063C255.609 151.237 255.751 151.379 255.925 151.379H257.834C258.008 151.379 258.15 151.237 258.15 151.063V150.17C258.15 149.996 258.008 149.854 257.834 149.854Z" fill="#E6E6E6"/>
<path d="M262.914 149.854H261.005C260.831 149.854 260.689 149.996 260.689 150.17V151.063C260.689 151.237 260.831 151.379 261.005 151.379H262.914C263.088 151.379 263.23 151.237 263.23 151.063V150.17C263.23 149.996 263.088 149.854 262.914 149.854Z" fill="#E6E6E6"/>
<path d="M267.995 149.854H266.086C265.911 149.854 265.77 149.996 265.77 150.17V151.063C265.77 151.237 265.911 151.379 266.086 151.379H267.995C268.169 151.379 268.31 151.237 268.31 151.063V150.17C268.31 149.996 268.169 149.854 267.995 149.854Z" fill="#E6E6E6"/>
<path d="M273.075 149.854H271.166C270.992 149.854 270.851 149.996 270.851 150.17V151.063C270.851 151.237 270.992 151.379 271.166 151.379H273.075C273.25 151.379 273.391 151.237 273.391 151.063V150.17C273.391 149.996 273.25 149.854 273.075 149.854Z" fill="#E6E6E6"/>
<path d="M278.156 149.854H276.247C276.072 149.854 275.931 149.996 275.931 150.17V151.063C275.931 151.237 276.072 151.379 276.247 151.379H278.156C278.33 151.379 278.471 151.237 278.471 151.063V150.17C278.471 149.996 278.33 149.854 278.156 149.854Z" fill="#E6E6E6"/>
<path d="M283.236 149.854H281.327C281.153 149.854 281.012 149.996 281.012 150.17V151.063C281.012 151.237 281.153 151.379 281.327 151.379H283.236C283.411 151.379 283.552 151.237 283.552 151.063V150.17C283.552 149.996 283.411 149.854 283.236 149.854Z" fill="#E6E6E6"/>
<path d="M288.317 149.854H286.408C286.234 149.854 286.092 149.996 286.092 150.17V151.063C286.092 151.237 286.234 151.379 286.408 151.379H288.317C288.491 151.379 288.633 151.237 288.633 151.063V150.17C288.633 149.996 288.491 149.854 288.317 149.854Z" fill="#E6E6E6"/>
<path d="M293.397 149.854H291.489C291.314 149.854 291.173 149.996 291.173 150.17V151.063C291.173 151.237 291.314 151.379 291.489 151.379H293.397C293.572 151.379 293.713 151.237 293.713 151.063V150.17C293.713 149.996 293.572 149.854 293.397 149.854Z" fill="#E6E6E6"/>
<path d="M298.477 149.854H296.569C296.394 149.854 296.253 149.996 296.253 150.17V151.063C296.253 151.237 296.394 151.379 296.569 151.379H298.477C298.652 151.379 298.793 151.237 298.793 151.063V150.17C298.793 149.996 298.652 149.854 298.477 149.854Z" fill="#E6E6E6"/>
<path d="M303.558 149.854H301.649C301.475 149.854 301.333 149.996 301.333 150.17V151.063C301.333 151.237 301.475 151.379 301.649 151.379H303.558C303.732 151.379 303.874 151.237 303.874 151.063V150.17C303.874 149.996 303.732 149.854 303.558 149.854Z" fill="#E6E6E6"/>
<path d="M269.519 152.903H249.828C249.654 152.903 249.513 153.044 249.513 153.219V154.111C249.513 154.286 249.654 154.427 249.828 154.427H269.519C269.693 154.427 269.835 154.286 269.835 154.111V153.219C269.835 153.044 269.693 152.903 269.519 152.903Z" fill="#E6E6E6"/>
<path d="M325.833 30.1437H196.116C195.832 30.1375 195.606 29.9014 195.612 29.6165C195.618 29.3404 195.84 29.1181 196.116 29.112H325.833C326.118 29.1183 326.344 29.3543 326.338 29.6392C326.332 29.9153 326.109 30.1377 325.833 30.1437Z" fill="#CACACA"/>
<path d="M204.946 26.4781C206.616 26.4781 207.97 25.0944 207.97 23.3875C207.97 21.6806 206.616 20.2969 204.946 20.2969C203.277 20.2969 201.923 21.6806 201.923 23.3875C201.923 25.0944 203.277 26.4781 204.946 26.4781Z" fill="#CCCCCC"/>
<path d="M215.39 26.4781C217.06 26.4781 218.413 25.0944 218.413 23.3875C218.413 21.6806 217.06 20.2969 215.39 20.2969C213.721 20.2969 212.367 21.6806 212.367 23.3875C212.367 25.0944 213.721 26.4781 215.39 26.4781Z" fill="#CCCCCC"/>
<path d="M225.834 26.4781C227.503 26.4781 228.857 25.0944 228.857 23.3875C228.857 21.6806 227.503 20.2969 225.834 20.2969C224.164 20.2969 222.811 21.6806 222.811 23.3875C222.811 25.0944 224.164 26.4781 225.834 26.4781Z" fill="#CCCCCC"/>
<path d="M260.842 37.9656L260.423 36.7415L314.003 8.90131L314.421 10.1254L260.842 37.9656Z" fill="#3F3D56"/>
<path d="M422.502 89.5319L422.083 88.3078L454.323 60.6086L454.742 61.8321L422.502 89.5319Z" fill="#3F3D56"/>
<path d="M360.56 95.9798L306.981 68.1396L307.4 66.9155L360.979 94.7556L360.56 95.9798Z" fill="#3F3D56"/>
<path d="M387.988 76.607L356.577 25.0382L357.57 24.2085L388.98 75.7774L387.988 76.607Z" fill="#3F3D56"/>
<path d="M412.5 9.41153L381.91 9.27056V7.97723L412.5 8.11821V9.41153Z" fill="#3F3D56"/>
<path d="M467.915 17.4337H433.644C429.001 17.4337 425.237 13.67 425.237 9.02711C425.237 4.38426 429.001 0.620483 433.644 0.620483H467.915C472.558 0.620483 476.322 4.38426 476.322 9.02711C476.322 13.67 472.558 17.4337 467.915 17.4337Z" fill="#2A86D2"/>
<path d="M510.594 66.5802H476.322C471.679 66.5802 467.916 62.8164 467.916 58.1735C467.916 53.5307 471.679 49.7669 476.322 49.7669H510.594C515.236 49.7669 519 53.5307 519 58.1735C519 62.8164 515.236 66.5802 510.594 66.5802Z" fill="#2A86D2"/>
<path d="M455.178 101.237L424.588 101.097V99.8035L455.178 99.9439V101.237Z" fill="#3F3D56"/>
<path d="M510.594 109.26H476.322C471.679 109.26 467.916 105.496 467.916 100.853C467.916 96.2105 471.679 92.4467 476.322 92.4467H510.594C515.236 92.4467 519 96.2105 519 100.853C519 105.496 515.236 109.26 510.594 109.26Z" fill="#2A86D2"/>
<path d="M410.365 103.466H376.093C371.45 103.466 367.687 99.7024 367.687 95.0596C367.687 90.4167 371.45 86.653 376.093 86.653H410.365C415.007 86.653 418.771 90.4167 418.771 95.0596C418.771 99.7024 415.007 103.466 410.365 103.466Z" fill="#2A86D2"/>
<path d="M363.807 16.8133H329.535C324.892 16.8133 321.128 13.0495 321.128 8.40663C321.128 3.76378 324.892 0 329.535 0H363.807C368.449 0 372.213 3.76378 372.213 8.40663C372.213 13.0495 368.449 16.8133 363.807 16.8133Z" fill="#2A86D2"/>
<path d="M199.994 161.136H161.196C158.339 161.136 156.023 163.452 156.023 166.309C156.023 169.166 158.339 171.482 161.196 171.482H175.422V211.576H185.768V171.482H199.994C202.851 171.482 205.168 169.166 205.168 166.309C205.168 163.452 202.851 161.136 199.994 161.136Z" fill="#3F3D56"/>
<path d="M225.602 233.78H121.827C101.032 233.704 83.4387 218.389 80.4964 197.802L76.8231 184.29C69.2199 156.289 57.6389 129.524 42.4339 104.813C35.4843 93.5262 31.9073 82.6008 40.0318 72.0819C40.1009 71.9923 40.169 71.904 40.2358 71.8169C46.7521 63.3352 79.1858 61.4991 89.759 61.1419C90.1767 61.1277 90.596 61.1207 91.0169 61.1208H155.564C155.985 61.1208 156.404 61.1279 156.821 61.1419C168.434 61.4805 178.923 68.1665 184.133 78.5507C189.692 89.1526 188.983 101.951 182.286 111.873C159.613 145.934 152.671 167.291 159.778 181.121C166.653 194.499 187.726 201.339 226.096 202.645C236.408 202.997 241.14 211.026 241.173 218.338C241.206 225.461 236.656 233.325 226.59 233.759C226.263 233.773 225.933 233.78 225.602 233.78Z" fill="#3F3D56"/>
<path d="M139.456 325.93H178.255C181.112 325.93 183.428 323.613 183.428 320.756C183.428 317.899 181.112 315.583 178.255 315.583H164.029V228.283H153.682V315.583H139.456C136.599 315.583 134.283 317.899 134.283 320.756C134.283 323.613 136.599 325.93 139.456 325.93Z" fill="#3F3D56"/>
<path d="M191.46 44.022C192.059 48.1266 189.217 51.9394 185.112 52.5381C184.675 52.6019 184.232 52.6269 183.79 52.6129L158.021 107.447L149.938 96.1758L176.466 44.3256C176.874 40.1751 180.569 37.1408 184.719 37.5484C188.192 37.8895 190.979 40.5658 191.46 44.022Z" fill="#D3A1A8"/>
<path d="M105.942 118.534C105.942 118.534 105.251 128.113 116.085 129.992C126.918 131.871 155.878 113.557 160.634 110.745C165.391 107.933 174.254 72.5528 174.254 72.5528L166.546 59.5148C157.029 71.5537 149.555 82.6551 149.101 90.5353L105.942 118.534Z" fill="#2A86D2"/>
<path d="M237.882 313.677L245.163 308.467L228.669 276.437L217.923 284.127L237.882 313.677Z" fill="#D3A1A8"/>
<path d="M142.916 200.076C139.098 198.455 137.317 194.046 138.937 190.228C139.11 189.821 139.319 189.429 139.56 189.059L106.094 138.554L119.923 137.502L150.446 187.106C153.781 189.61 154.454 194.344 151.95 197.678C149.854 200.469 146.12 201.46 142.916 200.076Z" fill="#A0616A"/>
<path d="M115.827 101.404C115.827 101.404 108 95.8375 100.767 104.119C93.5345 112.4 94.1384 146.66 94.0704 152.186C94.0492 153.916 96.5474 157.649 99.9892 161.961C101.534 163.897 103.27 165.949 105.053 167.99C106.085 169.171 105.196 171.628 106.232 172.776C107.262 173.917 110.218 173.749 111.198 174.808C115.85 179.836 119.629 183.664 119.629 183.664L134.773 183.85C134.944 172.591 127.235 162.542 117.33 152.829L115.827 101.404Z" fill="#2A86D2"/>
<path d="M284.487 327.801L0.77396 328C0.348737 328.002 0.00222867 327.659 1.0699e-05 327.234C-0.00220727 326.809 0.340706 326.462 0.765929 326.46H0.77396L284.487 326.261C284.912 326.263 285.256 326.609 285.254 327.034C285.253 327.457 284.91 327.8 284.487 327.801Z" fill="#CACACA"/>
<path d="M473.952 327.801L327.327 328C326.901 328.002 326.555 327.659 326.553 327.234C326.551 326.809 326.893 326.462 327.319 326.46H327.327L473.952 326.261C474.377 326.26 474.723 326.604 474.725 327.029C474.726 327.454 474.382 327.8 473.957 327.801H473.952Z" fill="#CACACA"/>
<path d="M290.971 95.7062H235.39C230.563 95.7008 226.651 91.7887 226.646 86.9611V50.1316C226.651 45.304 230.563 41.3918 235.39 41.3865H290.971C295.798 41.3918 299.71 45.304 299.716 50.1316V86.9611C299.71 91.7887 295.798 95.7009 290.971 95.7062ZM235.39 42.6798C231.277 42.6845 227.943 46.018 227.939 50.1316V86.9611C227.943 91.0747 231.277 94.4082 235.39 94.4129H290.971C295.084 94.4082 298.418 91.0747 298.422 86.9611V50.1316C298.418 46.018 295.084 42.6845 290.971 42.6798L235.39 42.6798Z" fill="#E6E6E6"/>
<path d="M251.859 53.0264H236.992V54.3198H251.859V53.0264Z" fill="#E6E6E6"/>
<path d="M269.97 58.1998H236.992V59.4931H269.97V58.1998Z" fill="#E6E6E6"/>
<path d="M269.97 62.7264H236.992V64.0197H269.97V62.7264Z" fill="#E6E6E6"/>
<path d="M279.023 67.2531H236.992V68.5464H279.023V67.2531Z" fill="#E6E6E6"/>
<path d="M258.977 71.7797H236.992V73.073H258.977V71.7797Z" fill="#E6E6E6"/>
<path d="M277.083 76.3063H236.992V77.5997H277.083V76.3063Z" fill="#E6E6E6"/>
<path d="M244.105 80.833H236.992V82.1263H244.105V80.833Z" fill="#E6E6E6"/>
<path d="M236.508 25.193C236.445 25.193 236.382 25.1686 236.335 25.1202L234.955 23.7097C234.863 23.6158 234.863 23.4656 234.955 23.3716L236.335 21.9612C236.429 21.8658 236.582 21.8643 236.677 21.9574C236.772 22.0508 236.774 22.204 236.681 22.2994L235.466 23.5407L236.681 24.7821C236.774 24.8775 236.772 25.0306 236.677 25.124C236.63 25.1701 236.569 25.193 236.508 25.193Z" fill="#CCCCCC"/>
<path d="M238.826 25.193C238.765 25.193 238.704 25.1701 238.657 25.124C238.562 25.0306 238.56 24.8776 238.653 24.7821L239.868 23.5407L238.653 22.2994C238.56 22.204 238.562 22.0508 238.657 21.9574C238.753 21.8639 238.906 21.8657 238.999 21.9612L240.379 23.3716C240.471 23.4656 240.471 23.6158 240.379 23.7097L238.999 25.1202C238.952 25.1686 238.889 25.193 238.826 25.193Z" fill="#CCCCCC"/>
<path d="M311.006 21.6923H308.441C308.148 21.6923 307.911 21.9292 307.911 22.2218V24.7899C307.911 25.0824 308.148 25.3194 308.441 25.3194H311.006C311.299 25.3194 311.538 25.0824 311.538 24.7899V22.2218C311.538 21.9292 311.299 21.6923 311.006 21.6923Z" fill="#CCCCCC"/>
<path d="M304.719 21.6923H302.154C301.861 21.6923 301.624 21.9292 301.624 22.2218V24.7899C301.624 25.0824 301.861 25.3194 302.154 25.3194H304.719C305.012 25.3194 305.251 25.0824 305.251 24.7899V22.2218C305.251 21.9292 305.012 21.6923 304.719 21.6923Z" fill="#CCCCCC"/>
<path d="M316.93 21.8132H314.364C314.072 21.8132 313.835 22.0501 313.835 22.3427V24.9108C313.835 25.2034 314.072 25.4403 314.364 25.4403H316.93C317.223 25.4403 317.462 25.2034 317.462 24.9108V22.3427C317.462 22.0501 317.223 21.8132 316.93 21.8132Z" fill="#CCCCCC"/>
<path d="M278.261 22.7901H257.754C257.396 22.7901 257.108 23.0803 257.108 23.4357C257.108 23.7912 257.396 24.0814 257.754 24.0814H278.261C278.617 24.0814 278.907 23.7912 278.907 23.4357C278.907 23.0803 278.617 22.7901 278.261 22.7901Z" fill="#CCCCCC"/>
<path d="M114.462 84.3498C124.644 85.8621 134.125 78.8422 135.639 68.6704C137.153 58.4987 130.126 49.0268 119.944 47.5145C109.763 46.0022 100.282 53.0221 98.7679 63.1939C97.2541 73.3657 104.281 82.8375 114.462 84.3498Z" fill="#D3A1A8"/>
<path d="M118.879 69.8955C119.973 67.4458 119.216 66.3815 120.299 65.37C120.299 65.37 120.735 64.963 124.206 64.2052C124.075 58.4286 124.942 57.584 124.942 57.584C125.942 56.6105 127.657 56.594 128.776 56.907C131.143 57.569 131.245 59.8167 132.796 59.997C134.939 60.246 138.132 56.3506 137.89 52.5272C137.692 49.4083 135.234 46.7489 134.477 47.0344C133.725 47.3176 131.48 45.2435 130.482 45.444C129.801 45.5809 126.801 44.8186 126.063 45.0369C125.257 45.2753 122.772 47.1364 122.607 46.8308C121.456 44.7073 121.586 44.0449 120.815 43.5095C119.448 42.5609 117.644 43.6711 114.681 44.5927C108.583 46.4887 107.161 44.6061 104.189 46.5243C102.688 47.4933 101.644 49.6162 99.6186 53.8225C96.7855 59.705 95.3689 62.6463 95.8558 65.7279C96.3523 68.8705 97.8387 68.4233 99.2587 72.964C100.839 78.0185 99.6449 80.6425 101.641 82.0428C103.183 83.125 105.941 82.9917 107.179 81.619C109.299 79.2689 105.348 75.077 107.486 71.1946C108.799 68.8115 111.974 67.3283 113.667 68.1242C115.582 69.0241 115.194 72.6457 116.459 72.7767C117.543 72.8889 118.689 70.3223 118.879 69.8955Z" fill="#2F2E41"/>
<path d="M234.976 286.888L225.196 295.63C209.646 278.302 197.89 254.001 187.928 226.403C161.826 218.758 142.142 206.429 124.957 191.789C119.128 186.856 114.757 180.519 119.729 174.51C119.962 174.229 120.204 173.957 120.457 173.695C126.328 167.662 141.215 168.811 149.934 163.284L169.412 184.104L168.187 189.686L204.772 202.079C212.137 204.66 216.015 212.723 213.433 220.088C213.421 220.125 213.408 220.161 213.395 220.197C213.258 220.593 213.104 220.984 212.934 221.368L234.976 286.888Z" fill="#2F2E41"/>
<path d="M240.148 305.147C241.201 304.702 242.432 304.183 242.828 302.988C243.096 302.18 242.942 301.183 242.388 300.494C241.749 299.7 240.803 299.595 240.841 299.454C240.899 299.24 243.137 299.324 245.593 300.14C246.056 300.294 248.156 301.015 250.826 302.974C252.966 304.544 252.678 304.859 254.02 305.764C258.139 308.543 262.002 306.353 264.231 308.958C265.091 309.964 265.458 311.392 265.096 312.546C264.369 314.865 260.834 315.663 258.902 316.075C254.249 317.067 250.727 316.257 247.049 315.675C234.542 313.694 227.515 315.498 226.574 312.775C226.396 312.26 226.686 312.304 227.65 308.522C228.602 304.789 228.571 303.764 229.381 303.465C230.601 303.015 231.421 305.062 234.494 305.762C237.218 306.383 239.466 305.435 240.148 305.147Z" fill="#2F2E41"/>
<path d="M235.127 262.918L231.07 239.197L219.356 241.818L220.406 262.541L229.463 270.707L235.127 262.918Z" fill="#D3A1A8"/>
<path d="M158.424 173.31C159.102 173.929 177.65 180.87 180.647 181.188C182.692 181.404 195.18 184.293 195.701 184.052C202.152 184.998 213.709 182.151 225.046 190.098C227.614 191.898 229.061 193.488 230.026 195.516C231.395 198.393 231.167 200.833 231.34 207.091C231.435 210.514 231.766 213.925 231.888 217.347C232.599 237.383 235.273 240.967 232.371 244.986C229.151 249.445 221.929 250.474 219.236 247.645C218.132 246.487 218.237 245.152 217.768 241.927C216.394 232.472 213.762 232.002 212.97 224.96C212.045 216.738 215.126 212.877 213.133 211.106C211.286 209.464 208.281 212.468 201.244 214.12C198.025 214.876 196.068 214.854 190.023 214.925C166.485 215.198 165.7 215.885 161.87 214.407C160.194 213.76 148.299 209.167 147.695 201.469C146.751 189.423 152.316 167.728 158.424 173.31Z" fill="#2F2E41"/>
<path d="M229.068 262.511C230.38 262.749 231.915 263.028 233.118 262.04C233.932 261.372 234.472 260.224 234.418 259.131C234.356 257.87 233.524 257.128 233.657 257.006C233.861 256.821 235.941 258.404 237.724 260.902C238.061 261.373 239.569 263.533 240.769 267.373C241.731 270.45 241.238 270.588 241.896 272.434C243.914 278.101 249.116 278.389 249.448 282.611C249.576 284.241 248.941 285.983 247.798 286.951C245.504 288.896 241.576 287.369 239.446 286.509C234.315 284.438 231.509 281.234 228.397 278.164C217.814 267.725 209.855 264.917 210.836 261.433C211.021 260.774 211.267 261.013 214.798 257.693C218.283 254.416 218.96 253.32 219.941 253.549C221.417 253.893 220.788 256.587 223.241 259.376C225.415 261.848 228.217 262.357 229.068 262.511Z" fill="#373550"/>
<path d="M118.448 151.531L120.788 161.584C120.788 161.584 120.811 170.854 122.453 172.563C124.083 174.264 159.929 170.849 159.929 170.849C159.929 170.849 156.128 155.911 156.179 144.608L118.448 151.531Z" fill="#D3A1A8"/>
<path d="M113.239 87.8844L128.022 87.0115C129.3 86.936 130.485 87.6795 130.973 88.863L135.151 98.9908L152.513 113.342C152.513 113.342 159.388 122.09 159.404 133.388C159.42 144.686 161.842 170.836 161.842 170.836C161.842 170.836 151.81 156.714 145.618 160.47C144.564 161.109 144.193 162.415 143.09 163.076C142.539 163.405 141.268 163.085 140.712 163.415C132.179 168.481 123.28 173.43 122.448 172.562C120.816 170.858 118.835 162.152 118.835 162.152L105.304 112.432C103.818 107.135 104.779 101.451 107.922 96.9367C108.868 95.6057 109.858 94.6155 110.779 94.4517C112.845 94.0116 111.746 89.3793 113.239 87.8844Z" fill="#2A86D2"/>
<path d="M141.15 163.723H102.352C99.4948 163.723 97.1787 166.039 97.1787 168.896C97.1787 171.753 99.4948 174.069 102.352 174.069H116.578V214.162H126.924V174.069H141.15C144.007 174.069 146.323 171.753 146.323 168.896C146.323 166.039 144.007 163.723 141.15 163.723Z" fill="#3F3D56"/>
</g>
<defs>
<clipPath id="clip0_17_937">
<rect width="519" height="328" fill="white"/>
</clipPath>
</defs>
</svg>
