<svg width="80" height="57" viewBox="0 0 80 57" fill="none" xmlns="http://www.w3.org/2000/svg">
<g clip-path="url(#clip0_28_2094)">
<path d="M75 -0.123047H5C3.67392 -0.123047 2.40215 0.403737 1.46447 1.34142C0.526784 2.2791 0 3.55087 0 4.87695L0 51.5436C0 52.8697 0.526784 54.1415 1.46447 55.0792C2.40215 56.0168 3.67392 56.5436 5 56.5436H75C76.3261 56.5436 77.5978 56.0168 78.5355 55.0792C79.4732 54.1415 80 52.8697 80 51.5436V4.87695C80 3.55087 79.4732 2.2791 78.5355 1.34142C77.5978 0.403737 76.3261 -0.123047 75 -0.123047ZM73.9333 3.21029L40 29.4436L6.06667 3.21029H73.9333ZM3.33333 50.8603V5.31029L29.0167 25.1603L3.33333 50.8603ZM5.68333 53.2103L31.6667 27.227L38.9667 32.8769C39.2581 33.1013 39.6156 33.2229 39.9833 33.2229C40.3511 33.2229 40.7086 33.1013 41 32.8769L48.3333 27.227L74.3167 53.2103H5.68333ZM76.6667 50.8603L50.9833 25.1603L76.6667 5.31029V50.8603Z" fill="black"/>
</g>
<defs>
<clipPath id="clip0_28_2094">
<rect width="80" height="56.4211" fill="white"/>
</clipPath>
</defs>
</svg>
