<svg width="289" height="347" viewBox="0 0 289 347" fill="none" xmlns="http://www.w3.org/2000/svg">
<g clip-path="url(#clip0_26_1339)">
<rect width="288" height="346" transform="translate(0.201172 0.338135)" fill="transparent"/>
<path d="M2.25988 165.825C3.31809 167.587 4.75092 169.097 6.45745 170.247C8.16398 171.398 10.1027 172.161 12.137 172.484C14.1714 172.806 16.2519 172.68 18.2319 172.113C20.212 171.547 22.0436 170.555 23.5975 169.207L67.032 194.049L65.4132 168.152L24.4153 148.532C21.9707 146.078 18.7087 144.605 15.2474 144.39C11.786 144.175 8.36584 145.233 5.6349 147.365C2.90396 149.497 1.052 152.553 0.429966 155.955C-0.19207 159.358 0.459028 162.869 2.25988 165.825Z" fill="#FFB8B8"/>
<path d="M128.007 265.342C115.123 283.325 115.584 313.41 119.179 346.338H180.095L182.744 340.175L186.275 346.338H243.66C243.66 346.338 239.246 262.701 231.3 260.06C223.355 257.418 128.007 265.342 128.007 265.342Z" fill="#2F2E41"/>
<path d="M180.095 77.4594C197.16 77.4594 210.995 63.6636 210.995 46.6456C210.995 29.6276 197.16 15.8318 180.095 15.8318C163.03 15.8318 149.195 29.6276 149.195 46.6456C149.195 63.6636 163.03 77.4594 180.095 77.4594Z" fill="#FFB8B8"/>
<path d="M202.428 85.4539L208.471 97.0033L250.265 115.583L239.279 221.605L234.655 232.584L237.154 242.118L231.13 249.155C237.176 254.61 237.944 260.321 234.655 266.228L215.409 270.624C215.409 270.624 108.394 280.114 117.413 263.581C127.267 245.517 129.776 192.168 108.022 163.659C89.5532 139.456 103.732 108.051 103.732 108.051L147.541 94.9947L163.655 85.4539L202.428 85.4539Z" fill="#F9B06C"/>
<path d="M193.813 1.50821C193.958 1.20183 194.192 0.945738 194.484 0.772804C194.776 0.59987 195.114 0.517992 195.453 0.53769C181.307 -0.306157 166.406 1.33807 154.571 9.11204C151.704 10.9954 149.001 13.2419 145.881 14.6081C145.733 14.6741 145.606 14.7769 145.51 14.9067C145.414 15.0364 145.354 15.1885 145.335 15.3484C145.316 15.5082 145.338 15.6703 145.4 15.8189C145.462 15.9675 145.562 16.0975 145.689 16.1964L146.032 16.4644C146.167 16.5701 146.271 16.7108 146.331 16.8711C146.392 17.0315 146.407 17.2053 146.376 17.3737C146.344 17.5421 146.267 17.6987 146.153 17.8264C146.038 17.9542 145.891 18.0481 145.726 18.0981C145.555 18.1501 145.402 18.25 145.286 18.3858C145.169 18.5216 145.094 18.6877 145.07 18.8646C145.045 19.0415 145.071 19.2218 145.146 19.3842C145.22 19.5466 145.34 19.6844 145.49 19.7814L148.116 21.474C148.249 21.5577 148.358 21.6732 148.433 21.8099C148.509 21.9467 148.55 22.1002 148.55 22.2564C148.551 22.4127 148.513 22.5666 148.438 22.7041C148.364 22.8417 148.256 22.9584 148.125 23.0436C147.902 23.1805 147.669 23.2987 147.427 23.3967C147.276 23.4531 147.142 23.5474 147.039 23.6703C146.935 23.7932 146.865 23.9407 146.835 24.0986C146.805 24.2564 146.817 24.4192 146.868 24.5713C146.92 24.7235 147.01 24.8598 147.129 24.9671C148.267 25.9767 149.139 27.2484 149.67 28.6713C150.546 30.9409 150.703 33.4127 150.851 35.8399C151.755 32.3377 155.588 30.2762 159.209 30.0667C162.829 29.8572 166.36 31.0485 169.883 31.9048C177.558 33.7645 185.528 34.0703 193.323 32.804C190.676 38.101 192.908 44.4193 195.155 49.897L202.428 46.7884C212.416 41.1659 205.459 64.9501 201.725 68.2152C209.349 70.8512 229.305 41.5944 222.885 30.4966C219.546 24.7237 221.916 17.278 215.351 11.8028C212.133 8.42478 205.708 9.9262 202.428 7.11865C201.137 6.01364 203.105 3.05736 201.331 2.41309C200.741 2.1991 193.911 1.29253 193.813 1.50821Z" fill="#2F2E41"/>
<path d="M141.473 97.9775C135.803 123.08 121.261 181.691 106.507 193.948C105.571 194.829 104.449 195.49 103.224 195.882C51.3632 208.481 34.7461 176.343 34.7461 176.343C34.7461 176.343 48.6441 169.589 48.9965 156.388L77.0241 165.06L101.456 110.23L105.052 106.886L105.072 106.866L141.473 97.9775Z" fill="#F9B06C"/>
<path d="M252.049 329.786C253.534 328.363 254.688 326.632 255.429 324.715C256.171 322.799 256.482 320.744 256.341 318.694C256.2 316.645 255.61 314.652 254.613 312.854C253.616 311.057 252.235 309.499 250.569 308.291L265.108 260.51L240.163 267.89L230.181 312.132C228.332 315.058 227.623 318.559 228.189 321.971C228.755 325.383 230.556 328.469 233.252 330.645C235.947 332.821 239.35 333.936 242.814 333.778C246.278 333.619 249.564 332.199 252.049 329.786Z" fill="#FFB8B8"/>
<path d="M238.743 112.91L250.266 115.583C250.266 115.583 297.893 207.992 286.416 225.6C274.939 243.208 260.879 301.503 260.879 301.503C260.879 301.503 240.083 297.381 232.138 286.816L246.688 217.677L231.68 159.571L238.743 112.91Z" fill="#F9B06C"/>
<path d="M20.1319 250.135L20.5456 101.304C20.5574 98.2916 21.7669 95.4069 23.9089 93.2828C26.0508 91.1586 28.9501 89.9685 31.9709 89.9734L144.685 90.285C147.706 90.2968 150.598 91.503 152.728 93.6389C154.858 95.7749 156.052 98.6662 156.047 101.679L155.633 250.51C155.621 253.522 154.412 256.407 152.27 258.531C150.128 260.655 147.229 261.845 144.208 261.84L31.4939 261.529C28.4732 261.517 25.5805 260.311 23.4504 258.175C21.3204 256.039 20.1269 253.148 20.1319 250.135Z" fill="#E6E6E6"/>
<path d="M28.9024 205.206L29.1684 109.523C29.1794 106.702 30.3121 104.001 32.3181 102.011C34.3241 100.022 37.0395 98.9074 39.8685 98.9121L136.737 99.1799C139.566 99.1909 142.275 100.32 144.27 102.321C146.265 104.321 147.383 107.029 147.378 109.85L147.01 242.29C146.999 245.111 145.866 247.813 143.86 249.802C141.854 251.791 139.138 252.906 136.309 252.901L76.3015 252.735C63.7 252.686 51.6326 247.655 42.7466 238.744C33.8606 229.834 28.8818 217.772 28.9024 205.206Z" fill="white"/>
<path d="M125.638 140.942H50.1052C48.9032 140.942 47.7505 140.465 46.9006 139.618C46.0507 138.77 45.5732 137.621 45.5732 136.422C45.5732 135.224 46.0507 134.074 46.9006 133.227C47.7505 132.379 48.9032 131.903 50.1052 131.903H125.638C126.84 131.903 127.992 132.379 128.842 133.227C129.692 134.074 130.17 135.224 130.17 136.422C130.17 137.621 129.692 138.77 128.842 139.618C127.992 140.465 126.84 140.942 125.638 140.942Z" fill="#2A86D2"/>
<path d="M66.7223 120.102H50.1052C48.9032 120.102 47.7505 119.626 46.9006 118.778C46.0507 117.931 45.5732 116.781 45.5732 115.583C45.5732 114.384 46.0507 113.235 46.9006 112.387C47.7505 111.54 48.9032 111.063 50.1052 111.063H66.7223C67.9243 111.063 69.077 111.54 69.9269 112.387C70.7768 113.235 71.2543 114.384 71.2543 115.583C71.2543 116.781 70.7768 117.931 69.9269 118.778C69.077 119.626 67.9243 120.102 66.7223 120.102Z" fill="#2A86D2"/>
<path d="M125.638 161.781H50.1052C48.9032 161.781 47.7505 161.304 46.9006 160.457C46.0507 159.609 45.5732 158.46 45.5732 157.261C45.5732 156.063 46.0507 154.913 46.9006 154.066C47.7505 153.218 48.9032 152.742 50.1052 152.742H125.638C126.84 152.742 127.992 153.218 128.842 154.066C129.692 154.913 130.17 156.063 130.17 157.261C130.17 158.46 129.692 159.609 128.842 160.457C127.992 161.304 126.84 161.781 125.638 161.781Z" fill="#2A86D2"/>
<path d="M125.638 182.62H50.1052C48.9032 182.62 47.7505 182.144 46.9006 181.296C46.0507 180.449 45.5732 179.299 45.5732 178.1C45.5732 176.902 46.0507 175.752 46.9006 174.905C47.7505 174.057 48.9032 173.581 50.1052 173.581H125.638C126.84 173.581 127.992 174.057 128.842 174.905C129.692 175.752 130.17 176.902 130.17 178.1C130.17 179.299 129.692 180.449 128.842 181.296C127.992 182.144 126.84 182.62 125.638 182.62Z" fill="#2A86D2"/>
<path d="M119.526 237.53C129.485 237.53 137.558 229.479 137.558 219.548C137.558 209.616 129.485 201.565 119.526 201.565C109.567 201.565 101.493 209.616 101.493 219.548C101.493 229.479 109.567 237.53 119.526 237.53Z" fill="#2A86D2"/>
<path d="M117.065 228.907C116.754 228.907 116.447 228.834 116.168 228.695C115.89 228.557 115.648 228.355 115.461 228.106L110.541 221.565C110.383 221.355 110.268 221.116 110.202 220.861C110.136 220.607 110.122 220.342 110.159 220.081C110.196 219.821 110.284 219.571 110.418 219.344C110.553 219.118 110.73 218.921 110.941 218.763C111.152 218.605 111.392 218.49 111.647 218.425C111.903 218.36 112.169 218.346 112.429 218.383C112.69 218.42 112.941 218.509 113.168 218.643C113.395 218.777 113.593 218.954 113.751 219.165L116.969 223.444L125.236 211.079C125.381 210.86 125.569 210.671 125.788 210.524C126.007 210.377 126.253 210.275 126.512 210.223C126.77 210.171 127.037 210.17 127.296 210.221C127.555 210.272 127.801 210.373 128.021 210.519C128.24 210.665 128.429 210.853 128.576 211.072C128.722 211.29 128.824 211.536 128.876 211.794C128.927 212.052 128.927 212.318 128.875 212.576C128.823 212.834 128.721 213.08 128.574 213.298L118.735 228.016C118.557 228.282 118.317 228.502 118.036 228.657C117.756 228.812 117.442 228.897 117.121 228.906C117.103 228.906 117.084 228.907 117.065 228.907Z" fill="white"/>
<path d="M81.073 55.325C85.8008 55.325 89.6334 51.5031 89.6334 46.7885C89.6334 42.0739 85.8008 38.252 81.073 38.252C76.3453 38.252 72.5127 42.0739 72.5127 46.7885C72.5127 51.5031 76.3453 55.325 81.073 55.325Z" fill="#F2F2F2"/>
<path d="M49.8533 300.876C54.581 300.876 58.4136 297.054 58.4136 292.34C58.4136 287.625 54.581 283.803 49.8533 283.803C45.1256 283.803 41.293 287.625 41.293 292.34C41.293 297.054 45.1256 300.876 49.8533 300.876Z" fill="#F2F2F2"/>
<path d="M246.741 88.4669C251.469 88.4669 255.301 84.6449 255.301 79.9303C255.301 75.2157 251.469 71.3938 246.741 71.3938C242.013 71.3938 238.181 75.2157 238.181 79.9303C238.181 84.6449 242.013 88.4669 246.741 88.4669Z" fill="#F2F2F2"/>
</g>
<defs>
<clipPath id="clip0_26_1339">
<rect width="288" height="346" fill="white" transform="translate(0.201172 0.338135)"/>
</clipPath>
</defs>
</svg>
