<svg width="114" height="114" viewBox="0 0 114 114" fill="none" xmlns="http://www.w3.org/2000/svg">
<g clip-path="url(#clip0_18_1059)">
<path d="M58.02 74.4178C68.2391 74.4178 76.5233 66.1336 76.5233 55.9145C76.5233 45.6954 68.2391 37.4111 58.02 37.4111C47.8008 37.4111 39.5166 45.6954 39.5166 55.9145C39.5166 66.1336 47.8008 74.4178 58.02 74.4178Z" fill="#D3A1A8"/>
<path d="M47.3977 77.1541L46.5618 68.704L63.2549 65.5826L73.112 89.5826L55.9692 109.297L43.7549 85.2969L47.3977 77.1541Z" fill="#D3A1A8"/>
<path d="M46.2938 72.9337L49.9433 73.7583C49.9433 73.7583 47.0744 64.6609 48.0482 63.7923C49.022 62.9238 51.4082 64.2923 51.4082 64.2923L53.9158 67.1037L56.9702 63.9939C56.9702 63.9939 60.2863 59.8706 61.5846 58.7126C62.883 57.5545 60.7975 53.2561 60.7975 53.2561C60.7975 53.2561 80.06 48.062 72.8924 38.719C72.8924 38.719 68.6901 31.3937 67.3216 33.78C65.9531 36.1662 64.3212 32.3764 64.3212 32.3764L59.3383 33.324C59.3383 33.324 49.5038 27.5253 40.1697 39.9303C30.8356 52.3353 46.2938 72.9337 46.2938 72.9337Z" fill="#2F2E41"/>
<path d="M92.82 101.346C82.7079 109.545 70.1979 114 57 114C44.9486 114 33.4693 110.284 23.8672 103.397C23.8843 103.217 23.9015 103.039 23.9165 102.861C24.1715 100.076 24.3986 97.3672 24.5486 95.1214C25.1293 86.4022 45.4715 80.5907 45.4715 80.5907C45.4715 80.5907 45.5636 80.6829 45.7479 80.8436C46.8708 81.8293 51.4286 85.4036 59.4215 86.4022C66.5486 87.2936 68.895 83.0657 69.6043 81.0407C69.8186 80.4236 69.8829 80.01 69.8829 80.01L90.8058 89.8907C92.1708 91.8407 92.7043 96.0407 92.8093 100.761C92.8136 100.956 92.8179 101.149 92.82 101.346Z" fill="#D7BA85"/>
<path d="M97.305 16.695C86.5393 5.92928 72.225 0 57 0C41.775 0 27.4607 5.92928 16.695 16.695C5.92929 27.4607 0 41.775 0 57C0 70.8964 4.9393 84.0343 13.9907 94.4079C14.8543 95.4 15.7564 96.3664 16.695 97.305C16.9157 97.5257 17.1386 97.7464 17.3636 97.9607C17.9636 98.5414 18.5743 99.1093 19.1957 99.66C19.5729 99.9964 19.9543 100.326 20.34 100.65C20.6421 100.905 20.9443 101.156 21.2507 101.402C21.2571 101.409 21.2614 101.413 21.2679 101.417C22.1186 102.103 22.9843 102.763 23.8671 103.397C33.4693 110.284 44.9486 114 57 114C70.1979 114 82.7079 109.545 92.82 101.346C93.645 100.678 94.4529 99.9836 95.2457 99.2657C95.9464 98.6314 96.6321 97.9779 97.305 97.305C97.5172 97.0929 97.7293 96.8786 97.9371 96.6621C98.5157 96.0664 99.0772 95.46 99.6257 94.845C108.919 84.405 114 71.0936 114 57C114 41.775 108.071 27.4607 97.305 16.695ZM99.4864 94.3114C98.9507 94.92 98.4021 95.52 97.8407 96.105C96.9664 97.0157 96.0643 97.8986 95.1321 98.7493C94.7786 99.075 94.4207 99.3922 94.0586 99.7071C93.6471 100.065 93.2314 100.416 92.8093 100.761C89.4814 103.494 85.8364 105.851 81.9386 107.771C80.3979 108.531 78.8186 109.224 77.2029 109.843C70.9264 112.251 64.1143 113.571 57 113.571C50.1343 113.571 43.5514 112.341 37.4593 110.091C34.9586 109.17 32.5414 108.075 30.2207 106.821C29.88 106.637 29.5414 106.451 29.205 106.26C27.435 105.257 25.7229 104.162 24.0793 102.979C24.0257 102.941 23.97 102.9 23.9164 102.861C22.7464 102.017 21.6086 101.128 20.5093 100.194C20.1064 99.8529 19.7079 99.5079 19.3157 99.1543C18.6772 98.5864 18.0514 98.0014 17.4407 97.4014C16.2836 96.2679 15.1779 95.0871 14.1214 93.8593C5.59072 83.9507 0.428571 71.0679 0.428571 57C0.428571 25.8064 25.8064 0.428571 57 0.428571C88.1936 0.428571 113.571 25.8064 113.571 57C113.571 71.2843 108.251 84.3471 99.4864 94.3114Z" fill="#3F3D56"/>
</g>
<defs>
<clipPath id="clip0_18_1059">
<rect width="114" height="114" fill="white"/>
</clipPath>
</defs>
</svg>
