<svg width="370" height="269" viewBox="0 0 370 269" fill="none" xmlns="http://www.w3.org/2000/svg">
<g clip-path="url(#clip0_28_1767)">
<rect width="370" height="269" fill="white"/>
<path d="M215.524 47.4217C222.459 47.4217 228.08 41.8023 228.08 34.8705C228.08 27.9387 222.459 22.3193 215.524 22.3193C208.59 22.3193 202.968 27.9387 202.968 34.8705C202.968 41.8023 208.59 47.4217 215.524 47.4217Z" fill="#F2F2F2"/>
<path d="M312.925 233.695C331.588 219.486 340.502 195.608 334.922 172.83C334.783 172.264 334.637 171.699 334.483 171.136C330.783 157.615 321.63 144.765 308.29 140.444C297.089 136.817 284.862 139.606 273.177 138.164C250.237 135.332 232.453 116.779 219.939 97.353C207.426 77.9272 197.809 56.1829 181.181 40.1344C153.773 13.6811 109.063 7.98572 75.0806 25.2048C41.0983 42.4239 19.4519 80.626 20.3751 118.699C21.2983 156.772 43.9092 193.173 76.7459 212.486C88.8088 219.58 102.761 224.606 116.646 222.848C128.693 221.322 139.64 214.851 151.631 212.929C170.484 209.909 189.217 218.43 205.523 228.359C221.829 238.288 237.58 250.057 256.11 254.66C274.102 259.13 296.393 246.283 312.925 233.695Z" fill="#F2F2F2"/>
<path d="M286.111 26.0042C285.701 25.7315 285.288 25.473 284.879 25.2097C273.052 17.6491 260.376 11.5068 247.113 6.91L244.038 49.3195H224.541V0.719203C223.314 0.465367 222.077 0.225633 220.84 0V49.3195H197.671C184.916 49.3195 172.684 44.2546 163.665 35.239C154.646 26.2235 149.579 13.9957 149.579 1.24573C148.338 1.51367 147.105 1.80037 145.873 2.10592V49.3195H127.002L124.073 8.87959C110.442 14.105 97.5025 20.9767 85.5407 29.3417C85.3338 29.4827 85.1269 29.6284 84.9247 29.7694C83.8854 30.498 82.8603 31.2407 81.8398 31.9928V193.785H137.456L136.473 180.177L131.065 105.46H239.97L234.562 180.177L233.579 193.785H288.579V27.64C287.761 27.0853 286.938 26.5401 286.111 26.0042ZM145.873 93.1204H130.172L127.27 53.0237H145.873V93.1204ZM220.84 93.1204H194.469V92.326C194.469 91.9441 194.394 91.566 194.247 91.2132C194.101 90.8605 193.886 90.54 193.616 90.2702C193.346 90.0004 193.025 89.7865 192.672 89.6408C192.318 89.4951 191.94 89.4204 191.558 89.421H180.093C179.712 89.4209 179.334 89.4959 178.981 89.6418C178.628 89.7878 178.308 90.0018 178.038 90.2715C177.768 90.5413 177.554 90.8616 177.408 91.2141C177.262 91.5667 177.187 91.9445 177.187 92.326V93.1204H149.579V53.0237H220.84V93.1204ZM224.541 93.1204V53.0237H243.77L240.868 93.1204H224.541Z" fill="#3F3D56"/>
<path d="M0 204.146C4.08516 208.985 8.50372 213.532 13.2234 217.754L356.777 218.225C361.496 214.002 365.915 209.455 370 204.616L0 204.146Z" fill="#3F3D56"/>
<path d="M232.975 160.571V200.858C232.975 201.371 233.179 201.864 233.542 202.227C233.906 202.59 234.398 202.794 234.912 202.794H294.635C295.149 202.794 295.641 202.59 296.004 202.227C296.367 201.864 296.572 201.371 296.572 200.858V160.571C296.571 160.058 296.366 159.567 296.003 159.204C295.64 158.842 295.148 158.638 294.635 158.637H234.912C234.398 158.638 233.906 158.842 233.543 159.204C233.18 159.567 232.976 160.058 232.975 160.571Z" fill="#3F3D56"/>
<path d="M234.375 161.072V200.361C234.376 200.635 234.485 200.898 234.679 201.092C234.873 201.286 235.136 201.395 235.411 201.395H294.138C294.412 201.395 294.675 201.286 294.869 201.092C295.063 200.898 295.172 200.635 295.173 200.361V161.072C295.173 160.797 295.064 160.534 294.87 160.34C294.676 160.145 294.412 160.036 294.138 160.035H235.411C235.136 160.036 234.873 160.145 234.679 160.34C234.485 160.534 234.376 160.797 234.375 161.072Z" fill="#745934"/>
<path d="M231.726 208.715C231.835 208.852 231.974 208.962 232.132 209.038C232.291 209.114 232.464 209.153 232.639 209.152H296.589C296.764 209.151 296.937 209.112 297.095 209.037C297.252 208.962 297.392 208.852 297.502 208.716C297.612 208.581 297.69 208.422 297.732 208.252C297.773 208.082 297.775 207.905 297.74 207.734L296.747 203.021C296.706 202.828 296.617 202.65 296.489 202.5C296.361 202.351 296.198 202.236 296.014 202.166C295.881 202.114 295.739 202.087 295.597 202.087H233.628C233.485 202.087 233.344 202.114 233.211 202.166C233.027 202.236 232.864 202.351 232.736 202.5C232.608 202.65 232.519 202.828 232.478 203.021L231.485 207.734C231.45 207.905 231.453 208.082 231.495 208.251C231.536 208.421 231.615 208.579 231.726 208.715Z" fill="#2F2E41"/>
<path d="M293.403 204.118H294.913C295.04 204.118 295.143 204.015 295.143 203.888V203.166C295.143 203.039 295.04 202.936 294.913 202.936H293.403C293.276 202.936 293.173 203.039 293.173 203.166V203.888C293.173 204.015 293.276 204.118 293.403 204.118Z" fill="#3F3D56"/>
<path d="M289.463 204.118H290.974C291.1 204.118 291.203 204.015 291.203 203.888V203.166C291.203 203.039 291.1 202.936 290.974 202.936H289.463C289.336 202.936 289.234 203.039 289.234 203.166V203.888C289.234 204.015 289.336 204.118 289.463 204.118Z" fill="#3F3D56"/>
<path d="M285.524 204.118H287.034C287.161 204.118 287.264 204.015 287.264 203.888V203.166C287.264 203.039 287.161 202.936 287.034 202.936H285.524C285.397 202.936 285.294 203.039 285.294 203.166V203.888C285.294 204.015 285.397 204.118 285.524 204.118Z" fill="#3F3D56"/>
<path d="M281.585 204.118H283.095C283.222 204.118 283.325 204.015 283.325 203.888V203.166C283.325 203.039 283.222 202.936 283.095 202.936H281.585C281.458 202.936 281.355 203.039 281.355 203.166V203.888C281.355 204.015 281.458 204.118 281.585 204.118Z" fill="#3F3D56"/>
<path d="M277.645 204.118H279.156C279.282 204.118 279.385 204.015 279.385 203.888V203.166C279.385 203.039 279.282 202.936 279.156 202.936H277.645C277.518 202.936 277.416 203.039 277.416 203.166V203.888C277.416 204.015 277.518 204.118 277.645 204.118Z" fill="#3F3D56"/>
<path d="M273.706 204.118H275.217C275.343 204.118 275.446 204.015 275.446 203.888V203.166C275.446 203.039 275.343 202.936 275.217 202.936H273.706C273.579 202.936 273.477 203.039 273.477 203.166V203.888C273.477 204.015 273.579 204.118 273.706 204.118Z" fill="#3F3D56"/>
<path d="M269.767 204.118H271.277C271.404 204.118 271.507 204.015 271.507 203.888V203.166C271.507 203.039 271.404 202.936 271.277 202.936H269.767C269.64 202.936 269.537 203.039 269.537 203.166V203.888C269.537 204.015 269.64 204.118 269.767 204.118Z" fill="#3F3D56"/>
<path d="M265.827 204.118H267.338C267.465 204.118 267.567 204.015 267.567 203.888V203.166C267.567 203.039 267.465 202.936 267.338 202.936H265.827C265.701 202.936 265.598 203.039 265.598 203.166V203.888C265.598 204.015 265.701 204.118 265.827 204.118Z" fill="#3F3D56"/>
<path d="M261.888 204.118H263.399C263.526 204.118 263.628 204.015 263.628 203.888V203.166C263.628 203.039 263.526 202.936 263.399 202.936H261.888C261.762 202.936 261.659 203.039 261.659 203.166V203.888C261.659 204.015 261.762 204.118 261.888 204.118Z" fill="#3F3D56"/>
<path d="M257.949 204.118H259.459C259.586 204.118 259.689 204.015 259.689 203.888V203.166C259.689 203.039 259.586 202.936 259.459 202.936H257.949C257.822 202.936 257.719 203.039 257.719 203.166V203.888C257.719 204.015 257.822 204.118 257.949 204.118Z" fill="#3F3D56"/>
<path d="M254.01 204.118H255.52C255.647 204.118 255.75 204.015 255.75 203.888V203.166C255.75 203.039 255.647 202.936 255.52 202.936H254.01C253.883 202.936 253.78 203.039 253.78 203.166V203.888C253.78 204.015 253.883 204.118 254.01 204.118Z" fill="#3F3D56"/>
<path d="M250.07 204.118H251.581C251.708 204.118 251.811 204.015 251.811 203.888V203.166C251.811 203.039 251.708 202.936 251.581 202.936H250.07C249.944 202.936 249.841 203.039 249.841 203.166V203.888C249.841 204.015 249.944 204.118 250.07 204.118Z" fill="#3F3D56"/>
<path d="M246.132 204.118H247.642C247.769 204.118 247.872 204.015 247.872 203.888V203.166C247.872 203.039 247.769 202.936 247.642 202.936H246.132C246.005 202.936 245.902 203.039 245.902 203.166V203.888C245.902 204.015 246.005 204.118 246.132 204.118Z" fill="#3F3D56"/>
<path d="M242.192 204.118H243.703C243.829 204.118 243.932 204.015 243.932 203.888V203.166C243.932 203.039 243.829 202.936 243.703 202.936H242.192C242.065 202.936 241.962 203.039 241.962 203.166V203.888C241.962 204.015 242.065 204.118 242.192 204.118Z" fill="#3F3D56"/>
<path d="M238.253 204.118H239.763C239.89 204.118 239.993 204.015 239.993 203.888V203.166C239.993 203.039 239.89 202.936 239.763 202.936H238.253C238.126 202.936 238.023 203.039 238.023 203.166V203.888C238.023 204.015 238.126 204.118 238.253 204.118Z" fill="#3F3D56"/>
<path d="M234.314 204.118H235.824C235.951 204.118 236.054 204.015 236.054 203.888V203.166C236.054 203.039 235.951 202.936 235.824 202.936H234.314C234.187 202.936 234.084 203.039 234.084 203.166V203.888C234.084 204.015 234.187 204.118 234.314 204.118Z" fill="#3F3D56"/>
<path d="M293.449 206.086H294.96C295.087 206.086 295.189 205.984 295.189 205.857V205.135C295.189 205.008 295.087 204.905 294.96 204.905H293.449C293.323 204.905 293.22 205.008 293.22 205.135V205.857C293.22 205.984 293.323 206.086 293.449 206.086Z" fill="#3F3D56"/>
<path d="M289.509 206.086H291.02C291.147 206.086 291.25 205.984 291.25 205.857V205.135C291.25 205.008 291.147 204.905 291.02 204.905H289.509C289.383 204.905 289.28 205.008 289.28 205.135V205.857C289.28 205.984 289.383 206.086 289.509 206.086Z" fill="#3F3D56"/>
<path d="M285.57 206.086H287.081C287.208 206.086 287.311 205.984 287.311 205.857V205.135C287.311 205.008 287.208 204.905 287.081 204.905H285.57C285.444 204.905 285.341 205.008 285.341 205.135V205.857C285.341 205.984 285.444 206.086 285.57 206.086Z" fill="#3F3D56"/>
<path d="M281.631 206.086H283.142C283.268 206.086 283.371 205.984 283.371 205.857V205.135C283.371 205.008 283.268 204.905 283.142 204.905H281.631C281.504 204.905 281.401 205.008 281.401 205.135V205.857C281.401 205.984 281.504 206.086 281.631 206.086Z" fill="#3F3D56"/>
<path d="M277.692 206.086H279.203C279.329 206.086 279.432 205.984 279.432 205.857V205.135C279.432 205.008 279.329 204.905 279.203 204.905H277.692C277.565 204.905 277.463 205.008 277.463 205.135V205.857C277.463 205.984 277.565 206.086 277.692 206.086Z" fill="#3F3D56"/>
<path d="M273.753 206.086H275.263C275.39 206.086 275.493 205.984 275.493 205.857V205.135C275.493 205.008 275.39 204.905 275.263 204.905H273.753C273.626 204.905 273.523 205.008 273.523 205.135V205.857C273.523 205.984 273.626 206.086 273.753 206.086Z" fill="#3F3D56"/>
<path d="M269.814 206.086H271.324C271.451 206.086 271.554 205.984 271.554 205.857V205.135C271.554 205.008 271.451 204.905 271.324 204.905H269.814C269.687 204.905 269.584 205.008 269.584 205.135V205.857C269.584 205.984 269.687 206.086 269.814 206.086Z" fill="#3F3D56"/>
<path d="M265.874 206.086H267.385C267.511 206.086 267.614 205.984 267.614 205.857V205.135C267.614 205.008 267.511 204.905 267.385 204.905H265.874C265.747 204.905 265.645 205.008 265.645 205.135V205.857C265.645 205.984 265.747 206.086 265.874 206.086Z" fill="#3F3D56"/>
<path d="M261.935 206.086H263.445C263.572 206.086 263.675 205.984 263.675 205.857V205.135C263.675 205.008 263.572 204.905 263.445 204.905H261.935C261.808 204.905 261.705 205.008 261.705 205.135V205.857C261.705 205.984 261.808 206.086 261.935 206.086Z" fill="#3F3D56"/>
<path d="M257.996 206.086H259.506C259.633 206.086 259.736 205.984 259.736 205.857V205.135C259.736 205.008 259.633 204.905 259.506 204.905H257.996C257.869 204.905 257.766 205.008 257.766 205.135V205.857C257.766 205.984 257.869 206.086 257.996 206.086Z" fill="#3F3D56"/>
<path d="M254.056 206.086H255.567C255.694 206.086 255.796 205.984 255.796 205.857V205.135C255.796 205.008 255.694 204.905 255.567 204.905H254.056C253.93 204.905 253.827 205.008 253.827 205.135V205.857C253.827 205.984 253.93 206.086 254.056 206.086Z" fill="#3F3D56"/>
<path d="M250.117 206.086H251.628C251.755 206.086 251.857 205.984 251.857 205.857V205.135C251.857 205.008 251.755 204.905 251.628 204.905H250.117C249.991 204.905 249.888 205.008 249.888 205.135V205.857C249.888 205.984 249.991 206.086 250.117 206.086Z" fill="#3F3D56"/>
<path d="M246.178 206.086H247.688C247.815 206.086 247.918 205.984 247.918 205.857V205.135C247.918 205.008 247.815 204.905 247.688 204.905H246.178C246.051 204.905 245.948 205.008 245.948 205.135V205.857C245.948 205.984 246.051 206.086 246.178 206.086Z" fill="#3F3D56"/>
<path d="M242.238 206.086H243.749C243.876 206.086 243.979 205.984 243.979 205.857V205.135C243.979 205.008 243.876 204.905 243.749 204.905H242.238C242.112 204.905 242.009 205.008 242.009 205.135V205.857C242.009 205.984 242.112 206.086 242.238 206.086Z" fill="#3F3D56"/>
<path d="M238.299 206.086H239.81C239.937 206.086 240.04 205.984 240.04 205.857V205.135C240.04 205.008 239.937 204.905 239.81 204.905H238.299C238.173 204.905 238.07 205.008 238.07 205.135V205.857C238.07 205.984 238.173 206.086 238.299 206.086Z" fill="#3F3D56"/>
<path d="M234.36 206.086H235.871C235.997 206.086 236.1 205.984 236.1 205.857V205.135C236.1 205.008 235.997 204.905 235.871 204.905H234.36C234.233 204.905 234.13 205.008 234.13 205.135V205.857C234.13 205.984 234.233 206.086 234.36 206.086Z" fill="#3F3D56"/>
<path d="M260.753 208.449H276.051C276.178 208.449 276.281 208.346 276.281 208.22V207.497C276.281 207.371 276.178 207.268 276.051 207.268H260.753C260.627 207.268 260.524 207.371 260.524 207.497V208.22C260.524 208.346 260.627 208.449 260.753 208.449Z" fill="#3F3D56"/>
<path d="M244.545 168.631H243.208C242.803 168.631 242.474 168.959 242.474 169.365C242.474 169.77 242.803 170.098 243.208 170.098H244.545C244.951 170.098 245.28 169.77 245.28 169.365C245.28 168.959 244.951 168.631 244.545 168.631Z" fill="white"/>
<path d="M259.839 168.631H258.502C258.097 168.631 257.768 168.959 257.768 169.365C257.768 169.77 258.097 170.098 258.502 170.098H259.839C260.245 170.098 260.574 169.77 260.574 169.365C260.574 168.959 260.245 168.631 259.839 168.631Z" fill="white"/>
<path d="M264.172 168.631H262.835C262.43 168.631 262.101 168.959 262.101 169.365C262.101 169.77 262.43 170.098 262.835 170.098H264.172C264.578 170.098 264.907 169.77 264.907 169.365C264.907 168.959 264.578 168.631 264.172 168.631Z" fill="white"/>
<path d="M255.68 168.508H247.368C246.963 168.508 246.634 168.837 246.634 169.242C246.634 169.647 246.963 169.976 247.368 169.976H255.68C256.085 169.976 256.414 169.647 256.414 169.242C256.414 168.837 256.085 168.508 255.68 168.508Z" fill="white"/>
<path d="M276.071 168.508H267.76C267.355 168.508 267.026 168.837 267.026 169.242C267.026 169.647 267.355 169.976 267.76 169.976H276.071C276.477 169.976 276.805 169.647 276.805 169.242C276.805 168.837 276.477 168.508 276.071 168.508Z" fill="white"/>
<path d="M248.624 171.943H247.287C246.881 171.943 246.553 172.272 246.553 172.677C246.553 173.082 246.881 173.411 247.287 173.411H248.624C249.03 173.411 249.358 173.082 249.358 172.677C249.358 172.272 249.03 171.943 248.624 171.943Z" fill="white"/>
<path d="M263.918 171.943H262.58C262.175 171.943 261.846 172.272 261.846 172.677C261.846 173.082 262.175 173.411 262.58 173.411H263.918C264.323 173.411 264.652 173.082 264.652 172.677C264.652 172.272 264.323 171.943 263.918 171.943Z" fill="white"/>
<path d="M268.251 171.943H266.914C266.508 171.943 266.18 172.272 266.18 172.677C266.18 173.082 266.508 173.411 266.914 173.411H268.251C268.656 173.411 268.985 173.082 268.985 172.677C268.985 172.272 268.656 171.943 268.251 171.943Z" fill="white"/>
<path d="M259.758 171.821H251.447C251.041 171.821 250.712 172.149 250.712 172.555C250.712 172.96 251.041 173.288 251.447 173.288H259.758C260.163 173.288 260.492 172.96 260.492 172.555C260.492 172.149 260.163 171.821 259.758 171.821Z" fill="white"/>
<path d="M280.15 171.821H271.839C271.433 171.821 271.104 172.149 271.104 172.555C271.104 172.96 271.433 173.288 271.839 173.288H280.15C280.555 173.288 280.884 172.96 280.884 172.555C280.884 172.149 280.555 171.821 280.15 171.821Z" fill="white"/>
<path d="M252.702 175.255H251.365C250.96 175.255 250.631 175.584 250.631 175.989C250.631 176.394 250.96 176.723 251.365 176.723H252.702C253.108 176.723 253.436 176.394 253.436 175.989C253.436 175.584 253.108 175.255 252.702 175.255Z" fill="white"/>
<path d="M267.996 175.255H266.659C266.253 175.255 265.925 175.584 265.925 175.989C265.925 176.394 266.253 176.723 266.659 176.723H267.996C268.402 176.723 268.73 176.394 268.73 175.989C268.73 175.584 268.402 175.255 267.996 175.255Z" fill="white"/>
<path d="M272.329 175.255H270.992C270.586 175.255 270.258 175.584 270.258 175.989C270.258 176.394 270.586 176.723 270.992 176.723H272.329C272.735 176.723 273.063 176.394 273.063 175.989C273.063 175.584 272.735 175.255 272.329 175.255Z" fill="white"/>
<path d="M263.836 175.133H255.525C255.12 175.133 254.791 175.462 254.791 175.867C254.791 176.272 255.12 176.601 255.525 176.601H263.836C264.242 176.601 264.57 176.272 264.57 175.867C264.57 175.462 264.242 175.133 263.836 175.133Z" fill="white"/>
<path d="M284.228 175.133H275.917C275.511 175.133 275.183 175.462 275.183 175.867C275.183 176.272 275.511 176.601 275.917 176.601H284.228C284.633 176.601 284.962 176.272 284.962 175.867C284.962 175.462 284.633 175.133 284.228 175.133Z" fill="white"/>
<path d="M256.781 178.568H255.444C255.038 178.568 254.709 178.896 254.709 179.302C254.709 179.707 255.038 180.035 255.444 180.035H256.781C257.186 180.035 257.515 179.707 257.515 179.302C257.515 178.896 257.186 178.568 256.781 178.568Z" fill="white"/>
<path d="M272.074 178.568H270.737C270.332 178.568 270.003 178.896 270.003 179.302C270.003 179.707 270.332 180.035 270.737 180.035H272.074C272.48 180.035 272.808 179.707 272.808 179.302C272.808 178.896 272.48 178.568 272.074 178.568Z" fill="white"/>
<path d="M276.408 178.568H275.071C274.665 178.568 274.336 178.896 274.336 179.302C274.336 179.707 274.665 180.035 275.071 180.035H276.408C276.813 180.035 277.142 179.707 277.142 179.302C277.142 178.896 276.813 178.568 276.408 178.568Z" fill="white"/>
<path d="M267.914 178.446H259.603C259.198 178.446 258.869 178.774 258.869 179.18C258.869 179.585 259.198 179.913 259.603 179.913H267.914C268.32 179.913 268.648 179.585 268.648 179.18C268.648 178.774 268.32 178.446 267.914 178.446Z" fill="white"/>
<path d="M259.839 191.74H258.502C258.097 191.74 257.768 192.068 257.768 192.474C257.768 192.879 258.097 193.207 258.502 193.207H259.839C260.245 193.207 260.574 192.879 260.574 192.474C260.574 192.068 260.245 191.74 259.839 191.74Z" fill="white"/>
<path d="M264.172 191.74H262.835C262.43 191.74 262.101 192.068 262.101 192.474C262.101 192.879 262.43 193.207 262.835 193.207H264.172C264.578 193.207 264.907 192.879 264.907 192.474C264.907 192.068 264.578 191.74 264.172 191.74Z" fill="white"/>
<path d="M276.071 191.862H267.76C267.355 191.862 267.026 192.19 267.026 192.596C267.026 193.001 267.355 193.329 267.76 193.329H276.071C276.477 193.329 276.805 193.001 276.805 192.596C276.805 192.19 276.477 191.862 276.071 191.862Z" fill="white"/>
<path d="M244.545 191.74H243.208C242.803 191.74 242.474 192.068 242.474 192.474C242.474 192.879 242.803 193.207 243.208 193.207H244.545C244.951 193.207 245.28 192.879 245.28 192.474C245.28 192.068 244.951 191.74 244.545 191.74Z" fill="white"/>
<path d="M255.68 191.862H247.368C246.963 191.862 246.634 192.19 246.634 192.596C246.634 193.001 246.963 193.329 247.368 193.329H255.68C256.085 193.329 256.414 193.001 256.414 192.596C256.414 192.19 256.085 191.862 255.68 191.862Z" fill="white"/>
<path d="M248.624 188.427H247.287C246.881 188.427 246.553 188.756 246.553 189.161C246.553 189.566 246.881 189.895 247.287 189.895H248.624C249.03 189.895 249.358 189.566 249.358 189.161C249.358 188.756 249.03 188.427 248.624 188.427Z" fill="white"/>
<path d="M263.918 188.427H262.58C262.175 188.427 261.846 188.756 261.846 189.161C261.846 189.566 262.175 189.895 262.58 189.895H263.918C264.323 189.895 264.652 189.566 264.652 189.161C264.652 188.756 264.323 188.427 263.918 188.427Z" fill="white"/>
<path d="M268.251 188.427H266.914C266.508 188.427 266.18 188.756 266.18 189.161C266.18 189.566 266.508 189.895 266.914 189.895H268.251C268.656 189.895 268.985 189.566 268.985 189.161C268.985 188.756 268.656 188.427 268.251 188.427Z" fill="white"/>
<path d="M259.758 188.549H251.447C251.041 188.549 250.712 188.878 250.712 189.283C250.712 189.688 251.041 190.017 251.447 190.017H259.758C260.163 190.017 260.492 189.688 260.492 189.283C260.492 188.878 260.163 188.549 259.758 188.549Z" fill="white"/>
<path d="M252.702 185.115H251.365C250.96 185.115 250.631 185.443 250.631 185.849C250.631 186.254 250.96 186.582 251.365 186.582H252.702C253.108 186.582 253.436 186.254 253.436 185.849C253.436 185.443 253.108 185.115 252.702 185.115Z" fill="white"/>
<path d="M267.996 185.115H266.659C266.253 185.115 265.925 185.443 265.925 185.849C265.925 186.254 266.253 186.582 266.659 186.582H267.996C268.402 186.582 268.73 186.254 268.73 185.849C268.73 185.443 268.402 185.115 267.996 185.115Z" fill="white"/>
<path d="M272.329 185.115H270.992C270.586 185.115 270.258 185.443 270.258 185.849C270.258 186.254 270.586 186.582 270.992 186.582H272.329C272.735 186.582 273.063 186.254 273.063 185.849C273.063 185.443 272.735 185.115 272.329 185.115Z" fill="white"/>
<path d="M263.836 185.237H255.525C255.12 185.237 254.791 185.566 254.791 185.971C254.791 186.376 255.12 186.705 255.525 186.705H263.836C264.242 186.705 264.57 186.376 264.57 185.971C264.57 185.566 264.242 185.237 263.836 185.237Z" fill="white"/>
<path d="M256.781 181.802H255.444C255.038 181.802 254.709 182.131 254.709 182.536C254.709 182.941 255.038 183.27 255.444 183.27H256.781C257.186 183.27 257.515 182.941 257.515 182.536C257.515 182.131 257.186 181.802 256.781 181.802Z" fill="white"/>
<path d="M272.074 181.802H270.737C270.332 181.802 270.003 182.131 270.003 182.536C270.003 182.941 270.332 183.27 270.737 183.27H272.074C272.48 183.27 272.808 182.941 272.808 182.536C272.808 182.131 272.48 181.802 272.074 181.802Z" fill="white"/>
<path d="M276.408 181.802H275.071C274.665 181.802 274.336 182.131 274.336 182.536C274.336 182.941 274.665 183.27 275.071 183.27H276.408C276.813 183.27 277.142 182.941 277.142 182.536C277.142 182.131 276.813 181.802 276.408 181.802Z" fill="white"/>
<path d="M267.914 181.925H259.603C259.198 181.925 258.869 182.253 258.869 182.659C258.869 183.064 259.198 183.392 259.603 183.392H267.914C268.32 183.392 268.648 183.064 268.648 182.659C268.648 182.253 268.32 181.925 267.914 181.925Z" fill="white"/>
<path d="M237.436 230.56L231.158 220.641L250.863 204.939L258.996 195.932C260.052 194.762 261.398 193.889 262.897 193.402C264.397 192.914 265.998 192.828 267.541 193.153C269.085 193.478 270.515 194.202 271.691 195.253C272.866 196.304 273.745 197.645 274.24 199.142C274.973 201.36 274.816 203.776 273.8 205.88C272.785 207.984 270.992 209.611 268.799 210.419L255.939 215.155L237.436 230.56Z" fill="#FFB6B6"/>
<path d="M90.1416 158.639V206.849H123.929V158.639C123.929 158.292 123.819 157.954 123.613 157.675C123.407 157.396 123.118 157.19 122.786 157.088C122.63 157.036 122.466 157.011 122.302 157.012H91.7734C91.5594 157.012 91.3474 157.054 91.1495 157.135C90.9516 157.217 90.7718 157.336 90.6203 157.487C90.4687 157.639 90.3484 157.818 90.2663 158.015C90.1842 158.213 90.1418 158.425 90.1416 158.639ZM103.327 175.204C103.336 174.253 103.72 173.345 104.395 172.676C105.071 172.007 105.983 171.632 106.934 171.632C107.885 171.632 108.797 172.007 109.473 172.676C110.148 173.345 110.532 174.253 110.541 175.204V180.798C110.536 181.751 110.154 182.663 109.478 183.335C108.802 184.007 107.888 184.385 106.934 184.385C105.981 184.385 105.066 184.007 104.39 183.335C103.714 182.663 103.332 181.751 103.327 180.798V175.204Z" fill="#2F2E41"/>
<path d="M90.0381 205.307V209.956C90.0388 210.197 90.1346 210.428 90.3045 210.598C90.4744 210.769 90.7048 210.866 90.9457 210.868H123.125C123.366 210.867 123.597 210.77 123.767 210.599C123.937 210.428 124.032 210.197 124.032 209.956V205.307H90.0381Z" fill="#3F3D56"/>
<path d="M36.9897 86.0042V174.029C36.9906 175.151 37.4368 176.226 38.2303 177.02C39.0238 177.813 40.0998 178.259 41.222 178.26H171.716C172.838 178.259 173.914 177.813 174.707 177.02C175.501 176.226 175.947 175.151 175.948 174.029V86.0042C175.945 84.8835 175.498 83.8094 174.705 83.0173C173.912 82.2253 172.837 81.7797 171.716 81.7783H41.222C40.1008 81.7797 39.0258 82.2253 38.2326 83.0174C37.4393 83.8094 36.9924 84.8835 36.9897 86.0042Z" fill="#3F3D56"/>
<path d="M40.0508 87.0992V172.943C40.0518 173.542 40.2904 174.117 40.7144 174.541C41.1384 174.964 41.7131 175.203 42.3127 175.204H170.629C171.229 175.203 171.803 174.964 172.227 174.541C172.651 174.117 172.89 173.542 172.891 172.943V87.0992C172.891 86.4991 172.653 85.9236 172.229 85.4988C171.805 85.0741 171.229 84.8348 170.629 84.8335H42.3127C41.7124 84.8348 41.1371 85.0741 40.7131 85.4988C40.289 85.9236 40.0508 86.4992 40.0508 87.0992Z" fill="white"/>
<path d="M63.8642 210.553C63.9948 210.717 64.1608 210.849 64.3498 210.939C64.5387 211.03 64.7457 211.076 64.9552 211.075H141.295C141.504 211.075 141.71 211.028 141.898 210.938C142.087 210.848 142.253 210.718 142.384 210.555C142.516 210.393 142.61 210.204 142.659 210.001C142.708 209.798 142.711 209.587 142.668 209.383L141.483 203.756C141.434 203.527 141.328 203.313 141.176 203.135C141.023 202.957 140.828 202.82 140.609 202.736C140.45 202.674 140.281 202.642 140.11 202.642H66.1355C65.9649 202.642 65.7958 202.674 65.637 202.736C65.4177 202.82 65.2227 202.957 65.07 203.135C64.9172 203.313 64.8115 203.527 64.7624 203.756L63.5773 209.383C63.5352 209.587 63.539 209.798 63.5887 210C63.6383 210.203 63.7324 210.392 63.8642 210.553Z" fill="#2F2E41"/>
<path d="M166.465 96.6587H46.3996C46.2748 96.6559 46.156 96.6044 46.0688 96.5152C45.9815 96.426 45.9326 96.3062 45.9326 96.1814C45.9326 96.0566 45.9815 95.9368 46.0688 95.8476C46.156 95.7584 46.2748 95.7069 46.3996 95.7041H166.465C166.59 95.7069 166.708 95.7584 166.796 95.8476C166.883 95.9368 166.932 96.0566 166.932 96.1814C166.932 96.3062 166.883 96.426 166.796 96.5152C166.708 96.6044 166.59 96.6559 166.465 96.6587Z" fill="#3F3D56"/>
<path d="M54.5726 93.2672C56.118 93.2672 57.3708 91.987 57.3708 90.4078C57.3708 88.8286 56.118 87.5483 54.5726 87.5483C53.0272 87.5483 51.7744 88.8286 51.7744 90.4078C51.7744 91.987 53.0272 93.2672 54.5726 93.2672Z" fill="#3F3D56"/>
<path d="M64.2391 93.2672C65.7845 93.2672 67.0373 91.987 67.0373 90.4078C67.0373 88.8286 65.7845 87.5483 64.2391 87.5483C62.6937 87.5483 61.4409 88.8286 61.4409 90.4078C61.4409 91.987 62.6937 93.2672 64.2391 93.2672Z" fill="#3F3D56"/>
<path d="M73.9056 93.2672C75.451 93.2672 76.7038 91.987 76.7038 90.4078C76.7038 88.8286 75.451 87.5483 73.9056 87.5483C72.3602 87.5483 71.1074 88.8286 71.1074 90.4078C71.1074 91.987 72.3602 93.2672 73.9056 93.2672Z" fill="#3F3D56"/>
<path d="M160.644 88.2559H153.779C153.643 88.259 153.514 88.3151 153.419 88.4122C153.324 88.5093 153.271 88.6396 153.271 88.7753C153.271 88.911 153.324 89.0413 153.419 89.1384C153.514 89.2354 153.643 89.2915 153.779 89.2947H160.644C160.781 89.2928 160.911 89.2372 161.007 89.14C161.103 89.0428 161.157 88.9118 161.157 88.7753C161.157 88.6388 161.103 88.5078 161.007 88.4106C160.911 88.3134 160.781 88.2578 160.644 88.2559Z" fill="#3F3D56"/>
<path d="M160.644 90.2065H153.779C153.643 90.2095 153.514 90.2656 153.419 90.3627C153.324 90.4598 153.271 90.5902 153.271 90.726C153.271 90.8618 153.324 90.9922 153.419 91.0893C153.514 91.1864 153.643 91.2424 153.779 91.2454H160.644C160.781 91.2437 160.912 91.1883 161.008 91.0911C161.104 90.9938 161.158 90.8627 161.158 90.726C161.158 90.5893 161.104 90.4581 161.008 90.3609C160.912 90.2636 160.781 90.2082 160.644 90.2065Z" fill="#3F3D56"/>
<path d="M160.644 92.1572H153.779C153.643 92.1604 153.514 92.2165 153.419 92.3136C153.324 92.4106 153.271 92.541 153.271 92.6767C153.271 92.8124 153.324 92.9427 153.419 93.0397C153.514 93.1368 153.643 93.1929 153.779 93.1961H160.644C160.781 93.1941 160.911 93.1386 161.007 93.0414C161.103 92.9442 161.157 92.8132 161.157 92.6767C161.157 92.5402 161.103 92.4091 161.007 92.3119C160.911 92.2147 160.781 92.1592 160.644 92.1572Z" fill="#3F3D56"/>
<path d="M326.162 207.348C326.369 207.951 326.762 208.472 327.284 208.838C327.807 209.204 328.431 209.395 329.069 209.383L341.527 209.063C342.169 209.05 342.79 208.83 343.297 208.436C343.804 208.041 344.17 207.493 344.339 206.874L346.102 188.03C346.728 188.313 347.409 188.453 348.095 188.439C348.692 188.425 349.279 188.292 349.825 188.05C350.37 187.808 350.862 187.461 351.273 187.029C351.684 186.597 352.006 186.088 352.221 185.532C352.435 184.975 352.538 184.382 352.523 183.785C352.508 183.189 352.376 182.602 352.134 182.057C351.891 181.512 351.544 181.02 351.112 180.609C350.68 180.198 350.171 179.876 349.614 179.661C349.057 179.447 348.464 179.344 347.867 179.359C347.593 179.359 347.319 179.387 347.051 179.444C346.759 179.129 346.404 178.878 346.009 178.707C345.615 178.537 345.189 178.451 344.759 178.456L325.596 178.95C325.437 178.956 325.279 178.976 325.123 179.009C324.703 179.087 324.304 179.255 323.954 179.5C323.604 179.745 323.311 180.062 323.094 180.431C322.876 180.799 322.741 181.209 322.695 181.634C322.65 182.059 322.697 182.488 322.832 182.894L326.162 207.348ZM346.464 186.751L347.718 182.26C347.861 181.742 347.864 181.194 347.728 180.674C347.789 180.674 347.842 180.645 347.903 180.645C348.763 180.627 349.595 180.951 350.217 181.546C350.839 182.14 351.199 182.957 351.219 183.817C351.239 184.676 350.918 185.509 350.324 186.132C349.731 186.755 348.915 187.117 348.055 187.14C347.499 187.157 346.949 187.023 346.464 186.751Z" fill="#2F2E41"/>
<path d="M325.123 179.009C325.531 181.343 330.121 182.983 335.641 182.698C340.716 182.464 344.866 180.683 345.626 178.571C345.344 178.488 345.052 178.449 344.759 178.456L325.596 178.95C325.437 178.956 325.279 178.976 325.123 179.009Z" fill="#3F3D56"/>
<path d="M336.652 196.993C336.677 196.987 336.701 196.976 336.723 196.962L339.428 195.192C339.461 195.17 339.488 195.141 339.507 195.107C339.525 195.073 339.535 195.034 339.535 194.995C339.535 194.956 339.525 194.918 339.507 194.883C339.488 194.849 339.461 194.82 339.429 194.799L336.617 192.957C336.591 192.94 336.562 192.929 336.532 192.923C336.501 192.917 336.47 192.917 336.44 192.923C336.409 192.93 336.38 192.942 336.355 192.959C336.329 192.976 336.307 192.999 336.29 193.025C336.273 193.05 336.262 193.079 336.256 193.11C336.25 193.14 336.251 193.171 336.257 193.202C336.263 193.232 336.276 193.261 336.293 193.286C336.311 193.312 336.333 193.334 336.359 193.35L338.871 194.995L336.466 196.569C336.419 196.599 336.385 196.645 336.369 196.698C336.353 196.752 336.357 196.809 336.379 196.86C336.401 196.911 336.441 196.952 336.491 196.976C336.541 197.001 336.598 197.007 336.652 196.993Z" fill="#745934"/>
<path d="M332.379 197.19C332.425 197.178 332.466 197.153 332.497 197.118C332.528 197.084 332.548 197.04 332.555 196.994C332.561 196.947 332.553 196.9 332.533 196.858C332.512 196.816 332.479 196.781 332.439 196.758L329.945 195.329L332.355 193.539C332.38 193.521 332.401 193.498 332.417 193.471C332.432 193.445 332.443 193.415 332.447 193.385C332.452 193.354 332.45 193.323 332.443 193.293C332.435 193.263 332.422 193.235 332.404 193.21C332.385 193.186 332.362 193.165 332.336 193.149C332.309 193.133 332.28 193.123 332.249 193.118C332.219 193.114 332.188 193.115 332.158 193.123C332.128 193.13 332.1 193.144 332.075 193.162L329.376 195.166C329.345 195.189 329.32 195.22 329.303 195.255C329.287 195.29 329.279 195.329 329.282 195.368C329.284 195.407 329.296 195.445 329.316 195.478C329.337 195.511 329.366 195.539 329.399 195.558L332.205 197.166C332.257 197.196 332.32 197.205 332.379 197.19Z" fill="#745934"/>
<path d="M336.383 198.544C336.405 198.538 336.427 198.529 336.447 198.517C336.474 198.501 336.497 198.48 336.515 198.455C336.533 198.43 336.546 198.401 336.553 198.371C336.561 198.341 336.562 198.31 336.557 198.28C336.553 198.249 336.542 198.22 336.526 198.194L332.691 191.891C332.658 191.838 332.606 191.8 332.545 191.785C332.485 191.77 332.421 191.78 332.368 191.813C332.315 191.845 332.276 191.897 332.262 191.958C332.247 192.018 332.257 192.082 332.289 192.135L336.124 198.438C336.15 198.481 336.19 198.515 336.236 198.534C336.283 198.553 336.334 198.556 336.383 198.544Z" fill="#745934"/>
<path d="M120.778 122.606H99.9974C99.1496 122.606 98.4624 123.293 98.4624 124.141V126.17C98.4624 127.018 99.1496 127.705 99.9974 127.705H120.778C121.626 127.705 122.313 127.018 122.313 126.17V124.141C122.313 123.293 121.626 122.606 120.778 122.606Z" fill="#745934"/>
<path d="M132.891 132.803H87.8846C87.0368 132.803 86.3496 133.49 86.3496 134.337V136.367C86.3496 137.214 87.0368 137.901 87.8846 137.901H132.891C133.739 137.901 134.426 137.214 134.426 136.367V134.337C134.426 133.49 133.739 132.803 132.891 132.803Z" fill="#E6E6E6"/>
<path d="M132.891 143H87.8846C87.0368 143 86.3496 143.686 86.3496 144.534V146.563C86.3496 147.411 87.0368 148.098 87.8846 148.098H132.891C133.739 148.098 134.426 147.411 134.426 146.563V144.534C134.426 143.686 133.739 143 132.891 143Z" fill="#E6E6E6"/>
<path d="M136.706 177.143L136.808 177.465L136.813 177.476L139.882 186.801L143.412 197.547L150.053 217.742L150.117 220.879V220.889L150.611 246.125L149.243 249.546L150.782 255.155C150.782 255.155 150.074 246.676 146.276 251.545C144.125 254.312 141.609 257.144 139.544 259.798C142.553 261.015 145.611 262.117 148.717 263.101C149.388 263.316 150.063 263.52 150.739 263.723C150.884 263.766 151.029 263.809 151.174 263.852C161.47 266.896 172.114 268.606 182.845 268.941C183.403 268.957 183.951 268.968 184.482 268.979C184.669 268.984 184.852 268.989 185.034 268.989C185.635 268.995 186.23 269 186.831 269C188.044 269 189.251 268.982 190.452 268.946C199.346 268.696 208.188 267.5 216.829 265.38C216.77 261.814 216.609 257.648 216.378 253.197C216.271 251.015 213.863 248.65 213.718 246.365C213.616 244.649 215.778 243.035 215.665 241.293C214.935 230.562 214.024 234.681 213.348 227.083C213.278 226.338 213.213 225.624 213.154 224.943C212.72 220.064 212.42 217.012 212.42 217.012L215.306 198.829L219.839 170.279L219.49 169.706L219.098 169.513L195.189 157.683L193.891 154.358C193.513 153.401 192.856 152.578 192.006 151.996C191.157 151.414 190.152 151.099 189.122 151.093L173.372 151.028C172.555 151.025 171.748 151.216 171.019 151.586C170.291 151.956 169.661 152.495 169.182 153.157L164.918 159.061L136.706 177.143Z" fill="#3F3D56"/>
<path d="M153.685 213.248L150.117 220.879L147.682 226.091L143.492 248.018L141.395 250.243L139.598 242.365L120.789 246.54C120.172 243.113 120.624 246.656 120.243 242.897C120.35 242.789 120.463 242.682 120.575 242.575C120.876 242.296 121.128 242.033 121.122 241.781C120.908 228.815 121.552 206.749 126.927 193.38C127.769 191.198 128.879 189.128 130.231 187.219C130.339 187.074 130.44 186.929 130.542 186.785C133.021 183.315 134.587 179.899 136.808 177.47V177.465C136.822 177.454 136.834 177.441 136.846 177.427C136.854 177.423 136.861 177.418 136.867 177.411L152.123 169.325L152.778 187.707L153.245 200.92L153.685 213.248Z" fill="#3F3D56"/>
<path d="M208.696 215.415L213.152 224.946L214.708 228.265L218.896 250.19L220.987 252.41L222.788 244.534L223.634 244.36L238.898 241.2L243.347 255.324C244.349 253.654 244.744 251.689 244.465 249.761C244.185 247.834 243.249 246.062 241.813 244.745C241.509 244.47 241.256 244.203 241.263 243.949C241.516 228.699 240.583 200.852 232.156 189.391C229.479 185.753 227.873 182.131 225.537 179.6C225.53 179.592 225.53 179.585 225.522 179.585L219.836 170.279L219.489 169.707L219.099 169.512L208.696 215.415Z" fill="#3F3D56"/>
<path d="M181.702 146.548C193.274 146.548 202.655 137.17 202.655 125.603C202.655 114.035 193.274 104.657 181.702 104.657C170.13 104.657 160.749 114.035 160.749 125.603C160.749 137.17 170.13 146.548 181.702 146.548Z" fill="#FFB6B6"/>
<path d="M210.023 110.972C209.861 110.799 209.665 110.66 209.448 110.564C209.23 110.468 208.996 110.416 208.758 110.413L209.073 109.538C209.176 109.263 209.204 108.965 209.154 108.676C209.103 108.386 208.977 108.115 208.788 107.89C208.598 107.665 208.352 107.495 208.075 107.396C207.798 107.298 207.5 107.275 207.211 107.329L206.064 107.55L206.172 106.784C206.213 106.498 206.18 106.207 206.074 105.939C205.969 105.67 205.796 105.434 205.571 105.253C205.347 105.071 205.079 104.952 204.795 104.905C204.51 104.859 204.218 104.888 203.948 104.988C203.702 105.085 203.437 105.125 203.173 105.107C202.91 105.088 202.654 105.011 202.424 104.88C202.193 104.754 201.993 104.578 201.837 104.366C201.681 104.154 201.573 103.911 201.521 103.653L201.121 101.726L201.079 101.622C199.132 98.379 195.389 96.0193 190.809 95.1543C186.732 94.3787 182.551 94.7736 178.521 95.1449C176.922 95.2954 175.117 95.4646 173.612 96.3859C172.333 97.1756 171.251 98.7551 171.472 100.349C167.499 99.1311 163.238 101.561 161.127 104.626C158.625 108.274 158.216 112.843 158.15 116.416C157.971 124.867 159.716 131.782 163.323 136.972C163.586 137.348 163.652 138.133 164.174 138.396L164.066 138.222C164.649 138.513 165.241 138.983 165.02 139.486C164.386 140.934 168.604 144.135 171.576 145.193C176.998 147.125 184.207 146.961 189.276 146.265L189.455 145.066C191.284 144.817 192.572 144.342 192.934 143.6C193.574 143.054 194.119 142.565 194.594 142.114L194.599 142.109C194.608 142.1 194.627 142.086 194.637 142.077C196.927 139.881 197.458 138.631 197.698 136.727C197.928 134.861 197.519 132.967 197.101 131.26C205.913 132.623 193.63 121.878 201.841 119.8C201.935 119.771 202.031 119.747 202.128 119.73C202.367 119.673 202.607 119.617 202.838 119.551C203.948 119.25 205.012 118.795 205.998 118.202C208.293 116.806 209.05 114.954 210.235 112.867C210.406 112.569 210.477 112.225 210.439 111.885C210.401 111.544 210.255 111.224 210.023 110.972Z" fill="#2F2E41"/>
<path d="M255.811 216.907C255.806 217.729 255.797 218.881 255.759 220.305C255.754 220.503 255.75 220.705 255.745 220.912C255.684 223.53 255.623 225.725 255.524 228.165C255.519 228.334 255.514 228.499 255.505 228.668C255.373 232.071 255.166 236.034 254.809 242.309C254.146 253.901 252.989 243.903 251.828 247.969C251.771 248.171 251.71 248.411 251.654 248.693C251.478 249.716 251.181 250.715 250.77 251.668C250.154 252.035 249.519 252.387 248.893 252.74C247.111 253.732 245.301 254.686 243.476 255.593C242.451 256.101 241.421 256.599 240.387 257.079C240.222 257.154 240.062 257.229 239.902 257.3C234.605 259.749 229.145 261.832 223.561 263.533C222.47 263.862 221.384 264.181 220.284 264.478C219.136 264.797 217.989 265.098 216.827 265.38C208.187 267.501 199.345 268.697 190.451 268.948C189.252 268.986 188.043 269 186.83 269C186.228 269 185.636 268.995 185.034 268.99C184.85 268.99 184.667 268.986 184.484 268.981C183.952 268.967 183.402 268.957 182.847 268.943C172.116 268.609 161.471 266.898 151.176 263.852L150.739 263.725C150.062 263.519 149.389 263.317 148.717 263.1C145.613 262.118 142.555 261.018 139.542 259.8C137.243 258.874 134.97 257.881 132.723 256.82C132.703 256.815 132.684 256.805 132.667 256.792C132.197 256.576 131.722 256.35 131.252 256.12C131.19 256.087 131.125 256.054 131.059 256.021C129.305 255.166 127.57 254.269 125.853 253.332C124.41 250.018 122.378 249.384 121.118 246.469C120.751 245.603 120.486 244.698 120.328 243.771C120.328 243.762 120.323 243.752 120.323 243.738C120.455 245.487 119.763 240.636 120.318 243.719C120.314 243.663 120.309 243.602 120.304 243.531C120.29 243.362 120.271 243.155 120.243 242.897C118.63 227.154 118.734 209.151 118.033 194.315C117.986 193.356 117.937 192.438 117.887 191.561C117.873 191.269 117.854 190.982 117.835 190.7C117.868 190.616 117.906 190.526 117.948 190.442C117.957 190.418 117.968 190.394 117.981 190.371C117.995 190.342 118.011 190.314 118.028 190.287C118.038 190.273 118.052 190.254 118.061 190.24C118.068 190.224 118.076 190.208 118.085 190.193C118.127 190.127 118.174 190.056 118.226 189.991C118.249 189.962 118.268 189.939 118.292 189.915C118.308 189.891 118.327 189.869 118.348 189.85C118.362 189.827 118.38 189.806 118.4 189.789C118.419 189.77 118.437 189.746 118.461 189.723C118.471 189.708 118.484 189.695 118.498 189.685C118.536 189.642 118.577 189.603 118.621 189.568C118.789 189.413 118.968 189.272 119.157 189.145C119.223 189.102 119.293 189.06 119.359 189.013C119.833 188.73 120.332 188.49 120.85 188.298C121.028 188.233 121.207 188.171 121.4 188.106C121.47 188.087 121.536 188.063 121.607 188.04C121.71 188.007 121.814 187.974 121.922 187.951C122.458 187.791 123.036 187.654 123.662 187.527C123.737 187.513 123.817 187.499 123.897 187.48C124.01 187.457 124.127 187.438 124.245 187.419C124.405 187.391 124.569 187.363 124.734 187.335C126.131 187.114 127.715 186.949 129.465 186.841C129.629 186.832 129.794 186.822 129.958 186.813C130.151 186.804 130.344 186.794 130.542 186.785C130.706 186.775 130.875 186.771 131.045 186.766C131.209 186.757 131.379 186.752 131.553 186.747C132.028 186.733 132.517 186.719 133.015 186.71C134.435 186.681 135.931 186.691 137.501 186.724C138.23 186.742 138.973 186.761 139.735 186.794C139.787 186.794 139.834 186.799 139.881 186.799C140.544 186.822 141.211 186.851 141.898 186.888C142.378 186.912 142.862 186.935 143.346 186.963C143.802 186.992 144.263 187.02 144.729 187.053C145.091 187.072 145.453 187.1 145.82 187.123C146.13 187.147 146.441 187.17 146.751 187.189L147.174 187.217C147.405 187.236 147.635 187.25 147.87 187.274C148.387 187.316 148.905 187.358 149.431 187.401C149.953 187.448 150.485 187.495 151.016 187.542C151.547 187.589 152.084 187.64 152.62 187.692C152.676 187.697 152.728 187.701 152.78 187.706C153.269 187.758 153.758 187.805 154.251 187.857C154.364 187.866 154.482 187.875 154.595 187.889C155.065 187.937 155.545 187.992 156.02 188.043C156.166 188.058 156.311 188.073 156.458 188.089C156.83 188.13 157.197 188.165 157.571 188.209C158.065 188.265 158.568 188.317 159.057 188.383C159.438 188.425 159.819 188.468 160.2 188.515C160.797 188.585 161.404 188.66 162.01 188.74C162.241 188.768 162.471 188.797 162.702 188.83C164.432 189.046 166.182 189.286 167.959 189.535C170.654 189.915 173.39 190.329 176.146 190.776C178.906 191.222 181.682 191.694 184.474 192.191C185.18 192.317 185.885 192.444 186.595 192.576C186.915 192.637 187.234 192.698 187.554 192.759C188.1 192.858 188.645 192.961 189.191 193.065C189.736 193.168 190.282 193.272 190.827 193.38C191.476 193.507 192.13 193.634 192.779 193.761C197.053 194.607 201.304 195.509 205.452 196.454C206.134 196.609 206.816 196.769 207.493 196.924C208.847 197.239 210.189 197.559 211.518 197.883C211.885 197.968 212.247 198.057 212.609 198.146C213.512 198.372 214.415 198.598 215.304 198.828L215.459 198.87C216.112 199.03 216.752 199.195 217.391 199.364C218.901 199.759 220.385 200.158 221.845 200.562C222.813 200.83 223.771 201.101 224.718 201.376C226.133 201.785 227.521 202.198 228.87 202.617C229.204 202.72 229.538 202.823 229.867 202.922C230.855 203.228 231.828 203.538 232.773 203.848C233.526 204.093 234.259 204.342 234.983 204.591C235.708 204.84 236.418 205.089 237.114 205.338C237.56 205.498 238.002 205.667 238.444 205.827C239.079 206.062 239.705 206.297 240.316 206.532C240.504 206.603 240.688 206.678 240.871 206.749C240.988 206.8 241.101 206.843 241.214 206.89C241.435 206.979 241.661 207.063 241.877 207.153C242.098 207.237 242.315 207.327 242.531 207.421C242.742 207.505 242.959 207.595 243.166 207.684C243.377 207.769 243.584 207.858 243.791 207.952C243.965 208.022 244.134 208.098 244.299 208.173C244.633 208.319 244.967 208.464 245.291 208.615C245.451 208.69 245.611 208.76 245.771 208.836L246.138 209.005C246.189 209.033 246.241 209.057 246.293 209.08C246.41 209.136 246.533 209.198 246.65 209.254C246.923 209.381 247.191 209.517 247.454 209.644C247.807 209.823 248.15 210.001 248.48 210.175C248.813 210.354 249.138 210.533 249.448 210.706C249.5 210.735 249.547 210.763 249.599 210.791C249.669 210.829 249.74 210.871 249.81 210.909C250.05 211.045 250.281 211.186 250.511 211.322C250.962 211.6 251.39 211.872 251.79 212.145C251.879 212.206 251.964 212.267 252.053 212.324C252.35 212.535 252.632 212.742 252.895 212.953C252.895 212.958 252.895 212.958 252.9 212.958C252.989 213.024 253.074 213.094 253.158 213.16C253.229 213.226 253.304 213.282 253.375 213.348C253.619 213.56 253.845 213.762 254.052 213.969C254.121 214.033 254.187 214.1 254.249 214.171C254.277 214.194 254.302 214.219 254.325 214.246C254.419 214.34 254.503 214.434 254.583 214.528C254.596 214.541 254.607 214.555 254.616 214.57C254.729 214.702 254.833 214.834 254.931 214.965C254.978 215.031 255.03 215.097 255.072 215.163C255.129 215.243 255.185 215.327 255.232 215.407C255.275 215.473 255.312 215.543 255.35 215.609C255.45 215.779 255.535 215.956 255.604 216.14C255.657 216.265 255.699 216.394 255.731 216.526C255.766 216.651 255.793 216.778 255.811 216.907Z" fill="#2F2E41"/>
<path opacity="0.2" d="M255.811 216.907C255.806 217.729 255.797 218.881 255.759 220.305C255.755 220.503 255.745 220.705 255.74 220.911C255.693 222.909 255.623 225.377 255.524 228.165C255.52 228.334 255.515 228.498 255.505 228.668C255.374 232.071 255.167 236.034 254.809 242.309C254.146 253.901 252.99 243.903 251.828 247.969C248.602 245.985 245.066 243.907 241.285 241.773C240.603 241.388 239.915 241.001 239.221 240.612C231.659 236.396 223.214 231.977 214.396 227.601C214.048 227.427 213.696 227.253 213.348 227.083C193.151 217.104 171.105 207.397 153.245 200.92C149.798 199.669 146.507 198.541 143.413 197.549C136.895 195.467 131.261 194.01 126.926 193.38C122.411 192.722 119.294 192.957 118.033 194.315C117.986 193.356 117.938 192.438 117.887 191.56C117.869 191.269 117.85 190.982 117.831 190.7C117.86 190.623 117.898 190.549 117.934 190.475C117.94 190.464 117.943 190.452 117.949 190.442C117.958 190.417 117.969 190.394 117.982 190.371C117.995 190.342 118.011 190.314 118.029 190.287C118.044 190.253 118.063 190.222 118.085 190.193C118.127 190.127 118.174 190.056 118.226 189.99C118.264 189.941 118.305 189.894 118.348 189.849C118.363 189.827 118.38 189.806 118.4 189.788C118.419 189.769 118.438 189.746 118.461 189.722C118.471 189.708 118.484 189.695 118.499 189.685C118.536 189.642 118.577 189.603 118.621 189.567C118.789 189.413 118.968 189.272 119.157 189.144C119.223 189.102 119.294 189.06 119.359 189.013C119.833 188.729 120.332 188.49 120.85 188.298C121.029 188.232 121.207 188.171 121.4 188.105C121.471 188.087 121.537 188.063 121.607 188.04C121.711 188.007 121.814 187.974 121.922 187.95C122.458 187.791 123.037 187.654 123.662 187.527C123.85 187.49 124.048 187.452 124.245 187.419C124.405 187.391 124.57 187.363 124.734 187.335C126.131 187.114 127.716 186.949 129.465 186.841C129.63 186.832 129.794 186.822 129.959 186.813C130.152 186.803 130.344 186.794 130.542 186.785C130.706 186.775 130.876 186.77 131.045 186.766C131.21 186.756 131.379 186.752 131.553 186.747C132.028 186.733 132.517 186.719 133.015 186.709C134.435 186.686 135.931 186.695 137.502 186.728C138.23 186.742 138.973 186.766 139.735 186.799C139.782 186.799 139.834 186.803 139.881 186.803C140.544 186.822 141.216 186.855 141.898 186.888C142.378 186.911 142.862 186.935 143.347 186.963C143.803 186.991 144.264 187.02 144.729 187.052C145.091 187.071 145.453 187.1 145.82 187.123C146.131 187.147 146.441 187.17 146.751 187.189C147.123 187.217 147.494 187.245 147.87 187.273C148.388 187.316 148.905 187.358 149.432 187.4C149.954 187.447 150.485 187.494 151.016 187.541C151.548 187.588 152.084 187.64 152.62 187.692C152.676 187.696 152.728 187.701 152.78 187.706C153.269 187.758 153.758 187.805 154.252 187.856C156.989 188.134 159.805 188.458 162.702 188.829C164.433 189.05 166.185 189.287 167.959 189.539C170.654 189.92 173.391 190.334 176.146 190.775C178.907 191.222 181.683 191.694 184.474 192.19C185.18 192.317 185.885 192.444 186.595 192.576C187.461 192.736 188.326 192.899 189.191 193.065C189.737 193.168 190.282 193.271 190.828 193.38C191.476 193.507 192.13 193.633 192.779 193.76C197.054 194.606 201.305 195.509 205.452 196.454C206.134 196.609 206.816 196.769 207.493 196.924C208.847 197.239 210.189 197.558 211.518 197.883C211.885 197.972 212.247 198.061 212.609 198.151C213.517 198.376 214.415 198.602 215.304 198.828V198.832C215.356 198.842 215.407 198.856 215.459 198.87C216.108 199.035 216.752 199.199 217.392 199.368C218.901 199.763 220.386 200.161 221.845 200.562C222.814 200.835 223.773 201.103 224.718 201.375C226.134 201.789 227.521 202.203 228.871 202.616C229.204 202.72 229.538 202.823 229.867 202.922C230.855 203.232 231.824 203.541 232.774 203.848C233.526 204.092 234.26 204.342 234.984 204.591C235.708 204.84 236.418 205.089 237.114 205.338C237.565 205.498 238.007 205.662 238.445 205.822C239.084 206.057 239.705 206.292 240.316 206.532C240.504 206.603 240.688 206.678 240.871 206.748C241.215 206.88 241.548 207.016 241.878 207.153C242.099 207.237 242.315 207.327 242.531 207.421C242.743 207.505 242.959 207.594 243.166 207.684C243.378 207.768 243.585 207.858 243.791 207.952C243.965 208.022 244.135 208.097 244.299 208.173C244.633 208.318 244.967 208.464 245.292 208.615C245.451 208.69 245.611 208.76 245.771 208.835L246.138 209.005C246.19 209.033 246.241 209.056 246.293 209.08C246.693 209.268 247.079 209.456 247.455 209.644C247.807 209.823 248.151 210.001 248.48 210.175C248.87 210.382 249.242 210.584 249.599 210.791C249.67 210.828 249.74 210.871 249.811 210.908C250.05 211.045 250.281 211.186 250.511 211.322C250.963 211.599 251.391 211.872 251.79 212.145C252.185 212.417 252.552 212.685 252.895 212.953C252.895 212.958 252.895 212.958 252.9 212.958C253.065 213.09 253.225 213.221 253.375 213.348C253.62 213.56 253.845 213.762 254.052 213.969C254.122 214.032 254.188 214.1 254.25 214.171C254.277 214.193 254.302 214.219 254.325 214.246C254.424 214.354 254.523 214.462 254.617 214.57C254.729 214.702 254.833 214.833 254.932 214.965C254.979 215.031 255.03 215.097 255.073 215.163C255.129 215.242 255.186 215.327 255.233 215.407C255.275 215.473 255.313 215.543 255.35 215.609C255.45 215.779 255.535 215.956 255.604 216.14C255.656 216.266 255.698 216.394 255.731 216.526C255.767 216.651 255.793 216.778 255.811 216.907Z" fill="black"/>
</g>
<defs>
<clipPath id="clip0_28_1767">
<rect width="370" height="269" fill="white"/>
</clipPath>
</defs>
</svg>
