<svg width="589" height="484" viewBox="0 0 589 484" fill="none" xmlns="http://www.w3.org/2000/svg">
<g clip-path="url(#clip0_39_1054)">
<rect width="589" height="484" fill="white"/>
<path d="M479.347 48.6442C483.111 33.3078 479.532 15.422 467.374 5.33423C467.136 22.5044 460.827 39.0372 449.564 52.0074C445.202 56.9938 439.831 62.086 439.619 68.7052C439.488 72.8237 441.5 76.7796 444.273 79.8299C447.046 82.8802 450.544 85.163 454 87.4109L454.508 88.3058C465.635 77.0919 475.584 63.9806 479.347 48.6442Z" fill="#F0F0F0"/>
<path d="M467.129 5.55824C471.792 17.7698 472.486 31.1389 469.111 43.7667C468.433 46.4981 467.328 49.1055 465.837 51.4931C464.31 53.7721 462.199 55.6007 459.725 56.7891C457.441 57.9435 454.97 58.86 453.006 60.5491C452.014 61.4287 451.219 62.5079 450.673 63.716C450.127 64.9241 449.843 66.2339 449.84 67.5593C449.745 70.8617 450.843 74.0012 452.024 77.0341C453.335 80.4015 454.751 83.8785 454.448 87.5653C454.411 88.012 455.107 88.0428 455.144 87.5968C455.671 81.1823 451.311 75.7641 450.619 69.5424C450.296 66.6393 450.847 63.6213 452.996 61.5047C454.874 59.6537 457.421 58.7065 459.745 57.5576C462.175 56.4336 464.293 54.7321 465.914 52.6017C467.522 50.2976 468.725 47.737 469.473 45.0295C471.254 38.9609 472.069 32.6502 471.888 26.3286C471.721 19.1127 470.321 11.9785 467.746 5.23452C467.587 4.81717 466.971 5.14363 467.129 5.55824Z" fill="white"/>
<path d="M470.437 39.7645C472.634 40.0426 474.859 39.5313 476.714 38.3218C478.569 37.1123 479.933 35.2834 480.563 33.1617C480.689 32.732 480.026 32.5162 479.9 32.9465C479.317 34.9233 478.046 36.6268 476.317 37.7495C474.587 38.8723 472.513 39.3404 470.469 39.0693C470.024 39.0109 469.995 39.7065 470.437 39.7645Z" fill="white"/>
<path d="M460.961 56.3562C458.155 52.8057 456.792 48.3291 457.143 43.8188C457.178 43.372 456.482 43.3411 456.447 43.7873C456.091 48.4814 457.519 53.1372 460.447 56.8256C460.726 57.1769 461.239 56.7057 460.961 56.3562Z" fill="white"/>
<path d="M470.882 19.4988C470.009 19.5682 469.133 19.42 468.332 19.0674C467.531 18.7149 466.83 18.169 466.292 17.4789C466.017 17.1242 465.505 17.5958 465.778 17.9483C466.376 18.708 467.151 19.3099 468.035 19.7013C468.919 20.0928 469.886 20.262 470.851 20.1941C470.942 20.1953 471.031 20.1616 471.098 20.1C471.166 20.0384 471.207 19.9533 471.214 19.8622C471.218 19.7701 471.185 19.6803 471.123 19.6123C471.061 19.5442 470.974 19.5035 470.882 19.4988Z" fill="white"/>
<path d="M414.795 15.2627C414.96 15.4891 415.125 15.7154 415.289 15.9474C417.494 19.0023 419.448 22.2311 421.13 25.6021C421.265 25.8607 421.397 26.1247 421.523 26.3866C425.49 34.5511 427.905 43.3806 428.645 52.4259C428.936 56.0256 428.953 59.6421 428.695 63.2443C428.339 68.2191 427.556 73.5847 428.828 78.2492C428.956 78.7373 429.113 79.2171 429.3 79.6858L453.376 88.8553C453.442 88.8487 453.505 88.8476 453.57 88.8411L454.515 89.2512C454.541 89.0663 454.564 88.874 454.591 88.6892C454.606 88.582 454.617 88.4728 454.633 88.3657C454.641 88.2936 454.65 88.2213 454.662 88.1568C454.665 88.1328 454.668 88.1087 454.668 88.0902C454.68 88.0256 454.685 87.9644 454.695 87.9053C454.828 86.8309 454.954 85.7536 455.072 84.6735C455.074 84.668 455.074 84.668 455.071 84.6605C456.052 76.4391 456.054 68.1305 455.077 59.9087C455.044 59.6637 455.014 59.4134 454.971 59.1642C454.465 55.4968 453.659 51.8769 452.563 48.3407C451.956 46.4062 451.252 44.5037 450.453 42.6404C448.379 37.8299 445.561 33.3753 442.101 29.4399C435.204 21.5957 425.872 16.0429 415.582 15.3109C415.318 15.2924 415.06 15.2757 414.795 15.2627Z" fill="#F0F0F0"/>
<path d="M414.732 15.5887C425.814 22.5339 434.423 32.7913 439.338 44.9038C440.443 47.4926 441.132 50.2392 441.38 53.0424C441.534 55.7808 440.951 58.5105 439.691 60.9476C438.563 63.2436 437.142 65.4616 436.592 67.9916C436.33 69.2909 436.345 70.6309 436.638 71.9238C436.93 73.2167 437.492 74.4332 438.288 75.4937C440.203 78.1875 442.971 80.0335 445.742 81.7446C448.818 83.6446 452.043 85.5693 454.023 88.6954C454.263 89.0742 454.837 88.6802 454.597 88.302C451.153 82.8631 444.407 81.1599 440.105 76.6082C438.098 74.4843 436.72 71.7432 437.16 68.7609C437.544 66.1529 439.007 63.8644 440.17 61.5496C441.433 59.1901 442.099 56.5574 442.109 53.8814C442.004 51.0747 441.422 48.3062 440.388 45.6945C438.153 39.7777 435.001 34.2487 431.047 29.3102C426.566 23.6489 421.149 18.7952 415.029 14.9592C414.651 14.7219 414.356 15.3529 414.732 15.5887Z" fill="white"/>
<path d="M437.986 40.9105C439.908 39.8107 441.376 38.0641 442.128 35.9826C442.88 33.9011 442.867 31.6203 442.092 29.5474C441.933 29.1285 441.274 29.3547 441.433 29.7742C442.159 31.7031 442.171 33.8277 441.466 35.7646C440.762 37.7014 439.388 39.3229 437.592 40.3364C437.202 40.5571 437.598 41.1299 437.986 40.9105Z" fill="white"/>
<path d="M440.417 59.8586C436.038 58.7115 432.252 55.9573 429.814 52.145C429.573 51.7671 428.999 52.161 429.239 52.5384C431.783 56.5008 435.729 59.3591 440.29 60.5427C440.724 60.6552 440.85 59.9705 440.417 59.8586Z" fill="white"/>
<path d="M426.129 24.4616C425.474 25.042 424.685 25.4507 423.833 25.6512C422.981 25.8516 422.092 25.8374 421.247 25.6099C420.814 25.4919 420.689 26.1768 421.119 26.294C422.054 26.5411 423.036 26.5555 423.978 26.3362C424.92 26.1168 425.793 25.6703 426.523 25.0357C426.597 24.9816 426.647 24.9015 426.664 24.8117C426.681 24.7218 426.662 24.629 426.613 24.5519C426.561 24.4762 426.48 24.4242 426.39 24.4073C426.299 24.3904 426.205 24.4099 426.129 24.4616Z" fill="white"/>
<path d="M382.961 361.691C302.241 361.691 236.57 296.077 236.57 215.426C236.57 134.776 302.241 69.1619 382.961 69.1619C391.494 69.1608 400.012 69.8983 408.419 71.366C408.524 71.384 408.624 71.4226 408.714 71.4794C408.803 71.5363 408.881 71.6103 408.943 71.6972C409.004 71.7841 409.047 71.8823 409.07 71.986C409.094 72.0897 409.096 72.197 409.078 72.3017C409.059 72.4064 409.02 72.5064 408.963 72.5961C408.906 72.6857 408.832 72.7632 408.745 72.8242C408.658 72.8851 408.559 72.9283 408.455 72.9512C408.352 72.9741 408.244 72.9763 408.14 72.9577C399.825 71.5064 391.401 70.7771 382.961 70.778C303.133 70.778 238.188 135.667 238.188 215.426C238.188 295.186 303.133 360.075 382.961 360.075C462.788 360.075 527.733 295.186 527.733 215.426C527.769 179.376 514.296 144.618 489.967 117.996C489.824 117.837 489.749 117.628 489.76 117.415C489.77 117.202 489.865 117.001 490.023 116.857C490.181 116.714 490.389 116.638 490.603 116.647C490.816 116.656 491.017 116.75 491.162 116.907C515.763 143.827 529.387 178.973 529.351 215.426C529.351 296.077 463.68 361.691 382.961 361.691Z" fill="#E4E4E4"/>
<path d="M447.507 119.325C463.503 119.325 476.471 106.369 476.471 90.3868C476.471 74.4045 463.503 61.4482 447.507 61.4482C431.511 61.4482 418.544 74.4045 418.544 90.3868C418.544 106.369 431.511 119.325 447.507 119.325Z" fill="#FFD563"/>
<path d="M443.556 105.448C443.056 105.448 442.562 105.332 442.115 105.108C441.668 104.885 441.279 104.56 440.979 104.16L433.077 93.6335C432.823 93.2953 432.638 92.9105 432.533 92.501C432.428 92.0915 432.405 91.6653 432.465 91.2469C432.525 90.8284 432.667 90.4258 432.882 90.0621C433.098 89.6983 433.383 89.3806 433.721 89.127C434.06 88.8734 434.445 88.6888 434.855 88.5839C435.265 88.479 435.691 88.4558 436.11 88.5156C436.529 88.5754 436.932 88.717 437.296 88.9324C437.66 89.1478 437.978 89.4327 438.232 89.7709L443.401 96.6572L456.679 76.7586C457.154 76.0512 457.89 75.5608 458.727 75.395C459.563 75.2292 460.431 75.4015 461.141 75.8742C461.85 76.3468 462.344 77.0812 462.512 77.9164C462.681 78.7516 462.511 79.6195 462.04 80.3299L446.237 104.014C445.951 104.443 445.566 104.796 445.115 105.046C444.665 105.295 444.16 105.433 443.645 105.447C443.616 105.447 443.586 105.448 443.556 105.448Z" fill="white"/>
<path d="M379.194 192.728L334.53 68.5802L335.662 68.1734L327.448 45.3393L326.316 45.7465L312.602 7.62931C312.09 6.20567 311.302 4.89676 310.283 3.77732C309.265 2.65787 308.036 1.74982 306.666 1.10499C305.297 0.460168 303.813 0.0912013 302.301 0.0191698C300.788 -0.0528618 299.277 0.173449 297.852 0.685176L217.109 29.6837C215.684 30.1954 214.374 30.9825 213.253 32C212.133 33.0176 211.224 34.2457 210.578 35.6141C209.933 36.9826 209.564 38.4648 209.492 39.9759C209.419 41.487 209.646 42.9975 210.158 44.4211L219.72 70.9987L217.93 71.6873L224.034 87.5235L225.467 86.9722L226.734 90.4948L225.209 91.0815L231.313 106.918L232.481 106.468L276.75 229.52C277.26 230.945 278.046 232.256 279.064 233.377C280.082 234.498 281.312 235.407 282.682 236.052C284.053 236.697 285.537 237.066 287.05 237.137C288.564 237.207 290.076 236.979 291.501 236.464L372.243 207.466C375.119 206.429 377.466 204.295 378.769 201.533C380.072 198.77 380.225 195.603 379.194 192.728Z" fill="#3F3D56"/>
<path d="M287.255 232.372C286.118 232.37 285.009 232.018 284.079 231.364C283.15 230.709 282.444 229.785 282.059 228.716L214.764 41.6643C214.269 40.2866 214.341 38.7686 214.966 37.4443C215.59 36.1201 216.716 35.0978 218.094 34.6025L235.274 28.4326L235.248 29.0331C235.204 30.0756 235.417 31.1129 235.869 32.0537C236.321 32.9945 236.997 33.8099 237.838 34.428C238.68 35.0461 239.66 35.4479 240.694 35.5982C241.727 35.7484 242.782 35.6424 243.765 35.2895L281.891 21.5966C282.812 21.1753 283.62 20.5434 284.25 19.7522C284.881 18.9609 285.316 18.0325 285.521 17.042C285.724 16.068 285.693 15.0599 285.431 14.1C285.17 13.1401 284.685 12.2556 284.016 11.5187L283.614 11.0716L301.359 4.69807C302.738 4.2049 304.257 4.27827 305.582 4.90211C306.907 5.52595 307.93 6.64933 308.427 8.0259L372.632 186.489C373.943 190.145 373.748 194.171 372.091 197.684C370.435 201.197 367.451 203.91 363.795 205.227L289.127 232.044C288.526 232.261 287.893 232.372 287.255 232.372Z" fill="white"/>
<path d="M280.676 99.6999C292.736 99.6999 302.513 89.9314 302.513 77.8814C302.513 65.8314 292.736 56.063 280.676 56.063C268.616 56.063 258.839 65.8314 258.839 77.8814C258.839 89.9314 268.616 99.6999 280.676 99.6999Z" fill="#FFD563"/>
<path d="M334.788 109.611L259.165 136.771C258.929 136.856 258.678 136.894 258.427 136.883C258.176 136.871 257.93 136.81 257.702 136.704C257.475 136.597 257.271 136.446 257.102 136.261C256.933 136.075 256.802 135.858 256.717 135.622C256.632 135.386 256.595 135.135 256.607 134.884C256.619 134.634 256.68 134.388 256.788 134.161C256.895 133.934 257.046 133.73 257.232 133.562C257.418 133.393 257.636 133.263 257.873 133.179L333.496 106.019C333.972 105.849 334.497 105.875 334.954 106.091C335.411 106.307 335.764 106.695 335.935 107.171C336.106 107.646 336.081 108.17 335.866 108.628C335.651 109.085 335.264 109.439 334.788 109.611Z" fill="#E6E6E6"/>
<path d="M312.33 126.831L287.455 135.765C287.219 135.85 286.968 135.888 286.718 135.877C286.467 135.865 286.221 135.804 285.993 135.698C285.766 135.591 285.562 135.44 285.393 135.255C285.224 135.069 285.093 134.852 285.008 134.616C284.923 134.38 284.886 134.129 284.898 133.878C284.91 133.628 284.971 133.382 285.079 133.155C285.186 132.928 285.337 132.725 285.523 132.556C285.709 132.388 285.927 132.257 286.163 132.173L311.038 123.239C311.514 123.068 312.04 123.093 312.498 123.309C312.956 123.525 313.31 123.913 313.481 124.39C313.653 124.866 313.628 125.391 313.412 125.849C313.196 126.307 312.807 126.66 312.33 126.831Z" fill="#E6E6E6"/>
<path d="M318.247 143.276L293.373 152.21C293.137 152.295 292.886 152.332 292.636 152.32C292.385 152.309 292.139 152.247 291.912 152.141C291.686 152.034 291.482 151.883 291.313 151.698C291.144 151.512 291.014 151.296 290.929 151.06C290.844 150.824 290.807 150.574 290.819 150.323C290.831 150.073 290.892 149.827 290.999 149.601C291.106 149.374 291.256 149.17 291.442 149.002C291.627 148.833 291.844 148.703 292.08 148.618L316.955 139.684C317.432 139.513 317.957 139.538 318.415 139.754C318.874 139.97 319.227 140.358 319.399 140.835C319.57 141.311 319.545 141.836 319.329 142.294C319.113 142.752 318.724 143.105 318.247 143.276Z" fill="#E6E6E6"/>
<path d="M321.277 151.7L296.403 160.633C296.166 160.719 295.916 160.757 295.665 160.745C295.414 160.734 295.167 160.673 294.94 160.566C294.713 160.46 294.508 160.309 294.339 160.124C294.17 159.938 294.039 159.721 293.954 159.485C293.869 159.248 293.832 158.998 293.844 158.747C293.856 158.496 293.918 158.25 294.025 158.023C294.132 157.796 294.284 157.593 294.47 157.424C294.656 157.256 294.874 157.126 295.11 157.041L319.985 148.108C320.221 148.022 320.472 147.984 320.723 147.996C320.974 148.007 321.22 148.068 321.447 148.175C321.675 148.281 321.879 148.432 322.048 148.618C322.217 148.803 322.348 149.02 322.433 149.257C322.518 149.493 322.555 149.743 322.543 149.994C322.531 150.245 322.47 150.491 322.362 150.718C322.255 150.945 322.104 151.148 321.918 151.317C321.732 151.485 321.514 151.615 321.277 151.7Z" fill="#E6E6E6"/>
<path d="M329.197 129.928L276.422 148.882C276.185 148.968 275.935 149.006 275.684 148.994C275.433 148.983 275.187 148.922 274.959 148.815C274.732 148.708 274.528 148.558 274.359 148.372C274.19 148.187 274.059 147.97 273.974 147.733C273.889 147.497 273.851 147.247 273.864 146.996C273.876 146.745 273.937 146.499 274.044 146.272C274.152 146.045 274.303 145.842 274.489 145.673C274.675 145.505 274.893 145.375 275.129 145.29L327.905 126.336C328.141 126.251 328.392 126.213 328.643 126.224C328.894 126.236 329.14 126.297 329.367 126.403C329.595 126.51 329.799 126.66 329.968 126.846C330.137 127.032 330.268 127.249 330.353 127.485C330.438 127.721 330.475 127.972 330.463 128.223C330.451 128.473 330.39 128.719 330.282 128.946C330.175 129.173 330.024 129.377 329.838 129.545C329.652 129.714 329.434 129.844 329.197 129.928Z" fill="#E6E6E6"/>
<path d="M318.567 172.147L309.535 175.391C308.725 175.681 307.832 175.638 307.053 175.271C306.274 174.904 305.673 174.243 305.382 173.434C305.091 172.624 305.133 171.732 305.5 170.954C305.866 170.175 306.528 169.574 307.338 169.283L316.37 166.039C317.18 165.748 318.073 165.791 318.852 166.158C319.63 166.525 320.232 167.186 320.523 167.996C320.814 168.806 320.772 169.698 320.405 170.476C320.038 171.254 319.377 171.855 318.567 172.147Z" fill="#FFD563"/>
<path d="M247.394 29.0375C248.087 29.0375 248.65 28.4756 248.65 27.7825C248.65 27.0895 248.087 26.5276 247.394 26.5276C246.7 26.5276 246.138 27.0895 246.138 27.7825C246.138 28.4756 246.7 29.0375 247.394 29.0375Z" fill="white"/>
<path d="M102.945 98.3639C117.022 81.8074 139.863 71.3733 160.921 76.7829C141.955 90.8906 128.595 111.246 123.204 134.249C121.157 143.127 119.806 153.216 112.591 158.788C108.102 162.255 102.065 163.203 96.4267 162.574C90.7876 161.944 85.4205 159.888 80.1256 157.851L78.7178 158.007C82.259 136.572 88.8671 114.92 102.945 98.3639Z" fill="#F0F0F0"/>
<path d="M160.868 77.2356C143.484 81.887 128.008 91.8931 116.639 105.833C114.138 108.79 112.12 112.123 110.658 115.709C109.347 119.247 109.008 123.072 109.676 126.786C110.23 130.261 111.2 133.752 110.898 137.301C110.717 139.116 110.154 140.872 109.246 142.454C108.338 144.035 107.106 145.408 105.63 146.48C102.021 149.248 97.6329 150.556 93.2968 151.686C88.4825 152.94 83.462 154.167 79.5927 157.477C79.1239 157.878 78.5284 157.128 78.9965 156.727C85.7284 150.968 95.2891 151.457 102.789 147.211C106.288 145.23 109.211 142.183 109.841 138.083C110.391 134.499 109.395 130.898 108.804 127.384C108.098 123.771 108.289 120.04 109.359 116.517C110.634 112.869 112.521 109.464 114.939 106.448C120.274 99.5715 126.658 93.576 133.857 88.681C142.043 83.0489 151.132 78.8573 160.732 76.2876C161.326 76.1288 161.459 77.0778 160.868 77.2356Z" fill="white"/>
<path d="M120.036 101.129C117.954 98.9056 116.731 96.0154 116.585 92.9743C116.439 89.9332 117.38 86.9393 119.239 84.5273C119.617 84.0405 120.392 84.6044 120.014 85.0918C118.278 87.3347 117.402 90.1236 117.544 92.9552C117.685 95.7868 118.835 98.4745 120.786 100.533C121.21 100.981 120.457 101.574 120.036 101.129Z" fill="white"/>
<path d="M109.163 125.061C115.387 125.324 121.481 123.233 126.23 119.206C126.701 118.806 127.296 119.557 126.826 119.955C121.876 124.137 115.53 126.3 109.054 126.012C108.437 125.984 108.55 125.033 109.163 125.061Z" fill="white"/>
<path d="M142.289 84.2945C142.915 85.3224 143.787 86.1789 144.826 86.787C145.865 87.3951 147.039 87.7357 148.243 87.7784C148.86 87.7984 148.747 88.7495 148.134 88.7296C146.804 88.6763 145.508 88.2985 144.358 87.6292C143.208 86.9599 142.24 86.0195 141.538 84.8901C141.463 84.7892 141.429 84.6635 141.444 84.5385C141.458 84.4136 141.519 84.2988 141.615 84.2174C141.715 84.1391 141.842 84.1032 141.968 84.1176C142.094 84.132 142.209 84.1956 142.289 84.2945Z" fill="white"/>
<path d="M192.234 143.352C191.849 143.35 191.463 143.349 191.072 143.354C185.886 143.36 180.708 143.787 175.59 144.631C175.194 144.69 174.793 144.756 174.398 144.826C162.091 146.991 150.293 151.419 139.603 157.887C135.352 160.465 131.303 163.362 127.492 166.553C122.229 170.961 116.873 176.158 110.643 178.502C109.996 178.754 109.333 178.966 108.66 179.136L79.0179 159.711C78.9727 159.633 78.9227 159.561 78.8772 159.483L77.6582 158.762C77.8433 158.583 78.039 158.402 78.2241 158.224C78.331 158.12 78.4445 158.021 78.5515 157.917C78.6248 157.849 78.6986 157.781 78.7609 157.716C78.7852 157.693 78.8099 157.67 78.8298 157.655C78.8921 157.589 78.957 157.535 79.0149 157.476C80.1064 156.462 81.2069 155.453 82.3165 154.45C82.321 154.444 82.321 154.444 82.332 154.441C90.806 146.822 99.9911 139.843 109.944 134.479C110.244 134.318 110.547 134.15 110.86 133.997C115.36 131.604 120.048 129.583 124.878 127.953C127.525 127.069 130.216 126.319 132.939 125.707C139.978 124.139 147.221 123.687 154.401 124.367C168.714 125.726 182.433 131.643 191.546 142.514C191.779 142.793 192.006 143.067 192.234 143.352Z" fill="#F0F0F0"/>
<path d="M191.921 143.684C175.237 136.94 156.851 135.62 139.374 139.911C135.595 140.768 131.975 142.215 128.647 144.199C125.468 146.235 122.892 149.085 121.188 152.453C119.536 155.561 118.207 158.931 115.827 161.584C114.589 162.924 113.082 163.987 111.404 164.704C109.725 165.42 107.914 165.775 106.09 165.743C101.541 165.783 97.2487 164.187 93.1058 162.481C88.5059 160.586 83.7581 158.546 78.6741 158.861C78.0581 158.899 78.0348 157.942 78.6499 157.904C87.4951 157.355 94.8345 163.496 103.381 164.618C107.369 165.141 111.539 164.467 114.512 161.572C117.111 159.041 118.485 155.567 120.131 152.405C121.745 149.096 124.146 146.232 127.123 144.063C130.339 141.917 133.897 140.333 137.645 139.379C146.049 137.098 154.759 136.152 163.457 136.574C173.386 137.001 183.169 139.122 192.383 142.845C192.953 143.076 192.487 143.913 191.921 143.684Z" fill="white"/>
<path d="M144.921 138.199C144.598 135.171 145.363 132.128 147.079 129.612C148.795 127.096 151.351 125.271 154.289 124.464C154.884 124.303 155.163 125.219 154.567 125.381C151.83 126.127 149.449 127.827 147.856 130.173C146.263 132.519 145.562 135.357 145.879 138.174C145.947 138.787 144.989 138.807 144.921 138.199Z" fill="white"/>
<path d="M121.819 150.767C126.63 154.72 132.755 156.717 138.974 156.359C139.59 156.323 139.614 157.28 138.998 157.316C132.526 157.677 126.156 155.586 121.158 151.461C120.682 151.067 121.345 150.376 121.819 150.767Z" fill="white"/>
<path d="M172.832 138.144C172.713 139.341 172.893 140.549 173.356 141.66C173.819 142.771 174.551 143.749 175.487 144.507C175.968 144.894 175.304 145.586 174.827 145.201C173.797 144.359 172.99 143.277 172.475 142.051C171.96 140.825 171.754 139.492 171.874 138.168C171.875 138.042 171.924 137.921 172.01 137.83C172.097 137.739 172.215 137.684 172.341 137.677C172.468 137.675 172.591 137.722 172.682 137.809C172.774 137.897 172.828 138.017 172.832 138.144Z" fill="white"/>
<path d="M525.427 416.582C540.777 420.342 558.678 416.767 568.774 404.619C551.589 404.381 535.042 398.078 522.061 386.825C517.07 382.466 511.974 377.1 505.349 376.888C501.227 376.757 497.268 378.767 494.215 381.538C491.162 384.308 488.877 387.803 486.627 391.257L485.731 391.764C496.955 402.881 510.078 412.822 525.427 416.582Z" fill="#F0F0F0"/>
<path d="M568.551 404.375C556.329 409.034 542.948 409.727 530.31 406.355C527.576 405.677 524.966 404.573 522.577 403.084C520.296 401.558 518.465 399.449 517.276 396.977C516.121 394.694 515.203 392.226 513.513 390.264C512.632 389.272 511.552 388.478 510.343 387.932C509.134 387.387 507.823 387.104 506.496 387.1C503.191 387.005 500.049 388.103 497.014 389.283C493.643 390.593 490.163 392.007 486.473 391.704C486.026 391.667 485.995 392.363 486.442 392.399C492.862 392.926 498.285 388.57 504.512 387.879C507.417 387.556 510.438 388.107 512.556 390.253C514.409 392.13 515.357 394.675 516.507 396.996C517.632 399.425 519.335 401.541 521.467 403.16C523.773 404.767 526.336 405.969 529.046 406.716C535.119 408.496 541.436 409.31 547.763 409.129C554.985 408.963 562.125 407.563 568.875 404.991C569.293 404.832 568.966 404.216 568.551 404.375Z" fill="white"/>
<path d="M534.314 407.68C534.036 409.875 534.548 412.098 535.758 413.951C536.969 415.804 538.799 417.167 540.923 417.797C541.353 417.923 541.569 417.261 541.138 417.135C539.16 416.552 537.455 415.283 536.331 413.555C535.207 411.827 534.739 409.754 535.01 407.711C535.069 407.267 534.372 407.238 534.314 407.68Z" fill="white"/>
<path d="M517.709 398.211C521.263 395.408 525.743 394.046 530.257 394.397C530.704 394.432 530.735 393.736 530.289 393.701C525.591 393.345 520.931 394.772 517.239 397.698C516.888 397.977 517.359 398.489 517.709 398.211Z" fill="white"/>
<path d="M554.598 408.124C554.529 407.253 554.677 406.377 555.03 405.577C555.383 404.776 555.929 404.076 556.62 403.539C556.975 403.264 556.503 402.752 556.15 403.025C555.39 403.622 554.787 404.396 554.395 405.28C554.004 406.163 553.834 407.129 553.902 408.093C553.901 408.184 553.935 408.273 553.996 408.34C554.058 408.408 554.143 408.449 554.235 408.456C554.327 408.46 554.417 408.427 554.485 408.365C554.553 408.303 554.594 408.217 554.598 408.124Z" fill="white"/>
<path d="M558.837 352.085C558.611 352.25 558.384 352.415 558.152 352.578C555.095 354.782 551.863 356.734 548.489 358.415C548.23 358.549 547.966 358.681 547.704 358.807C539.532 362.771 530.695 365.183 521.642 365.923C518.039 366.214 514.42 366.231 510.814 365.973C505.835 365.617 500.465 364.835 495.797 366.106C495.308 366.233 494.828 366.391 494.359 366.577L485.181 390.633C485.188 390.698 485.189 390.762 485.196 390.827L484.785 391.771C484.97 391.797 485.163 391.82 485.348 391.847C485.455 391.862 485.564 391.873 485.671 391.888C485.744 391.897 485.816 391.906 485.881 391.918C485.905 391.921 485.929 391.923 485.947 391.924C486.012 391.936 486.073 391.941 486.132 391.95C487.208 392.083 488.286 392.209 489.367 392.328C489.372 392.33 489.372 392.33 489.38 392.326C497.608 393.307 505.924 393.309 514.153 392.332C514.398 392.3 514.649 392.27 514.898 392.226C518.569 391.72 522.192 390.916 525.731 389.82C527.667 389.214 529.571 388.511 531.436 387.713C536.251 385.64 540.709 382.824 544.648 379.368C552.499 372.476 558.056 363.153 558.789 352.871C558.808 352.608 558.824 352.35 558.837 352.085Z" fill="#F0F0F0"/>
<path d="M558.512 352.023C551.561 363.095 541.295 371.697 529.172 376.608C526.581 377.711 523.832 378.4 521.026 378.648C518.285 378.801 515.553 378.219 513.114 376.961C510.816 375.833 508.596 374.414 506.064 373.864C504.764 373.602 503.422 373.617 502.128 373.909C500.834 374.201 499.617 374.763 498.555 375.559C495.859 377.471 494.012 380.238 492.299 383.006C490.398 386.079 488.471 389.302 485.342 391.28C484.963 391.519 485.358 392.093 485.736 391.854C491.18 388.412 492.884 381.672 497.44 377.374C499.566 375.369 502.309 373.992 505.294 374.431C507.904 374.815 510.195 376.277 512.512 377.438C514.873 378.701 517.508 379.366 520.186 379.376C522.995 379.272 525.766 378.69 528.38 377.657C534.302 375.424 539.836 372.274 544.779 368.324C550.445 363.847 555.303 358.434 559.142 352.32C559.38 351.941 558.748 351.647 558.512 352.023Z" fill="white"/>
<path d="M533.168 375.256C534.269 377.176 536.017 378.643 538.1 379.395C540.184 380.146 542.467 380.133 544.541 379.359C544.96 379.2 544.734 378.542 544.314 378.7C542.384 379.426 540.257 379.437 538.319 378.734C536.38 378.03 534.757 376.657 533.743 374.863C533.522 374.473 532.949 374.869 533.168 375.256Z" fill="white"/>
<path d="M514.203 377.685C515.351 373.309 518.108 369.527 521.923 367.091C522.302 366.85 521.907 366.276 521.53 366.517C517.564 369.059 514.703 373.001 513.518 377.558C513.406 377.992 514.091 378.117 514.203 377.685Z" fill="white"/>
<path d="M549.63 363.41C549.049 362.755 548.64 361.967 548.44 361.116C548.239 360.264 548.253 359.376 548.481 358.532C548.599 358.099 547.914 357.974 547.796 358.404C547.549 359.338 547.535 360.319 547.754 361.26C547.974 362.201 548.421 363.074 549.056 363.803C549.11 363.877 549.19 363.927 549.28 363.944C549.37 363.961 549.463 363.943 549.54 363.893C549.616 363.841 549.668 363.761 549.685 363.67C549.702 363.579 549.682 363.486 549.63 363.41Z" fill="white"/>
<path d="M586.933 269.176L563.527 308.53L564.417 308.999L556.491 324.013L554.841 323.14L549.632 331.892L550.926 332.635L542.434 347.327L540.962 346.478L464.588 474.9C462.585 478.261 459.33 480.69 455.536 481.655C451.742 482.62 447.72 482.042 444.353 480.047L302.37 395.755C299.006 393.755 296.574 390.502 295.608 386.711C294.642 382.92 295.221 378.902 297.218 375.537L419.563 169.813C421.566 166.452 424.822 164.023 428.616 163.058C432.409 162.093 436.432 162.671 439.799 164.666L581.781 248.958C585.144 250.96 587.575 254.213 588.54 258.003C589.506 261.793 588.928 265.811 586.933 269.176Z" fill="#3F3D56"/>
<path d="M449.412 472.106L306.93 387.518C305.893 386.901 305.144 385.898 304.846 384.73C304.548 383.562 304.727 382.323 305.342 381.286L428.499 174.193C429.116 173.158 430.12 172.409 431.289 172.111C432.459 171.814 433.698 171.992 434.736 172.607L577.219 257.195C578.256 257.812 579.005 258.815 579.303 259.983C579.6 261.152 579.422 262.39 578.807 263.427L455.65 470.52C455.032 471.555 454.029 472.304 452.859 472.602C451.69 472.899 450.45 472.721 449.412 472.106Z" fill="white"/>
<path d="M507.941 211.628C508.634 211.628 509.197 211.066 509.197 210.373C509.197 209.68 508.634 209.118 507.941 209.118C507.247 209.118 506.685 209.68 506.685 210.373C506.685 211.066 507.247 211.628 507.941 211.628Z" fill="white"/>
<path d="M500.167 359.976L381.23 289.366C380.857 289.147 380.531 288.856 380.271 288.51C380.011 288.164 379.821 287.771 379.714 287.352C379.606 286.933 379.582 286.497 379.644 286.068C379.705 285.64 379.851 285.228 380.072 284.857C380.293 284.485 380.585 284.16 380.932 283.901C381.279 283.643 381.674 283.455 382.094 283.349C382.514 283.243 382.95 283.221 383.378 283.284C383.807 283.347 384.218 283.494 384.59 283.717L503.527 354.327C503.9 354.546 504.226 354.837 504.486 355.183C504.746 355.529 504.936 355.922 505.043 356.341C505.151 356.76 505.175 357.196 505.113 357.624C505.052 358.053 504.906 358.464 504.685 358.836C504.464 359.208 504.172 359.533 503.825 359.791C503.478 360.05 503.083 360.238 502.663 360.344C502.243 360.45 501.807 360.472 501.379 360.408C500.95 360.345 500.539 360.198 500.167 359.976Z" fill="#E6E6E6"/>
<path d="M452.676 349.035L413.555 325.809C413.183 325.589 412.859 325.298 412.6 324.952C412.342 324.606 412.154 324.213 412.047 323.795C411.94 323.377 411.917 322.942 411.979 322.515C412.041 322.087 412.186 321.677 412.407 321.306C412.627 320.935 412.919 320.611 413.265 320.352C413.611 320.094 414.004 319.906 414.423 319.8C414.842 319.693 415.277 319.67 415.705 319.732C416.132 319.794 416.543 319.939 416.914 320.16L456.036 343.385C456.408 343.606 456.732 343.897 456.99 344.243C457.249 344.588 457.437 344.981 457.543 345.399C457.65 345.818 457.673 346.253 457.611 346.68C457.549 347.107 457.404 347.517 457.184 347.888C456.963 348.259 456.671 348.583 456.326 348.842C455.98 349.1 455.586 349.288 455.168 349.394C454.749 349.501 454.314 349.524 453.886 349.462C453.459 349.4 453.048 349.255 452.676 349.035Z" fill="#E6E6E6"/>
<path d="M437.294 374.899L398.173 351.674C397.423 351.229 396.881 350.504 396.666 349.66C396.451 348.815 396.58 347.92 397.026 347.171C397.471 346.422 398.196 345.88 399.042 345.665C399.887 345.45 400.783 345.579 401.532 346.024L440.654 369.25C441.026 369.47 441.35 369.762 441.608 370.107C441.867 370.453 442.055 370.846 442.161 371.264C442.268 371.682 442.291 372.117 442.229 372.544C442.168 372.971 442.022 373.382 441.802 373.753C441.581 374.124 441.289 374.448 440.943 374.706C440.598 374.965 440.204 375.152 439.786 375.259C439.367 375.365 438.932 375.388 438.504 375.327C438.077 375.265 437.666 375.12 437.294 374.899Z" fill="#E6E6E6"/>
<path d="M429.416 388.147L390.294 364.921C389.922 364.701 389.597 364.41 389.337 364.065C389.077 363.719 388.889 363.326 388.781 362.907C388.674 362.488 388.651 362.053 388.712 361.625C388.774 361.197 388.919 360.786 389.14 360.414C389.361 360.043 389.653 359.718 390 359.46C390.346 359.201 390.74 359.014 391.16 358.907C391.579 358.801 392.015 358.779 392.443 358.841C392.871 358.904 393.282 359.05 393.654 359.272L432.776 382.498C433.149 382.717 433.475 383.008 433.735 383.354C433.995 383.699 434.185 384.093 434.292 384.512C434.4 384.931 434.424 385.367 434.362 385.795C434.301 386.224 434.155 386.635 433.934 387.007C433.713 387.379 433.421 387.704 433.074 387.962C432.727 388.221 432.332 388.409 431.912 388.515C431.492 388.621 431.056 388.643 430.627 388.579C430.199 388.516 429.787 388.369 429.416 388.147Z" fill="#E6E6E6"/>
<path d="M467.034 374.811L384.031 325.535C383.285 325.088 382.747 324.363 382.534 323.521C382.321 322.678 382.451 321.785 382.895 321.038C383.339 320.291 384.062 319.75 384.904 319.534C385.747 319.318 386.641 319.444 387.391 319.885L470.394 369.162C470.767 369.382 471.093 369.672 471.353 370.018C471.614 370.364 471.803 370.757 471.911 371.176C472.018 371.596 472.042 372.032 471.981 372.46C471.919 372.888 471.774 373.3 471.553 373.672C471.331 374.044 471.039 374.368 470.692 374.627C470.345 374.886 469.95 375.073 469.53 375.179C469.11 375.285 468.674 375.307 468.246 375.244C467.817 375.181 467.406 375.034 467.034 374.811Z" fill="#E6E6E6"/>
<path d="M451.213 437.787L437.008 429.354C435.735 428.596 434.815 427.364 434.45 425.929C434.086 424.494 434.306 422.973 435.063 421.7C435.82 420.427 437.052 419.506 438.488 419.14C439.924 418.774 441.447 418.993 442.721 419.748L456.926 428.181C458.201 428.938 459.123 430.17 459.489 431.606C459.855 433.042 459.635 434.564 458.877 435.838C458.12 437.112 456.887 438.033 455.449 438.398C454.012 438.764 452.488 438.544 451.213 437.787Z" fill="#FFD563"/>
<path d="M477.717 300.864C493.797 300.864 506.833 287.839 506.833 271.773C506.833 255.706 493.797 242.681 477.717 242.681C461.636 242.681 448.601 255.706 448.601 271.773C448.601 287.839 461.636 300.864 477.717 300.864Z" fill="#FFD563"/>
<path d="M0.342773 389.989H394.368V162.069C394.366 160.361 393.686 158.724 392.477 157.516C391.269 156.309 389.63 155.629 387.921 155.627H6.7896C5.08042 155.629 3.44179 156.309 2.23319 157.516C1.0246 158.724 0.344747 160.361 0.342773 162.069V389.989Z" fill="#CACACA"/>
<path d="M382.194 164.536H12.5166V374.228H382.194V164.536Z" fill="white"/>
<path d="M5.30059e-10 383.822V411.947C-1.27449e-05 413.113 0.229829 414.268 0.676403 415.345C1.12298 416.422 1.77754 417.401 2.60271 418.225C3.42789 419.05 4.40752 419.704 5.48567 420.15C6.56381 420.596 7.71936 420.826 8.88634 420.826H154.318V476.333H152.386C152.234 476.333 152.084 476.362 151.944 476.42C151.804 476.478 151.677 476.563 151.57 476.67C151.462 476.778 151.377 476.905 151.319 477.045C151.261 477.185 151.232 477.335 151.232 477.486V481.347C151.232 481.498 151.261 481.648 151.319 481.788C151.377 481.928 151.462 482.055 151.57 482.162C151.677 482.269 151.804 482.354 151.944 482.412C152.084 482.47 152.234 482.5 152.386 482.5H242.668C242.82 482.5 242.97 482.47 243.11 482.412C243.25 482.354 243.377 482.269 243.484 482.162C243.591 482.055 243.676 481.928 243.734 481.788C243.792 481.648 243.822 481.498 243.822 481.347V477.486C243.822 477.335 243.792 477.185 243.734 477.045C243.676 476.905 243.591 476.778 243.484 476.67C243.377 476.563 243.25 476.478 243.11 476.42C242.97 476.362 242.82 476.333 242.668 476.333H240.736V420.826H386.168C387.335 420.826 388.49 420.596 389.568 420.15C390.646 419.704 391.626 419.05 392.451 418.225C393.276 417.401 393.931 416.422 394.377 415.345C394.824 414.268 395.054 413.113 395.054 411.947V383.822L5.30059e-10 383.822Z" fill="#3F3D56"/>
<path d="M328.702 234.665H153.637C152.533 234.665 151.475 234.227 150.694 233.447C149.914 232.667 149.476 231.61 149.476 230.507C149.476 229.405 149.914 228.347 150.694 227.567C151.475 226.788 152.533 226.35 153.637 226.35H328.702C329.805 226.35 330.864 226.788 331.644 227.567C332.424 228.347 332.863 229.405 332.863 230.507C332.863 231.61 332.424 232.667 331.644 233.447C330.864 234.227 329.805 234.665 328.702 234.665Z" fill="#E6E6E6"/>
<path d="M269.961 253.433H212.377C211.274 253.433 210.215 252.995 209.435 252.216C208.654 251.436 208.216 250.378 208.216 249.275C208.216 248.173 208.654 247.115 209.435 246.335C210.215 245.556 211.274 245.118 212.377 245.118H269.961C271.065 245.118 272.123 245.556 272.904 246.335C273.684 247.115 274.122 248.173 274.122 249.275C274.122 250.378 273.684 251.436 272.904 252.216C272.123 252.995 271.065 253.433 269.961 253.433Z" fill="#E6E6E6"/>
<path d="M269.961 291.503H212.377C211.274 291.503 210.215 291.065 209.435 290.286C208.654 289.506 208.216 288.448 208.216 287.346C208.216 286.243 208.654 285.185 209.435 284.406C210.215 283.626 211.274 283.188 212.377 283.188H269.961C271.065 283.188 272.123 283.626 272.904 284.406C273.684 285.185 274.122 286.243 274.122 287.346C274.122 288.448 273.684 289.506 272.904 290.286C272.123 291.065 271.065 291.503 269.961 291.503Z" fill="#E6E6E6"/>
<path d="M269.961 311.003H212.377C211.831 311.003 211.289 310.895 210.785 310.686C210.28 310.477 209.821 310.171 209.435 309.785C209.048 309.399 208.742 308.941 208.533 308.436C208.323 307.932 208.216 307.391 208.216 306.845C208.216 306.299 208.323 305.758 208.533 305.254C208.742 304.75 209.048 304.291 209.435 303.905C209.821 303.519 210.28 303.213 210.785 303.004C211.289 302.795 211.831 302.687 212.377 302.688H269.961C270.507 302.687 271.048 302.795 271.553 303.004C272.058 303.213 272.517 303.519 272.903 303.905C273.29 304.291 273.596 304.75 273.805 305.254C274.014 305.758 274.122 306.299 274.122 306.845C274.122 307.391 274.014 307.932 273.805 308.436C273.596 308.941 273.29 309.399 272.903 309.785C272.517 310.171 272.058 310.477 271.553 310.686C271.048 310.895 270.507 311.003 269.961 311.003Z" fill="#E6E6E6"/>
<path d="M302.255 272.201H180.082C178.978 272.201 177.92 271.763 177.14 270.983C176.359 270.204 175.921 269.146 175.921 268.044C175.921 266.941 176.359 265.883 177.14 265.104C177.92 264.324 178.978 263.886 180.082 263.886H302.255C303.359 263.886 304.417 264.324 305.198 265.104C305.978 265.883 306.417 266.941 306.417 268.044C306.417 269.146 305.978 270.204 305.198 270.983C304.417 271.763 303.359 272.201 302.255 272.201Z" fill="#E6E6E6"/>
<path d="M325.786 350.926H304.878C303.001 350.926 301.201 350.181 299.874 348.855C298.547 347.529 297.802 345.731 297.802 343.856C297.802 341.981 298.547 340.183 299.874 338.857C301.201 337.531 303.001 336.786 304.878 336.786H325.786C327.663 336.786 329.463 337.531 330.79 338.857C332.117 340.183 332.862 341.981 332.862 343.856C332.862 345.731 332.117 347.529 330.79 348.855C329.463 350.181 327.663 350.926 325.786 350.926Z" fill="#FFD563"/>
<path d="M98.5868 299.612C118.687 299.612 134.982 283.332 134.982 263.248C134.982 243.165 118.687 226.884 98.5868 226.884C78.4862 226.884 62.1914 243.165 62.1914 263.248C62.1914 283.332 78.4862 299.612 98.5868 299.612Z" fill="#FFD563"/>
<path d="M524.485 484H0.963153C0.708231 483.999 0.464007 483.898 0.28401 483.717C0.104014 483.537 0.00292969 483.293 0.00292969 483.038C0.00292969 482.783 0.104014 482.539 0.28401 482.358C0.464007 482.178 0.708231 482.076 0.963153 482.076H524.485C524.74 482.076 524.985 482.178 525.165 482.358C525.345 482.539 525.446 482.783 525.446 483.038C525.446 483.293 525.345 483.537 525.165 483.717C524.985 483.898 524.74 483.999 524.485 484Z" fill="#CACACA"/>
<path d="M197.184 160.082C197.942 160.082 198.556 159.468 198.556 158.711C198.556 157.954 197.942 157.341 197.184 157.341C196.427 157.341 195.812 157.954 195.812 158.711C195.812 159.468 196.427 160.082 197.184 160.082Z" fill="white"/>
</g>
<defs>
<clipPath id="clip0_39_1054">
<rect width="589" height="484" fill="white"/>
</clipPath>
</defs>
</svg>
