<svg width="48" height="48" viewBox="0 0 48 48" fill="none" xmlns="http://www.w3.org/2000/svg">
<path d="M35.9998 31.5C35.1917 31.4997 34.392 31.6632 33.6488 31.9806C32.9057 32.2981 32.2346 32.7628 31.6761 33.3469L17.8011 25.5403C18.0698 24.531 18.0698 23.469 17.8011 22.4597L31.6761 14.6531C32.6864 15.7006 34.0441 16.3438 35.4946 16.4622C36.9452 16.5806 38.3891 16.166 39.5559 15.2962C40.7228 14.4264 41.5324 13.161 41.8332 11.737C42.134 10.3131 41.9053 8.8283 41.19 7.56087C40.4746 6.29344 39.3217 5.33031 37.9472 4.85191C36.5727 4.37351 35.071 4.41267 33.7233 4.96205C32.3756 5.51144 31.2744 6.53335 30.6261 7.83634C29.9778 9.13933 29.8268 10.634 30.2014 12.0403L16.3264 19.8469C15.4976 18.9827 14.4292 18.3863 13.2587 18.1344C12.0881 17.8824 10.8689 17.9864 9.758 18.4331C8.64705 18.8797 7.69515 19.6485 7.02475 20.6406C6.35434 21.6327 5.99609 22.8027 5.99609 24C5.99609 25.1974 6.35434 26.3674 7.02475 27.3594C7.69515 28.3515 8.64705 29.1203 9.758 29.567C10.8689 30.0136 12.0881 30.1176 13.2587 29.8657C14.4292 29.6137 15.4976 29.0173 16.3264 28.1531L30.2014 35.9597C29.8797 37.1708 29.9453 38.4523 30.3889 39.6242C30.8326 40.7962 31.632 41.7998 32.6751 42.4943C33.7182 43.1888 34.9526 43.5393 36.205 43.4965C37.4574 43.4538 38.6649 43.02 39.6582 42.256C40.6516 41.492 41.3807 40.4362 41.7435 39.2368C42.1062 38.0373 42.0843 36.7543 41.6807 35.5679C41.2772 34.3816 40.5124 33.3513 39.4935 32.6217C38.4747 31.8922 37.253 31.4999 35.9998 31.5Z" fill="white"/>
</svg>
