<svg width="96" height="96" viewBox="0 0 96 96" fill="none" xmlns="http://www.w3.org/2000/svg">
<rect width="96" height="96" fill="transparent"/>
<path d="M34.6971 69.1407L35.9814 69.825C37.4439 70.5938 39.0752 71.2875 40.7908 71.8032L42.1689 72.2344V78.675C42.1689 80.2219 43.2002 80.5688 44.0627 80.5688H51.7877C52.6502 80.5688 53.6814 80.2219 53.6814 78.675V72.2344L55.0596 71.8032C56.7752 71.2875 58.4064 70.6031 59.8689 69.825L61.1533 69.1407L62.1846 70.1719C63.9846 71.9719 65.1939 73.2657 65.7096 73.6032C66.1408 74.0344 66.5721 74.2875 66.9939 74.2875C67.7627 74.2875 68.4564 73.6875 68.4564 73.6032L73.9502 68.1094C74.5502 67.5094 75.0658 66.4781 73.9502 65.3625L69.4033 60.8157L70.0877 59.5313C70.8564 58.0688 71.5502 56.4375 72.0658 54.7219L72.4971 53.3438H78.9377C80.4846 53.3438 80.8314 52.3125 80.8314 51.45V43.725C80.8314 42.8625 80.4846 41.8313 78.9377 41.8313H72.4971L72.0658 40.4532C71.4658 38.8219 70.8658 37.1907 70.0033 35.7282L69.3189 34.4438L70.3502 33.4125L73.8752 29.8875C74.3064 29.4563 74.5596 29.025 74.5596 28.6032C74.5596 28.0031 74.1283 27.4031 73.8752 27.1406L68.3627 21.6563C68.1939 21.4875 67.5939 20.9719 66.9002 20.9719C66.4689 20.9719 66.0377 21.1406 65.6158 21.6563L61.0689 26.2031L59.7846 25.5188C58.3221 24.75 56.6908 24.0563 55.0596 23.5407L53.6814 23.1938V16.6688C53.6814 15.0375 52.3033 14.775 51.7033 14.775H44.0627C43.4627 14.775 42.1689 15.0281 42.1689 16.6688V23.1938L40.7908 23.625C39.1596 24.1406 37.5283 24.7407 36.0658 25.6032L34.7814 26.2875L30.1502 21.6563C29.7189 21.225 29.2877 21.0563 28.9502 21.0563C28.2658 21.0563 27.5721 21.5719 27.4033 21.7406L21.9096 27.15C21.5627 27.5813 20.7096 28.6969 21.9096 29.8969L26.4564 34.4531L25.7721 35.7375C25.0033 37.2 24.3096 38.8313 23.7939 40.4625L23.3627 41.8407H16.9221C15.3752 41.925 15.0283 43.125 15.0283 43.9032V51.5438C15.0283 52.1438 15.2814 53.4375 16.9221 53.4375H23.3627L23.7939 54.8157C24.3096 56.5313 24.9939 58.0782 25.7721 59.625L26.4564 60.9094L21.9096 65.4563C20.7939 66.5719 21.4783 67.6875 21.9096 68.2032L27.3189 73.6125C27.4877 73.6969 28.1814 74.2125 28.7814 74.2125C29.2127 74.2125 29.5502 74.0438 29.9814 73.6125L34.6971 69.1407Z" fill="white"/>
<path class="fillChange" d="M46.5374 65.5407H46.4624C46.1342 65.5125 45.8061 65.4751 45.478 65.4375C44.9624 65.3719 44.6061 64.8938 44.6717 64.3782C44.7374 63.8626 45.2155 63.5063 45.7311 63.5719C46.0217 63.6094 46.3217 63.6469 46.6124 63.6657C47.128 63.7032 47.5124 64.1626 47.4749 64.6782C47.428 65.1751 47.0155 65.5407 46.5374 65.5407ZM50.2686 65.4375C49.8092 65.4375 49.4061 65.1001 49.3405 64.6313C49.2655 64.1157 49.6311 63.6469 50.1374 63.5719C50.428 63.5344 50.7186 63.4875 51.0092 63.4313C51.5155 63.3282 52.0124 63.6657 52.1061 64.1719C52.1999 64.6782 51.8717 65.1751 51.3655 65.2688C51.0467 65.3344 50.7186 65.3907 50.3905 65.4282C50.3624 65.4376 50.3155 65.4375 50.2686 65.4375ZM41.9717 64.5282C41.8592 64.5282 41.7561 64.5094 41.6436 64.4719C41.3342 64.3594 41.0249 64.2282 40.7249 64.0969C40.2467 63.8907 40.0311 63.3376 40.2467 62.8594C40.453 62.3813 41.0061 62.1657 41.4842 62.3813C41.7561 62.5032 42.028 62.6157 42.3092 62.7188C42.7967 62.8969 43.0405 63.4407 42.8624 63.9282C42.7124 64.2938 42.3561 64.5282 41.9717 64.5282ZM54.7686 64.1719C54.4124 64.1719 54.0655 63.9657 53.9061 63.6094C53.6999 63.1313 53.9155 62.5782 54.3842 62.3719C54.6561 62.25 54.9186 62.1282 55.1811 61.9969C55.6405 61.7626 56.203 61.9501 56.4374 62.4094C56.6717 62.8688 56.4842 63.4313 56.0249 63.6657C55.7342 63.8157 55.4342 63.9563 55.1342 64.0875C55.0217 64.1438 54.8999 64.1719 54.7686 64.1719ZM37.8655 62.3063C37.6686 62.3063 37.4811 62.2501 37.3124 62.1282C37.0499 61.9313 36.7874 61.7251 36.5342 61.5188C36.1311 61.1907 36.0749 60.6 36.403 60.1969C36.7311 59.7938 37.3217 59.7376 37.7249 60.0657C37.9499 60.2532 38.1842 60.4407 38.428 60.6094C38.8499 60.9188 38.9342 61.5 38.6249 61.9219C38.4374 62.175 38.1467 62.3063 37.8655 62.3063ZM58.7436 61.7157C58.4717 61.7157 58.2092 61.6032 58.0217 61.3782C57.6936 60.9751 57.7499 60.3844 58.1436 60.0563C58.3686 59.8688 58.5936 59.6719 58.8092 59.4751C59.1936 59.1282 59.7842 59.1469 60.1311 59.5313C60.478 59.9157 60.4592 60.5063 60.0749 60.8532C59.8311 61.0782 59.5874 61.2938 59.3342 61.5C59.1655 61.6501 58.9499 61.7157 58.7436 61.7157ZM34.5092 59.0532C34.228 59.0532 33.9561 58.9313 33.7686 58.6969C33.5624 58.4344 33.3655 58.1719 33.178 57.9C32.878 57.4782 32.9905 56.8876 33.4124 56.5969C33.8342 56.2969 34.4249 56.4094 34.7155 56.8313C34.8842 57.0751 35.0624 57.3094 35.2405 57.5438C35.5592 57.9563 35.4842 58.5375 35.0811 58.8563C34.9124 58.9875 34.7155 59.0532 34.5092 59.0532ZM61.903 58.2844C61.7155 58.2844 61.528 58.2282 61.3686 58.1157C60.9467 57.8251 60.8342 57.2344 61.1342 56.8125C61.303 56.5688 61.4624 56.325 61.6217 56.0719C61.8936 55.6313 62.4748 55.4907 62.9155 55.7626C63.3561 56.0344 63.4967 56.6157 63.2249 57.0563C63.0561 57.3375 62.8686 57.6094 62.6811 57.8813C62.4936 58.1438 62.203 58.2844 61.903 58.2844ZM32.1655 55.0126C31.7999 55.0126 31.4436 54.7969 31.2936 54.4313C31.1717 54.1313 31.0499 53.8125 30.9467 53.5032C30.778 53.0157 31.0405 52.4813 31.528 52.3125C32.0155 52.1438 32.5499 52.4063 32.7186 52.8938C32.8124 53.1751 32.9155 53.4469 33.028 53.7188C33.2249 54.1969 32.9905 54.75 32.5124 54.9375C32.4092 54.9844 32.2874 55.0126 32.1655 55.0126ZM64.0217 54.1126C63.9186 54.1126 63.8155 54.0938 63.7217 54.0657C63.2342 53.8969 62.9717 53.3625 63.1405 52.875C63.2342 52.5938 63.328 52.3125 63.403 52.0313C63.5436 51.5344 64.0592 51.2438 64.5561 51.3844C65.053 51.525 65.3436 52.0407 65.203 52.5376C65.1092 52.8563 65.0155 53.175 64.9124 53.4844C64.7717 53.8688 64.4061 54.1126 64.0217 54.1126ZM31.0217 50.4844C30.553 50.4844 30.1405 50.1282 30.0936 49.65C30.0561 49.3219 30.028 48.9938 30.0092 48.6657C29.9811 48.15 30.3749 47.7094 30.8905 47.6813C31.4061 47.6532 31.8467 48.0469 31.8749 48.5625C31.8936 48.8532 31.9124 49.1532 31.9499 49.4438C32.0061 49.9594 31.6405 50.4188 31.1249 50.4751C31.0874 50.4844 31.0499 50.4844 31.0217 50.4844ZM64.9124 49.5282H64.8561C64.3405 49.5 63.9467 49.0594 63.9749 48.5438C63.9936 48.2532 64.003 47.9532 64.003 47.6625C64.003 47.1469 64.4249 46.725 64.9405 46.725C65.4561 46.725 65.878 47.1469 65.878 47.6625C65.878 47.9907 65.8686 48.3188 65.8499 48.6469C65.8217 49.1438 65.4092 49.5282 64.9124 49.5282ZM31.1436 45.8157C31.0967 45.8157 31.0405 45.8157 30.9936 45.8063C30.478 45.7219 30.1405 45.2438 30.2249 44.7282C30.2811 44.4 30.3374 44.0813 30.4124 43.7532C30.5249 43.2469 31.0217 42.9282 31.528 43.0407C32.0342 43.1532 32.353 43.65 32.2405 44.1563C32.1749 44.4469 32.1186 44.7375 32.0717 45.0282C31.9874 45.4875 31.5936 45.8157 31.1436 45.8157ZM64.6967 45.7407C64.2467 45.7407 63.853 45.4125 63.778 44.9625C63.7311 44.6719 63.6749 44.3813 63.6092 44.0907C63.4967 43.5844 63.8155 43.0875 64.3124 42.9657C64.8186 42.8532 65.3155 43.1719 65.4374 43.6688C65.5124 43.9875 65.578 44.3157 65.6249 44.6438C65.7092 45.1501 65.3624 45.6376 64.8561 45.7219C64.7999 45.7407 64.753 45.7407 64.6967 45.7407ZM32.5217 41.3532C32.3905 41.3532 32.2499 41.325 32.1186 41.2594C31.6499 41.0344 31.453 40.4813 31.6686 40.0125C31.8092 39.7125 31.9592 39.4219 32.1186 39.1313C32.3624 38.6719 32.9342 38.5032 33.3936 38.7563C33.853 39 34.0217 39.5719 33.7686 40.0313C33.628 40.2938 33.4967 40.5563 33.3655 40.8188C33.2155 41.1563 32.878 41.3532 32.5217 41.3532ZM63.2905 41.2875C62.9436 41.2875 62.6061 41.0907 62.4467 40.7532C62.3249 40.4907 62.1842 40.2188 62.0436 39.9657C61.7999 39.5157 61.9592 38.9438 62.4186 38.6907C62.8686 38.4469 63.4405 38.6063 63.6936 39.0657C63.853 39.3563 64.003 39.6469 64.1436 39.9469C64.3686 40.4157 64.1717 40.9782 63.703 41.1938C63.5624 41.2594 63.4311 41.2875 63.2905 41.2875ZM35.0811 37.4344C34.8655 37.4344 34.6405 37.3594 34.4624 37.2C34.0686 36.8625 34.0311 36.2719 34.3686 35.8782C34.5842 35.6344 34.8092 35.3813 35.0342 35.1469C35.3905 34.7719 35.9905 34.7626 36.3561 35.1282C36.7311 35.4844 36.7405 36.0844 36.3749 36.45C36.1686 36.6563 35.9717 36.8813 35.7749 37.1063C35.6061 37.3313 35.3436 37.4344 35.0811 37.4344ZM60.7311 37.3875C60.4686 37.3875 60.2155 37.275 60.028 37.0688C59.8311 36.8438 59.6342 36.6282 59.428 36.4219C59.0624 36.0469 59.0717 35.4563 59.4467 35.1C59.8124 34.7344 60.4124 34.7438 60.7686 35.1188C60.9936 35.3532 61.228 35.5969 61.4436 35.8407C61.7811 36.2344 61.7436 36.825 61.3592 37.1625C61.1624 37.3125 60.9467 37.3875 60.7311 37.3875ZM38.5967 34.3594C38.2874 34.3594 37.9967 34.2094 37.8092 33.9375C37.528 33.5063 37.6499 32.9251 38.0811 32.6438C38.353 32.4657 38.6342 32.2876 38.9249 32.1282C39.3749 31.8657 39.9467 32.025 40.2092 32.4657C40.4717 32.9157 40.3217 33.4875 39.8717 33.75C39.6186 33.9 39.3655 34.05 39.1217 34.2188C38.953 34.3125 38.7749 34.3594 38.5967 34.3594ZM57.1967 34.3313C57.0186 34.3313 56.8405 34.2844 56.6905 34.1813C56.4467 34.0219 56.1936 33.8626 55.9311 33.7219C55.4811 33.4594 55.3311 32.8875 55.5842 32.4375C55.8374 31.9875 56.4186 31.8375 56.8686 32.0907C57.1499 32.25 57.4405 32.4282 57.7124 32.6063C58.1436 32.8875 58.2655 33.4688 57.9842 33.9001C57.8061 34.1813 57.5061 34.3313 57.1967 34.3313ZM42.8155 32.3626C42.4124 32.3626 42.0467 32.1094 41.9249 31.7063C41.7655 31.2094 42.0467 30.6844 42.5342 30.5344C42.8436 30.4313 43.1717 30.3469 43.4811 30.2625C43.9874 30.1313 44.4936 30.4407 44.6249 30.9375C44.7561 31.4438 44.4467 31.9501 43.9499 32.0813C43.6686 32.1563 43.378 32.2313 43.0967 32.325C43.003 32.3438 42.9092 32.3626 42.8155 32.3626ZM52.9686 32.3438C52.8749 32.3438 52.7811 32.3344 52.6874 32.2969C52.4061 32.2125 52.1249 32.1282 51.8342 32.0625C51.328 31.9407 51.028 31.425 51.1499 30.9282C51.2717 30.4219 51.7874 30.1219 52.2842 30.2438C52.603 30.3282 52.9217 30.4125 53.2405 30.5063C53.7374 30.6563 54.0092 31.1813 53.8592 31.6782C53.7374 32.0813 53.3717 32.3438 52.9686 32.3438ZM47.4186 31.5844C46.9124 31.5844 46.4999 31.1813 46.4811 30.6751C46.4624 30.1594 46.8749 29.7282 47.3905 29.7094C47.7186 29.7 48.0561 29.7 48.3749 29.7094C48.8905 29.7188 49.303 30.1501 49.2842 30.6751C49.2749 31.1813 48.853 31.5844 48.3467 31.5844H48.3186C48.028 31.575 47.728 31.575 47.428 31.5844H47.4186Z" fill="#A688FF"/>
<path d="M51.7877 82.4156H44.0627C41.8127 82.4156 40.2939 80.9062 40.2939 78.6468V73.5843L40.2471 73.5656C38.4846 73.0312 36.7596 72.3281 35.1096 71.4562L35.0064 71.4L31.2846 74.925C30.7877 75.4125 29.9908 76.0593 28.7721 76.0593C27.7502 76.0593 26.8877 75.525 26.4752 75.2625C26.4564 75.2531 26.4471 75.2437 26.4283 75.2343L26.2033 75.1218L20.5221 69.4406L20.4658 69.375C19.0408 67.6687 19.0877 65.5969 20.5783 64.0969L24.1502 60.525L24.0939 60.4218C23.4377 59.1187 22.6127 57.3656 22.0033 55.3218L21.9846 55.275H16.9221C14.3346 55.275 13.1533 53.325 13.1533 51.5062V43.875C13.1533 42.0187 14.2877 40.0781 16.8096 39.9375H21.9752L21.9939 39.8812C22.5377 38.1562 23.2689 36.4219 24.1033 34.8375L24.1408 34.7718L20.5689 31.2C20.0064 30.6375 18.3283 28.5843 20.4283 25.95L20.4939 25.8656L26.0721 20.3812C26.2033 20.25 27.3752 19.1531 28.9314 19.1531C29.8221 19.1531 30.7221 19.5656 31.4627 20.3062L35.1189 23.9625L35.1471 23.9437C36.8721 22.9312 38.7658 22.275 40.2189 21.8156L40.2846 21.7969V16.65C40.2846 14.0625 42.2346 12.8812 44.0533 12.8812H51.6939C52.1627 12.8812 53.0627 12.9656 53.9158 13.5094C54.9658 14.1844 55.5377 15.2906 55.5377 16.6406V21.7031L55.6033 21.7219C57.3189 22.2656 59.0627 22.9875 60.6377 23.8312L60.7033 23.8687L64.2189 20.3531C65.1377 19.2937 66.1783 19.0594 66.8814 19.0594C68.3158 19.0594 69.3752 20.0062 69.6658 20.2969L75.1596 25.7906C75.7596 26.3906 76.3971 27.4312 76.3971 28.575C76.3971 29.4937 75.9846 30.3656 75.1596 31.1906L71.5877 34.7625L71.6064 34.7906C72.5439 36.3843 73.1721 38.1093 73.7908 39.7781L73.8377 39.9281H78.9002C81.1502 39.9281 82.6689 41.4375 82.6689 43.6968V51.4218C82.6689 53.6718 81.1596 55.1906 78.9002 55.1906H73.8377L73.8189 55.2375C73.2846 57 72.5814 58.7343 71.7096 60.375L71.6721 60.4406L75.2439 64.0125C76.1533 64.9218 76.5752 66.0375 76.4158 67.1625C76.3033 67.9781 75.9002 68.7562 75.2439 69.4125L69.8721 74.8125C69.2064 75.6562 67.9502 76.1437 66.9846 76.1437C66.1127 76.1437 65.2783 75.7687 64.4908 75.0281C64.0033 74.6625 63.3939 74.0437 62.1939 72.8343C61.7908 72.4312 61.3408 71.9718 60.8533 71.475L60.8064 71.4281L60.7408 71.4656C59.0908 72.3375 57.3658 73.05 55.6033 73.575L55.5564 73.5937V78.6562C55.5564 80.9062 54.0377 82.4156 51.7877 82.4156ZM44.0439 78.6656H51.7877V70.8281L54.4971 69.9843C56.0346 69.525 57.5346 68.9062 58.9689 68.1468L61.4814 66.8062L63.4971 68.8218C64.0033 69.3281 64.4533 69.7875 64.8564 70.2C65.6533 71.0156 66.4877 71.85 66.7314 72.0281L66.8908 72.1312L67.0127 72.2625L67.0596 72.3093L72.6002 66.7687C72.6189 66.75 72.6283 66.7312 72.6471 66.7219C72.6377 66.7031 72.6189 66.6937 72.6002 66.675L67.0689 61.1437L68.4096 58.6312C69.1689 57.2062 69.7783 55.6968 70.2471 54.1687L70.2564 54.15L71.1002 51.4594H78.9377V43.725V43.7156H71.1002L70.2752 41.0718C69.6939 39.4875 69.1408 37.9968 68.3721 36.6937L68.3346 36.6281L66.9939 34.1156L72.5252 28.5843L72.5721 28.5375C72.5533 28.5187 72.5439 28.5 72.5252 28.4812L67.0314 22.9875C67.0127 22.9781 67.0033 22.9593 66.9752 22.9406L61.4064 28.4906L58.8939 27.15C57.5346 26.4281 56.0252 25.8 54.5439 25.3219L51.8064 24.6375V16.65V16.6406C51.7689 16.6312 51.7408 16.6312 51.7033 16.6312H44.0627H44.0533V24.5437L41.3627 25.3875C40.0877 25.7906 38.4377 26.3625 37.0314 27.1875L36.9658 27.225L34.4533 28.5656L28.8564 22.9687C28.8002 22.9969 28.7533 23.0344 28.7158 23.0625L23.3252 28.3687C23.2783 28.425 23.2502 28.4719 23.2221 28.5094L23.2502 28.5375L28.7814 34.0687L27.4408 36.5812C26.7096 37.9594 26.0721 39.4781 25.6033 40.9875L24.7689 43.6687H17.0158C16.9971 43.6687 16.9783 43.6781 16.9596 43.6781C16.9502 43.725 16.9408 43.7812 16.9408 43.8562V51.5062H24.7689L25.6127 54.2156C26.0252 55.5843 26.5971 56.9718 27.4596 58.7062L28.7908 61.2L23.2596 66.7312L23.2314 66.7593C23.2502 66.7968 23.2783 66.8437 23.3252 66.9L28.5002 72.075C28.5564 72.1031 28.6314 72.1593 28.7158 72.1968L34.4158 66.8062L36.8908 68.1281C38.3158 68.8875 39.8252 69.4968 41.3533 69.9656L41.3721 69.975L44.0627 70.8187V78.6562C44.0439 78.6562 44.0439 78.6656 44.0439 78.6656ZM28.7252 23.0437L28.7064 23.0625C28.7158 23.0531 28.7252 23.0531 28.7252 23.0437Z" fill="#A688FF"/>
<path d="M61.4532 56.9156L60.4219 55.9593L60.7594 55.3218C63.2813 50.5593 62.3625 44.5781 58.5282 40.7812C55.3782 37.6593 50.8313 36.4968 46.6219 37.6406L54.0094 44.9531C55.7063 46.6312 55.7157 49.3781 54.0375 51.075L51.4125 53.7281C50.5969 54.5531 49.5188 55.0031 48.3563 55.0125H48.3375C47.1938 55.0125 46.1063 54.5718 45.2907 53.7562L37.9032 46.4437C36.8063 50.6625 38.0157 55.1999 41.1657 58.3218C45 62.1187 50.9907 62.9718 55.725 60.4031L56.3625 60.0562L73.4344 78.1312C73.9594 78.6937 74.6719 79.0031 75.4407 79.0124C76.2094 79.0218 76.9313 78.7218 77.4657 78.1781L78.7594 76.875C79.3032 76.3312 79.5844 75.6093 79.575 74.8406C79.5563 74.0718 79.2375 73.3593 78.675 72.8437L61.8 57.225L61.4532 56.9156Z" fill="#E6E6E6"/>
<path d="M62.7375 55.5469C63.8906 53.0531 64.3125 50.2219 63.9094 47.4938C64.3125 50.2313 63.8906 53.0625 62.7375 55.5469ZM81.2719 73.6406C81.3094 73.7906 81.3469 73.9407 81.375 74.1C81.3469 73.9407 81.3188 73.7906 81.2719 73.6406Z" fill="#A688FF"/>
<path d="M81.3749 74.1C81.3468 73.95 81.3093 73.7907 81.2718 73.6407C81.2437 73.5375 81.2156 73.4344 81.1781 73.3313C80.9249 72.6282 80.5124 71.9907 79.9499 71.4657L63.0749 55.8469L62.7468 55.5469C63.8999 53.0532 64.3218 50.2219 63.9187 47.4938C63.4687 44.4188 62.0624 41.6438 59.8499 39.45C55.8093 35.4563 49.7999 34.2469 44.5312 36.375L43.2093 36.9094L52.6874 46.2844C53.1562 46.7438 53.4093 47.3625 53.4187 48.0188C53.4187 48.675 53.1656 49.2938 52.7062 49.7532L50.0812 52.4063C49.6218 52.875 49.0031 53.1282 48.3468 53.1375H48.3374C47.6906 53.1375 47.0718 52.8844 46.6124 52.425L37.1249 43.05L36.6093 44.3813C34.5374 49.6688 35.8124 55.6688 39.8531 59.6625C42.0656 61.8563 44.8593 63.225 47.9343 63.6469C50.6718 64.0125 53.4937 63.5719 55.9781 62.3907L72.0749 79.4344C72.9562 80.3625 74.1468 80.8875 75.4218 80.8969H75.4781C76.7343 80.8969 77.9156 80.4094 78.8062 79.5094L80.0999 78.2063C80.9999 77.2969 81.4781 76.0875 81.4499 74.8125C81.4406 74.5688 81.4218 74.325 81.3749 74.1ZM75.4406 79.0219C74.6718 79.0125 73.9593 78.7032 73.4343 78.1407L56.3624 60.0657L55.7249 60.4125C50.9906 62.9813 44.9999 62.1282 41.1656 58.3313C38.0156 55.2094 36.8062 50.6813 37.9031 46.4532L45.2906 53.7657C46.1062 54.5719 47.1843 55.0219 48.3374 55.0219H48.3562C49.5093 55.0125 50.5968 54.5625 51.4124 53.7375L54.0374 51.0844C55.7156 49.3875 55.7062 46.6407 54.0093 44.9625L46.6218 37.65C50.8312 36.5063 55.3781 37.6688 58.5281 40.7907C62.3624 44.5875 63.2812 50.5594 60.7593 55.3313L60.4218 55.9688L61.4531 56.925L61.7906 57.2438L78.6656 72.8625C79.2281 73.3875 79.5468 74.0907 79.5656 74.8594C79.5843 75.6282 79.2937 76.35 78.7499 76.8938L77.4656 78.1875C76.9312 78.7313 76.2093 79.0219 75.4406 79.0219Z" fill="#A688FF"/>
<path d="M78.6092 72.45C78.3842 72.45 78.1499 72.3656 77.9717 72.1969L62.6342 58.0031C62.2499 57.6469 62.2311 57.0562 62.5874 56.6812C62.9436 56.2969 63.5342 56.2781 63.9092 56.6344L79.2467 70.8281C79.6311 71.1844 79.6499 71.775 79.2936 72.15C79.1061 72.3469 78.853 72.45 78.6092 72.45Z" fill="#D0C2FC"/>
</svg>
