<svg width="421" height="425" viewBox="0 0 421 425" fill="none" xmlns="http://www.w3.org/2000/svg">
<g clip-path="url(#clip0_36_775)">
<path d="M94.4235 70.9755L91.2139 87.7708L107.216 92.2672L105.228 74.3363L94.4235 70.9755Z" fill="#A0616A"/>
<path d="M0 418.64C0 419.168 0.425301 419.592 0.954915 419.592H420.045C420.575 419.592 421 419.168 421 418.64C421 418.112 420.575 417.688 420.045 417.688H0.954915C0.425301 417.688 0 418.112 0 418.64Z" fill="#3F3D56"/>
<path d="M285.688 190.594H120.657C101.943 190.594 86.7715 205.716 86.7715 224.369V383.871C86.7715 402.524 101.943 417.646 120.657 417.646H285.688C304.402 417.646 319.573 402.524 319.573 383.871V224.369C319.573 205.716 304.402 190.594 285.688 190.594Z" fill="white"/>
<path d="M285.687 418.445H120.657C101.53 418.445 85.9688 402.935 85.9688 383.871V224.369C85.9688 205.305 101.53 189.795 120.657 189.795H285.688C304.814 189.795 320.376 205.305 320.376 224.369V383.871C320.376 402.935 304.814 418.445 285.687 418.445ZM120.657 191.394C102.415 191.394 87.5736 206.187 87.5736 224.369V383.871C87.5736 402.053 102.415 416.845 120.657 416.845H285.688C303.93 416.845 318.771 402.053 318.771 383.871V224.369C318.771 206.187 303.93 191.394 285.688 191.394L120.657 191.394Z" fill="#3F3D56"/>
<path d="M297.641 259.744H231.308C228.494 259.744 226.205 257.463 226.205 254.658C226.205 251.854 228.494 249.573 231.308 249.573H297.641C300.455 249.573 302.744 251.854 302.744 254.658C302.744 257.463 300.455 259.744 297.641 259.744Z" fill="#DEA8E0"/>
<path d="M235.412 299.739H170.933C169.307 299.739 167.984 298.421 167.984 296.8C167.984 295.18 169.307 293.862 170.933 293.862H235.412C237.037 293.862 238.36 295.18 238.36 296.8C238.36 298.421 237.037 299.739 235.412 299.739Z" fill="#DEA8E0"/>
<path d="M144.277 201.518H107.465C107.327 201.518 107.216 201.629 107.216 201.766V206.037C107.216 206.174 107.327 206.285 107.465 206.285H144.277C144.415 206.285 144.526 206.174 144.526 206.037V201.766C144.526 201.629 144.415 201.518 144.277 201.518Z" fill="#DEA8E0"/>
<path d="M268.274 206.285C270.387 206.285 272.101 204.578 272.101 202.471C272.101 200.365 270.387 198.657 268.274 198.657C266.161 198.657 264.447 200.365 264.447 202.471C264.447 204.578 266.161 206.285 268.274 206.285Z" fill="#3F3D56"/>
<path d="M278.797 206.285C280.911 206.285 282.624 204.578 282.624 202.471C282.624 200.365 280.911 198.657 278.797 198.657C276.684 198.657 274.971 200.365 274.971 202.471C274.971 204.578 276.684 206.285 278.797 206.285Z" fill="#3F3D56"/>
<path d="M289.321 206.285C291.434 206.285 293.148 204.578 293.148 202.471C293.148 200.365 291.434 198.657 289.321 198.657C287.207 198.657 285.494 200.365 285.494 202.471C285.494 204.578 287.207 206.285 289.321 206.285Z" fill="#3F3D56"/>
<path d="M120.255 315.468C120.255 315.996 120.68 316.42 121.21 316.42H285.134C285.664 316.42 286.089 315.996 286.089 315.468C286.089 314.941 285.664 314.517 285.134 314.517H121.21C120.68 314.517 120.255 314.941 120.255 315.468Z" fill="#3F3D56"/>
<path d="M170.249 80.7113C173.739 77.8371 178.056 77.3022 179.89 79.5161C181.725 81.7301 180.383 85.8539 176.892 88.7286C175.513 89.896 173.874 90.7173 172.111 91.1238L157.17 103.115L151.674 96.0073L166.986 84.9402C167.719 83.2911 168.838 81.841 170.249 80.7113Z" fill="#A0616A"/>
<path d="M83.8932 107.768C83.8856 107.238 83.8906 102.612 87.3266 99.6878C91.2736 96.3291 96.843 97.6885 98.7964 98.1653C103.309 99.2668 103.679 101.196 107.917 103.179C115.845 106.888 105.911 104.989 110.629 103.8C112.262 103.388 135.754 101.764 141.601 98.1769C152.974 91.2 160.724 86.9692 160.724 86.9692L165.789 97.0676C165.789 97.0676 158.464 107.22 148.155 114.74C137.58 122.455 132.292 126.312 124.256 127.803C123.564 127.931 106.545 130.827 92.8378 120.62C89.7112 118.292 83.9825 114.026 83.8932 107.768Z" fill="#E6E6E6"/>
<path d="M99.608 82.0855C109.354 82.0855 117.255 74.2105 117.255 64.4962C117.255 54.782 109.354 46.907 99.608 46.907C89.8618 46.907 81.9609 54.782 81.9609 64.4962C81.9609 74.2105 89.8618 82.0855 99.608 82.0855Z" fill="#A0616A"/>
<path d="M237.814 182.668L219.639 164.125L210.258 173.879L223.798 191.658L237.229 193.189L237.814 182.668Z" fill="#A0616A"/>
<path d="M134.038 147.897C135.101 147.985 138.479 148.659 141.708 146.889C143.912 145.68 145.042 143.884 145.424 143.312C150.159 136.223 168.334 125.17 184.646 124.489C188.34 124.335 190.771 124.762 192.981 125.91C196.115 127.538 197.366 129.87 201.343 135.334C203.518 138.322 205.925 141.138 208.126 144.107C221.014 161.491 225.9 162.856 225.401 168.429C224.847 174.613 218.156 180.479 213.709 179.802C211.888 179.525 211.183 178.263 208.749 175.707C201.615 168.215 198.663 169.6 193.584 163.861C187.654 157.161 188.43 151.606 185.336 151.391C182.467 151.192 181.248 155.932 175.122 162.227C172.319 165.108 170.323 166.429 164.243 170.634C140.563 187.008 140.185 188.158 135.406 189.464C133.316 190.036 118.476 194.091 113.19 187.637C104.917 177.539 124.46 147.103 134.038 147.897Z" fill="#2F2E41"/>
<path d="M232.257 186.858C233.594 186.26 235.156 185.56 235.659 183.952C235.999 182.863 235.804 181.521 235.1 180.594C234.289 179.524 233.088 179.383 233.136 179.193C233.21 178.905 236.05 179.018 239.168 180.116C239.757 180.324 242.422 181.294 245.812 183.933C248.529 186.046 248.163 186.47 249.867 187.689C255.095 191.43 260 188.481 262.829 191.99C263.921 193.344 264.386 195.267 263.927 196.821C263.004 199.943 258.516 201.017 256.064 201.572C250.157 202.908 245.686 201.817 241.017 201.033C225.14 198.366 216.22 200.795 215.026 197.129C214.8 196.435 215.167 196.494 216.391 191.402C217.599 186.376 217.56 184.996 218.589 184.594C220.138 183.988 221.178 186.744 225.08 187.687C228.538 188.522 231.391 187.245 232.257 186.858Z" fill="#2F2E41"/>
<path d="M205.503 243.327L200.911 217.812L187.653 220.632L188.841 242.922L199.092 251.706L205.503 243.327Z" fill="#A0616A"/>
<path d="M139.224 156.473C140.054 157.141 142.469 159.59 146.138 159.932C148.642 160.165 150.59 159.311 151.227 159.052C159.139 155.837 180.406 156.863 194.286 165.429C197.43 167.369 199.201 169.083 200.383 171.27C202.059 174.371 201.78 177.001 201.993 183.748C202.109 187.438 202.514 191.115 202.663 194.804C203.533 216.402 206.807 220.266 203.254 224.598C199.312 229.405 190.47 230.514 187.172 227.465C185.822 226.216 185.949 224.777 185.375 221.301C183.693 211.108 180.471 210.601 179.501 203.01C178.368 194.147 182.14 189.985 179.701 188.076C177.439 186.305 173.76 189.544 165.145 191.325C161.203 192.14 158.807 192.116 151.407 192.192C122.588 192.487 121.627 193.228 116.937 191.634C114.885 190.936 100.322 185.986 99.5831 177.688C98.4274 164.701 131.745 150.456 139.224 156.473Z" fill="#2F2E41"/>
<path d="M198.544 243.684C199.987 243.937 201.675 244.233 202.997 243.184C203.892 242.473 204.486 241.253 204.426 240.092C204.358 238.753 203.443 237.964 203.59 237.834C203.814 237.637 206.1 239.32 208.061 241.974C208.431 242.475 210.09 244.77 211.409 248.85C212.466 252.12 211.925 252.266 212.647 254.228C214.866 260.25 220.585 260.555 220.95 265.042C221.09 266.773 220.393 268.625 219.137 269.654C216.614 271.72 212.296 270.097 209.954 269.184C204.314 266.983 201.228 263.578 197.807 260.316C186.172 249.224 177.422 246.24 178.5 242.539C178.704 241.838 178.974 242.092 182.856 238.564C186.687 235.082 187.432 233.918 188.51 234.161C190.133 234.526 189.441 237.389 192.139 240.353C194.529 242.98 197.609 243.52 198.544 243.684Z" fill="#2F2E41"/>
<path d="M102.014 67.8588C102.701 65.4093 101.838 64.5166 102.717 63.4171C102.717 63.4171 103.071 62.9747 106.235 61.7808C105.302 56.3819 106.001 55.469 106.001 55.469C106.806 54.4168 108.42 54.1625 109.519 54.3001C111.842 54.5912 112.254 56.6848 113.741 56.6378C115.794 56.5729 118.258 52.4751 117.493 48.9234C116.869 46.0263 114.18 43.8747 113.506 44.2481C112.838 44.6182 110.431 42.9859 109.519 43.313C108.896 43.5363 105.962 43.2392 105.297 43.5467C104.571 43.8826 102.491 45.9739 102.292 45.7104C100.91 43.8794 100.939 43.2401 100.137 42.8454C98.7166 42.1462 97.1719 43.4386 94.5085 44.7156C89.0283 47.3429 87.4237 45.7757 84.8924 47.9884C83.6137 49.1061 82.928 51.2423 81.6088 55.469C79.764 61.38 78.8416 64.3355 79.7325 67.1575C80.6412 70.0353 81.9792 69.409 83.9542 73.4692C86.1527 77.989 85.395 80.6161 87.4723 81.6512C89.0778 82.4511 91.658 81.942 92.6321 80.4823C94.3 77.9832 89.9891 74.6025 91.4595 70.664C92.362 68.2464 95.1464 66.4132 96.8538 66.9237C98.7845 67.5009 98.9267 70.9512 100.137 70.8978C101.174 70.852 101.894 68.2856 102.014 67.8588Z" fill="#2F2E41"/>
<path d="M88.6454 84.6902C92.2566 80.6544 106.966 84.8315 108.347 91.2357C108.914 93.8698 106.818 94.9821 107.408 98.015C108.272 102.451 113.161 102.149 116.79 106.664C121.942 113.076 116.634 119.342 122.419 130.041C123.655 132.328 124.697 134.255 126.875 136.119C131.874 140.399 136.526 138.931 139.071 142.899C140.974 145.866 140.192 149.523 140.009 150.379C139.258 153.892 137.222 154.748 135.788 157.626C133.401 162.415 136.103 165.931 136.257 171.652C136.449 178.811 132.632 188.734 124.999 191.99C116.423 195.648 106.081 189.59 101.076 183.575C98.0895 179.985 97.2226 176.674 95.916 172.587C90.077 154.323 86.7782 155.975 82.3128 141.496C77.2081 124.945 76.2046 105.554 82.3128 99.4176C83.1224 98.6043 85.3505 96.7245 86.7691 93.3396C88.6779 88.7848 87.0289 86.4967 88.6454 84.6902Z" fill="#E6E6E6"/>
<path d="M142.004 178.638C144.804 182.183 145.238 186.497 142.974 188.273C140.71 190.048 136.605 188.613 133.805 185.066C132.667 183.664 131.882 182.011 131.516 180.245L119.844 165.073L125.875 160.487L137.84 175.286C139.477 176.055 140.905 177.205 142.004 178.638Z" fill="#A0616A"/>
<path d="M99.2556 100.071C99.7749 99.9552 104.319 99.0162 107.892 101.772C111.996 104.938 111.798 110.65 111.728 112.653C111.567 117.281 109.747 118.036 108.665 122.575C106.64 131.068 110.496 138.961 112.627 143.321C113.365 144.83 115.734 149.449 120.451 154.423C129.624 164.096 137.809 169.187 137.809 169.187L129.016 176.977C129.016 176.977 115.01 172.722 105.52 164.197C95.7846 155.452 80.814 124.513 77.7105 116.976C77.4432 116.327 81.2291 126.879 88.4576 111.421C90.1063 107.895 93.1273 101.435 99.2556 100.071Z" fill="#E6E6E6"/>
<path d="M219.816 337.256C214.227 338.11 210.139 341.676 210.685 345.221C211.23 348.766 216.203 350.947 221.794 350.092C224.032 349.781 226.162 348.94 228.007 347.64L251.642 343.725L250.064 334.413L226.483 337.739C224.331 337.049 222.045 336.884 219.816 337.256Z" fill="#FFB6B6"/>
<path d="M321.662 308.231L312.498 327.613L266.428 343.071L228.199 345.104L227.241 335.952L268.672 327.318L311.186 307.293L321.662 308.231Z" fill="#E6E6E6"/>
<path d="M236.691 381.827L228.463 402.57L217.815 395.334L224.107 373.626L236.691 381.827Z" fill="#FFB6B6"/>
<path d="M202.329 374.109L180.55 394.852L189.261 404.017L211.524 386.651L202.329 374.109Z" fill="#FFB6B6"/>
<path d="M325.743 306.574L325.501 304.885L319.935 294.031L301.544 298.855L304.932 313.81L325.743 306.574Z" fill="#FFB6B6"/>
<path d="M317.999 378.932L318.565 386.178C318.565 386.178 320.903 416.559 302.028 418.971C283.153 421.383 274.925 423.795 263.793 404.982L246.37 374.109L236.193 386.178L222.655 375.556C222.655 375.556 232.335 337.929 240.079 336.482C241.046 336.301 242.014 336.211 242.967 336.191C249.378 336.058 255.421 339.183 259.257 344.305L281.217 373.626L289.202 370.008L317.999 378.932Z" fill="#2F2E41"/>
<path d="M213.46 401.605L217.816 393.404L230.4 402.087C230.4 402.087 233.304 412.7 228.948 414.147C224.592 415.594 212.492 413.665 212.492 413.665C212.492 413.665 190.229 418.489 189.746 414.147C189.262 409.806 199.909 408.841 199.909 408.841L213.46 401.605Z" fill="#2F2E41"/>
<path d="M260.89 395.816L227.254 374.692L210.073 390.028L198.457 376.521C198.457 376.521 219.752 345.165 226.044 343.718C232.336 342.271 242.499 341.306 242.499 341.306L273.474 369.767L260.89 395.816Z" fill="#2F2E41"/>
<path d="M180.066 392.922L191.197 404.982L189.729 406.233C189.729 406.233 186.841 418.77 180.066 414.529C173.29 410.288 172.806 409.323 172.806 409.323C172.806 409.323 153.447 413.665 151.511 405.946C149.575 398.228 154.899 399.675 154.899 399.675L159.733 402.57L180.066 392.922Z" fill="#2F2E41"/>
<path d="M307.352 304.162C315.905 304.162 322.839 297.25 322.839 288.725C322.839 280.2 315.905 273.289 307.352 273.289C298.798 273.289 291.864 280.2 291.864 288.725C291.864 297.25 298.798 304.162 307.352 304.162Z" fill="#FFB6B6"/>
<path d="M303.722 310.674L325.985 303.921C325.985 303.921 334.697 324.181 333.245 333.346C331.793 342.512 318.565 386.178 318.565 386.178L289.203 370.008C289.203 370.008 288.719 360.36 287.267 356.019C285.815 351.677 281.217 338.412 291.38 327.317C301.544 316.222 303.722 310.674 303.722 310.674Z" fill="#E6E6E6"/>
<path d="M254.722 411.968C251.099 416.294 250.402 421.664 253.165 423.962C255.928 426.26 261.104 424.615 264.727 420.287C266.199 418.577 267.238 416.542 267.758 414.35L282.878 395.825L275.513 389.885L260.042 407.932C257.971 408.834 256.147 410.218 254.722 411.968Z" fill="#FFB6B6"/>
<path d="M320.799 320.406L326.061 341.182L300.306 382.273L274.014 408.611L265.492 401.564L292.008 368.68L312.107 326.31L320.799 320.406Z" fill="#E6E6E6"/>
<path d="M293.074 286.072C297.046 286.063 297.272 286.089 297.914 286.072C302.841 285.943 304.129 284.011 306.626 284.142C311.083 284.378 305.2 306.649 302.754 316.945C300.355 327.043 308.463 336.092 309.046 336.723C317.276 345.645 331.732 347.276 334.213 343.477C336.22 340.402 329.105 335.726 330.825 329.005C332.506 322.435 340.27 323.134 342.44 316.945C344.713 310.463 337.075 307.194 332.277 291.378C329.521 282.295 330.008 280.603 327.437 274.977C320.563 259.94 286.872 266.342 290.655 280.283C291.386 282.98 289.439 286.081 293.074 286.072Z" fill="#2F2E41"/>
<path d="M342.529 102.82H179.76C175.157 102.82 171.412 99.0874 171.412 94.4998V8.3205C171.412 3.73283 175.157 0 179.76 0H342.529C347.132 0 350.877 3.73282 350.877 8.3205V94.4998C350.877 99.0874 347.132 102.82 342.529 102.82Z" fill="white"/>
<path d="M342.529 102.82H179.76C175.157 102.82 171.412 99.0874 171.412 94.4998V8.3205C171.412 3.73283 175.157 0 179.76 0H342.529C347.132 0 350.877 3.73282 350.877 8.3205V94.4998C350.877 99.0874 347.132 102.82 342.529 102.82ZM179.76 1.38946C175.926 1.38946 172.806 4.4988 172.806 8.3205V94.4998C172.806 98.3215 175.926 101.431 179.76 101.431H342.529C346.363 101.431 349.483 98.3215 349.483 94.4998V8.3205C349.483 4.4988 346.363 1.38946 342.529 1.38946H179.76Z" fill="#3F3D56"/>
<path d="M329.966 10.4209C331.121 10.4209 332.057 9.48782 332.057 8.33675C332.057 7.18569 331.121 6.25256 329.966 6.25256C328.811 6.25256 327.875 7.18569 327.875 8.33675C327.875 9.48782 328.811 10.4209 329.966 10.4209Z" fill="#3F3D56"/>
<path d="M335.542 10.4209C336.697 10.4209 337.633 9.48782 337.633 8.33675C337.633 7.18569 336.697 6.25256 335.542 6.25256C334.387 6.25256 333.451 7.18569 333.451 8.33675C333.451 9.48782 334.387 10.4209 335.542 10.4209Z" fill="#3F3D56"/>
<path d="M341.118 10.4209C342.273 10.4209 343.209 9.48782 343.209 8.33675C343.209 7.18569 342.273 6.25256 341.118 6.25256C339.964 6.25256 339.027 7.18569 339.027 8.33675C339.027 9.48782 339.964 10.4209 341.118 10.4209Z" fill="#3F3D56"/>
<path d="M183.261 42.0312C182.685 42.0312 182.216 42.4987 182.216 43.0733C182.216 43.3535 182.324 43.6127 182.521 43.804C182.72 44.0069 182.981 44.1154 183.261 44.1154H339.725C340.301 44.1154 340.77 43.648 340.77 43.0733C340.77 42.7931 340.662 42.534 340.465 42.3427C340.266 42.1398 340.005 42.0312 339.725 42.0312H183.261Z" fill="#E6E6E6"/>
<path d="M320.208 41.6838V44.4628H183.261C182.878 44.4628 182.529 44.3099 182.278 44.0529C182.021 43.8028 181.867 43.4554 181.867 43.0733C181.867 42.3091 182.495 41.6838 183.261 41.6838H320.208Z" fill="#DEA8E0"/>
<path d="M337.982 36.4734H324.042C322.505 36.4734 321.254 35.2271 321.254 33.6945C321.254 32.1618 322.505 30.9155 324.042 30.9155H337.982C339.52 30.9155 340.77 32.1618 340.77 33.6945C340.77 35.2271 339.52 36.4734 337.982 36.4734Z" fill="#E6E6E6"/>
<path d="M246.673 21.884H184.307C182.769 21.884 181.519 20.6377 181.519 19.1051C181.519 17.5725 182.769 16.3262 184.307 16.3262H246.673C248.21 16.3262 249.461 17.5725 249.461 19.1051C249.461 20.6377 248.21 21.884 246.673 21.884Z" fill="#E6E6E6"/>
<path d="M183.261 73.2942C182.685 73.2942 182.216 73.7616 182.216 74.3363C182.216 74.6165 182.324 74.8756 182.521 75.067C182.72 75.2698 182.981 75.3784 183.261 75.3784H339.725C340.301 75.3784 340.77 74.9109 340.77 74.3363C340.77 74.0561 340.662 73.7969 340.465 73.6056C340.266 73.4027 340.005 73.2942 339.725 73.2942H183.261Z" fill="#E6E6E6"/>
<path d="M266.538 72.9468V75.7257H183.261C182.878 75.7257 182.529 75.5728 182.278 75.3158C182.021 75.0657 181.867 74.7183 181.867 74.3362C181.867 73.572 182.495 72.9468 183.261 72.9468H266.538Z" fill="#DEA8E0"/>
<path d="M337.982 67.7363H324.042C322.505 67.7363 321.254 66.49 321.254 64.9574C321.254 63.4248 322.505 62.1785 324.042 62.1785H337.982C339.52 62.1785 340.77 63.4248 340.77 64.9574C340.77 66.49 339.52 67.7363 337.982 67.7363Z" fill="#E6E6E6"/>
</g>
<defs>
<clipPath id="clip0_36_775">
<rect width="421" height="425" fill="white"/>
</clipPath>
</defs>
</svg>
